%FSLAX45Y45*%
G04 Gerber Fmt 4.5, Leading zero omitted, Abs format (unit mm)*
G04 Created by KiCad (PCBNEW 4.0.5) date 01/30/17 23:10:16*
%MOMM*%
%LPD*%
G01*
G04 APERTURE LIST*
%ADD10C,0.127000*%
%ADD11C,0.150000*%
%ADD12C,0.200000*%
%ADD13C,0.300000*%
G04 APERTURE END LIST*
D10*
D11*
X17399000Y-7493000D02*
X12192000Y-7493000D01*
X17399000Y-11176000D02*
X17399000Y-7493000D01*
X12192000Y-11176000D02*
X17399000Y-11176000D01*
X12192000Y-7493000D02*
X12192000Y-11176000D01*
D12*
X15712500Y-8222500D02*
X15777500Y-8287500D01*
X15777500Y-8222500D02*
X15712500Y-8287500D01*
X15712500Y-9622500D02*
X15777500Y-9687500D01*
X15777500Y-9622500D02*
X15712500Y-9687500D01*
X15912500Y-8222500D02*
X15977500Y-8287500D01*
X15977500Y-8222500D02*
X15912500Y-8287500D01*
X15912500Y-9622500D02*
X15977500Y-9687500D01*
X15977500Y-9622500D02*
X15912500Y-9687500D01*
X16112500Y-8222500D02*
X16177500Y-8287500D01*
X16177500Y-8222500D02*
X16112500Y-8287500D01*
X16112500Y-9622500D02*
X16177500Y-9687500D01*
X16177500Y-9622500D02*
X16112500Y-9687500D01*
X16312500Y-8222500D02*
X16377500Y-8287500D01*
X16377500Y-8222500D02*
X16312500Y-8287500D01*
X16312500Y-9622500D02*
X16377500Y-9687500D01*
X16377500Y-9622500D02*
X16312500Y-9687500D01*
X16512500Y-8222500D02*
X16577500Y-8287500D01*
X16577500Y-8222500D02*
X16512500Y-8287500D01*
X16512500Y-9622500D02*
X16577500Y-9687500D01*
X16577500Y-9622500D02*
X16512500Y-9687500D01*
X16712500Y-8222500D02*
X16777500Y-8287500D01*
X16777500Y-8222500D02*
X16712500Y-8287500D01*
X16712500Y-9622500D02*
X16777500Y-9687500D01*
X16777500Y-9622500D02*
X16712500Y-9687500D01*
X16912500Y-8222500D02*
X16977500Y-8287500D01*
X16977500Y-8222500D02*
X16912500Y-8287500D01*
X16912500Y-9622500D02*
X16977500Y-9687500D01*
X16977500Y-9622500D02*
X16912500Y-9687500D01*
X17112500Y-8222500D02*
X17177500Y-8287500D01*
X17177500Y-8222500D02*
X17112500Y-8287500D01*
X17112500Y-9622500D02*
X17177500Y-9687500D01*
X17177500Y-9622500D02*
X17112500Y-9687500D01*
X13624000Y-7747000D02*
G75*
G03X13624000Y-7747000I-35000J0D01*
G01*
X13624000Y-7937000D02*
G75*
G03X13624000Y-7937000I-35000J0D01*
G01*
X13624000Y-8509000D02*
G75*
G03X13624000Y-8509000I-35000J0D01*
G01*
X13624000Y-8699000D02*
G75*
G03X13624000Y-8699000I-35000J0D01*
G01*
X13624000Y-9271000D02*
G75*
G03X13624000Y-9271000I-35000J0D01*
G01*
X13624000Y-9461000D02*
G75*
G03X13624000Y-9461000I-35000J0D01*
G01*
X13624000Y-10033000D02*
G75*
G03X13624000Y-10033000I-35000J0D01*
G01*
X13624000Y-10223000D02*
G75*
G03X13624000Y-10223000I-35000J0D01*
G01*
X15783000Y-9970000D02*
G75*
G03X15783000Y-9970000I-35000J0D01*
G01*
X15783000Y-10160000D02*
G75*
G03X15783000Y-10160000I-35000J0D01*
G01*
X16164000Y-10160000D02*
G75*
G03X16164000Y-10160000I-35000J0D01*
G01*
X16354000Y-10160000D02*
G75*
G03X16354000Y-10160000I-35000J0D01*
G01*
X16926000Y-7747000D02*
G75*
G03X16926000Y-7747000I-35000J0D01*
G01*
X17116000Y-7747000D02*
G75*
G03X17116000Y-7747000I-35000J0D01*
G01*
X14224000Y-7834000D02*
X14224000Y-7914000D01*
X14184000Y-7874000D02*
X14264000Y-7874000D01*
X14224000Y-8088000D02*
X14224000Y-8168000D01*
X14184000Y-8128000D02*
X14264000Y-8128000D01*
X14224000Y-8342000D02*
X14224000Y-8422000D01*
X14184000Y-8382000D02*
X14264000Y-8382000D01*
X14224000Y-8596000D02*
X14224000Y-8676000D01*
X14184000Y-8636000D02*
X14264000Y-8636000D01*
X14224000Y-8850000D02*
X14224000Y-8930000D01*
X14184000Y-8890000D02*
X14264000Y-8890000D01*
X14224000Y-9104000D02*
X14224000Y-9184000D01*
X14184000Y-9144000D02*
X14264000Y-9144000D01*
X14224000Y-9358000D02*
X14224000Y-9438000D01*
X14184000Y-9398000D02*
X14264000Y-9398000D01*
X14224000Y-9612000D02*
X14224000Y-9692000D01*
X14184000Y-9652000D02*
X14264000Y-9652000D01*
X14224000Y-9866000D02*
X14224000Y-9946000D01*
X14184000Y-9906000D02*
X14264000Y-9906000D01*
X14224000Y-10120000D02*
X14224000Y-10200000D01*
X14184000Y-10160000D02*
X14264000Y-10160000D01*
X14986000Y-7834000D02*
X14986000Y-7914000D01*
X14946000Y-7874000D02*
X15026000Y-7874000D01*
X14986000Y-8088000D02*
X14986000Y-8168000D01*
X14946000Y-8128000D02*
X15026000Y-8128000D01*
X14986000Y-8342000D02*
X14986000Y-8422000D01*
X14946000Y-8382000D02*
X15026000Y-8382000D01*
X14986000Y-8596000D02*
X14986000Y-8676000D01*
X14946000Y-8636000D02*
X15026000Y-8636000D01*
X14986000Y-8850000D02*
X14986000Y-8930000D01*
X14946000Y-8890000D02*
X15026000Y-8890000D01*
X14986000Y-9104000D02*
X14986000Y-9184000D01*
X14946000Y-9144000D02*
X15026000Y-9144000D01*
X14986000Y-9358000D02*
X14986000Y-9438000D01*
X14946000Y-9398000D02*
X15026000Y-9398000D01*
X14986000Y-9612000D02*
X14986000Y-9692000D01*
X14946000Y-9652000D02*
X15026000Y-9652000D01*
X14986000Y-9866000D02*
X14986000Y-9946000D01*
X14946000Y-9906000D02*
X15026000Y-9906000D01*
X14986000Y-10120000D02*
X14986000Y-10200000D01*
X14946000Y-10160000D02*
X15026000Y-10160000D01*
X16002000Y-10632000D02*
X16002000Y-10712000D01*
X15962000Y-10672000D02*
X16042000Y-10672000D01*
X16002000Y-10882000D02*
X16002000Y-10962000D01*
X15962000Y-10922000D02*
X16042000Y-10922000D01*
X12608921Y-10957921D02*
X12608921Y-10886079D01*
X12537079Y-10886079D01*
X12537079Y-10957921D01*
X12608921Y-10957921D01*
X12862921Y-10957921D02*
X12862921Y-10886079D01*
X12791079Y-10886079D01*
X12791079Y-10957921D01*
X12862921Y-10957921D01*
X13116921Y-10957921D02*
X13116921Y-10886079D01*
X13045079Y-10886079D01*
X13045079Y-10957921D01*
X13116921Y-10957921D01*
X13370921Y-10957921D02*
X13370921Y-10886079D01*
X13299079Y-10886079D01*
X13299079Y-10957921D01*
X13370921Y-10957921D01*
X13878921Y-10576921D02*
X13878921Y-10505079D01*
X13807079Y-10505079D01*
X13807079Y-10576921D01*
X13878921Y-10576921D01*
X13878921Y-10957921D02*
X13878921Y-10886079D01*
X13807079Y-10886079D01*
X13807079Y-10957921D01*
X13878921Y-10957921D01*
X14005921Y-9433921D02*
X14005921Y-9362079D01*
X13934079Y-9362079D01*
X13934079Y-9433921D01*
X14005921Y-9433921D01*
X14005921Y-9687921D02*
X14005921Y-9616079D01*
X13934079Y-9616079D01*
X13934079Y-9687921D01*
X14005921Y-9687921D01*
X14132921Y-10576921D02*
X14132921Y-10505079D01*
X14061079Y-10505079D01*
X14061079Y-10576921D01*
X14132921Y-10576921D01*
X14132921Y-10957921D02*
X14132921Y-10886079D01*
X14061079Y-10886079D01*
X14061079Y-10957921D01*
X14132921Y-10957921D01*
X15021921Y-10576921D02*
X15021921Y-10505079D01*
X14950079Y-10505079D01*
X14950079Y-10576921D01*
X15021921Y-10576921D01*
X15021921Y-10957921D02*
X15021921Y-10886079D01*
X14950079Y-10886079D01*
X14950079Y-10957921D01*
X15021921Y-10957921D01*
X15275921Y-10576921D02*
X15275921Y-10505079D01*
X15204079Y-10505079D01*
X15204079Y-10576921D01*
X15275921Y-10576921D01*
X15275921Y-10957921D02*
X15275921Y-10886079D01*
X15204079Y-10886079D01*
X15204079Y-10957921D01*
X15275921Y-10957921D01*
X15529921Y-10576921D02*
X15529921Y-10505079D01*
X15458079Y-10505079D01*
X15458079Y-10576921D01*
X15529921Y-10576921D01*
X16418921Y-10703921D02*
X16418921Y-10632079D01*
X16347079Y-10632079D01*
X16347079Y-10703921D01*
X16418921Y-10703921D01*
X16672921Y-10703921D02*
X16672921Y-10632079D01*
X16601079Y-10632079D01*
X16601079Y-10703921D01*
X16672921Y-10703921D01*
X17180921Y-10195921D02*
X17180921Y-10124079D01*
X17109079Y-10124079D01*
X17109079Y-10195921D01*
X17180921Y-10195921D01*
X17180921Y-10449921D02*
X17180921Y-10378079D01*
X17109079Y-10378079D01*
X17109079Y-10449921D01*
X17180921Y-10449921D01*
X17180921Y-10703921D02*
X17180921Y-10632079D01*
X17109079Y-10632079D01*
X17109079Y-10703921D01*
X17180921Y-10703921D01*
X17180921Y-10957921D02*
X17180921Y-10886079D01*
X17109079Y-10886079D01*
X17109079Y-10957921D01*
X17180921Y-10957921D01*
X12700000Y-7804150D02*
X12757150Y-7747000D01*
X12700000Y-7689850D01*
X12642850Y-7747000D01*
X12700000Y-7804150D01*
X12700000Y-8566150D02*
X12757150Y-8509000D01*
X12700000Y-8451850D01*
X12642850Y-8509000D01*
X12700000Y-8566150D01*
X12700000Y-9328150D02*
X12757150Y-9271000D01*
X12700000Y-9213850D01*
X12642850Y-9271000D01*
X12700000Y-9328150D01*
X12700000Y-10090150D02*
X12757150Y-10033000D01*
X12700000Y-9975850D01*
X12642850Y-10033000D01*
X12700000Y-10090150D01*
X12954000Y-7804150D02*
X13011150Y-7747000D01*
X12954000Y-7689850D01*
X12896850Y-7747000D01*
X12954000Y-7804150D01*
X12954000Y-8566150D02*
X13011150Y-8509000D01*
X12954000Y-8451850D01*
X12896850Y-8509000D01*
X12954000Y-8566150D01*
X12954000Y-9328150D02*
X13011150Y-9271000D01*
X12954000Y-9213850D01*
X12896850Y-9271000D01*
X12954000Y-9328150D01*
X12954000Y-10090150D02*
X13011150Y-10033000D01*
X12954000Y-9975850D01*
X12896850Y-10033000D01*
X12954000Y-10090150D01*
X13208000Y-7804150D02*
X13265150Y-7747000D01*
X13208000Y-7689850D01*
X13150850Y-7747000D01*
X13208000Y-7804150D01*
X13208000Y-8566150D02*
X13265150Y-8509000D01*
X13208000Y-8451850D01*
X13150850Y-8509000D01*
X13208000Y-8566150D01*
X13208000Y-9328150D02*
X13265150Y-9271000D01*
X13208000Y-9213850D01*
X13150850Y-9271000D01*
X13208000Y-9328150D01*
X13208000Y-10090150D02*
X13265150Y-10033000D01*
X13208000Y-9975850D01*
X13150850Y-10033000D01*
X13208000Y-10090150D01*
D13*
X12455928Y-11649214D02*
X12455928Y-11349214D01*
X12527357Y-11349214D01*
X12570214Y-11363500D01*
X12598786Y-11392071D01*
X12613071Y-11420643D01*
X12627357Y-11477786D01*
X12627357Y-11520643D01*
X12613071Y-11577786D01*
X12598786Y-11606357D01*
X12570214Y-11634929D01*
X12527357Y-11649214D01*
X12455928Y-11649214D01*
X12755928Y-11649214D02*
X12755928Y-11449214D01*
X12755928Y-11506357D02*
X12770214Y-11477786D01*
X12784500Y-11463500D01*
X12813071Y-11449214D01*
X12841643Y-11449214D01*
X12941643Y-11649214D02*
X12941643Y-11449214D01*
X12941643Y-11349214D02*
X12927357Y-11363500D01*
X12941643Y-11377786D01*
X12955928Y-11363500D01*
X12941643Y-11349214D01*
X12941643Y-11377786D01*
X13127357Y-11649214D02*
X13098786Y-11634929D01*
X13084500Y-11606357D01*
X13084500Y-11349214D01*
X13284500Y-11649214D02*
X13255928Y-11634929D01*
X13241643Y-11606357D01*
X13241643Y-11349214D01*
X13627357Y-11649214D02*
X13627357Y-11349214D01*
X13727357Y-11563500D01*
X13827357Y-11349214D01*
X13827357Y-11649214D01*
X14098786Y-11649214D02*
X14098786Y-11492071D01*
X14084500Y-11463500D01*
X14055928Y-11449214D01*
X13998786Y-11449214D01*
X13970214Y-11463500D01*
X14098786Y-11634929D02*
X14070214Y-11649214D01*
X13998786Y-11649214D01*
X13970214Y-11634929D01*
X13955928Y-11606357D01*
X13955928Y-11577786D01*
X13970214Y-11549214D01*
X13998786Y-11534929D01*
X14070214Y-11534929D01*
X14098786Y-11520643D01*
X14241643Y-11449214D02*
X14241643Y-11749214D01*
X14241643Y-11463500D02*
X14270214Y-11449214D01*
X14327357Y-11449214D01*
X14355928Y-11463500D01*
X14370214Y-11477786D01*
X14384500Y-11506357D01*
X14384500Y-11592071D01*
X14370214Y-11620643D01*
X14355928Y-11634929D01*
X14327357Y-11649214D01*
X14270214Y-11649214D01*
X14241643Y-11634929D01*
X14513071Y-11620643D02*
X14527357Y-11634929D01*
X14513071Y-11649214D01*
X14498786Y-11634929D01*
X14513071Y-11620643D01*
X14513071Y-11649214D01*
X14513071Y-11463500D02*
X14527357Y-11477786D01*
X14513071Y-11492071D01*
X14498786Y-11477786D01*
X14513071Y-11463500D01*
X14513071Y-11492071D01*
X12119500Y-12111000D02*
X12184500Y-12176000D01*
X12184500Y-12111000D02*
X12119500Y-12176000D01*
X12513071Y-11979214D02*
X12541643Y-11979214D01*
X12570214Y-11993500D01*
X12584500Y-12007786D01*
X12598786Y-12036357D01*
X12613071Y-12093500D01*
X12613071Y-12164929D01*
X12598786Y-12222071D01*
X12584500Y-12250643D01*
X12570214Y-12264929D01*
X12541643Y-12279214D01*
X12513071Y-12279214D01*
X12484500Y-12264929D01*
X12470214Y-12250643D01*
X12455928Y-12222071D01*
X12441643Y-12164929D01*
X12441643Y-12093500D01*
X12455928Y-12036357D01*
X12470214Y-12007786D01*
X12484500Y-11993500D01*
X12513071Y-11979214D01*
X12741643Y-12250643D02*
X12755928Y-12264929D01*
X12741643Y-12279214D01*
X12727357Y-12264929D01*
X12741643Y-12250643D01*
X12741643Y-12279214D01*
X13013071Y-11979214D02*
X12955928Y-11979214D01*
X12927357Y-11993500D01*
X12913071Y-12007786D01*
X12884500Y-12050643D01*
X12870214Y-12107786D01*
X12870214Y-12222071D01*
X12884500Y-12250643D01*
X12898786Y-12264929D01*
X12927357Y-12279214D01*
X12984500Y-12279214D01*
X13013071Y-12264929D01*
X13027357Y-12250643D01*
X13041643Y-12222071D01*
X13041643Y-12150643D01*
X13027357Y-12122071D01*
X13013071Y-12107786D01*
X12984500Y-12093500D01*
X12927357Y-12093500D01*
X12898786Y-12107786D01*
X12884500Y-12122071D01*
X12870214Y-12150643D01*
X13313071Y-11979214D02*
X13170214Y-11979214D01*
X13155928Y-12122071D01*
X13170214Y-12107786D01*
X13198786Y-12093500D01*
X13270214Y-12093500D01*
X13298786Y-12107786D01*
X13313071Y-12122071D01*
X13327357Y-12150643D01*
X13327357Y-12222071D01*
X13313071Y-12250643D01*
X13298786Y-12264929D01*
X13270214Y-12279214D01*
X13198786Y-12279214D01*
X13170214Y-12264929D01*
X13155928Y-12250643D01*
X13455928Y-12279214D02*
X13455928Y-12079214D01*
X13455928Y-12107786D02*
X13470214Y-12093500D01*
X13498786Y-12079214D01*
X13541643Y-12079214D01*
X13570214Y-12093500D01*
X13584500Y-12122071D01*
X13584500Y-12279214D01*
X13584500Y-12122071D02*
X13598786Y-12093500D01*
X13627357Y-12079214D01*
X13670214Y-12079214D01*
X13698786Y-12093500D01*
X13713071Y-12122071D01*
X13713071Y-12279214D01*
X13855928Y-12279214D02*
X13855928Y-12079214D01*
X13855928Y-12107786D02*
X13870214Y-12093500D01*
X13898786Y-12079214D01*
X13941643Y-12079214D01*
X13970214Y-12093500D01*
X13984500Y-12122071D01*
X13984500Y-12279214D01*
X13984500Y-12122071D02*
X13998786Y-12093500D01*
X14027357Y-12079214D01*
X14070214Y-12079214D01*
X14098786Y-12093500D01*
X14113071Y-12122071D01*
X14113071Y-12279214D01*
X14698786Y-11964929D02*
X14441643Y-12350643D01*
X15084500Y-11979214D02*
X15113071Y-11979214D01*
X15141643Y-11993500D01*
X15155928Y-12007786D01*
X15170214Y-12036357D01*
X15184500Y-12093500D01*
X15184500Y-12164929D01*
X15170214Y-12222071D01*
X15155928Y-12250643D01*
X15141643Y-12264929D01*
X15113071Y-12279214D01*
X15084500Y-12279214D01*
X15055928Y-12264929D01*
X15041643Y-12250643D01*
X15027357Y-12222071D01*
X15013071Y-12164929D01*
X15013071Y-12093500D01*
X15027357Y-12036357D01*
X15041643Y-12007786D01*
X15055928Y-11993500D01*
X15084500Y-11979214D01*
X15313071Y-12250643D02*
X15327357Y-12264929D01*
X15313071Y-12279214D01*
X15298786Y-12264929D01*
X15313071Y-12250643D01*
X15313071Y-12279214D01*
X15513071Y-11979214D02*
X15541643Y-11979214D01*
X15570214Y-11993500D01*
X15584500Y-12007786D01*
X15598785Y-12036357D01*
X15613071Y-12093500D01*
X15613071Y-12164929D01*
X15598785Y-12222071D01*
X15584500Y-12250643D01*
X15570214Y-12264929D01*
X15541643Y-12279214D01*
X15513071Y-12279214D01*
X15484500Y-12264929D01*
X15470214Y-12250643D01*
X15455928Y-12222071D01*
X15441643Y-12164929D01*
X15441643Y-12093500D01*
X15455928Y-12036357D01*
X15470214Y-12007786D01*
X15484500Y-11993500D01*
X15513071Y-11979214D01*
X15727357Y-12007786D02*
X15741643Y-11993500D01*
X15770214Y-11979214D01*
X15841643Y-11979214D01*
X15870214Y-11993500D01*
X15884500Y-12007786D01*
X15898785Y-12036357D01*
X15898785Y-12064929D01*
X15884500Y-12107786D01*
X15713071Y-12279214D01*
X15898785Y-12279214D01*
X16155928Y-11979214D02*
X16098785Y-11979214D01*
X16070214Y-11993500D01*
X16055928Y-12007786D01*
X16027357Y-12050643D01*
X16013071Y-12107786D01*
X16013071Y-12222071D01*
X16027357Y-12250643D01*
X16041643Y-12264929D01*
X16070214Y-12279214D01*
X16127357Y-12279214D01*
X16155928Y-12264929D01*
X16170214Y-12250643D01*
X16184500Y-12222071D01*
X16184500Y-12150643D01*
X16170214Y-12122071D01*
X16155928Y-12107786D01*
X16127357Y-12093500D01*
X16070214Y-12093500D01*
X16041643Y-12107786D01*
X16027357Y-12122071D01*
X16013071Y-12150643D01*
X16298786Y-11979214D02*
X16298786Y-12036357D01*
X16413071Y-11979214D02*
X16413071Y-12036357D01*
X16855928Y-12393500D02*
X16841643Y-12379214D01*
X16813071Y-12336357D01*
X16798786Y-12307786D01*
X16784500Y-12264929D01*
X16770214Y-12193500D01*
X16770214Y-12136357D01*
X16784500Y-12064929D01*
X16798786Y-12022071D01*
X16813071Y-11993500D01*
X16841643Y-11950643D01*
X16855928Y-11936357D01*
X17127357Y-12279214D02*
X16955928Y-12279214D01*
X17041643Y-12279214D02*
X17041643Y-11979214D01*
X17013071Y-12022071D01*
X16984500Y-12050643D01*
X16955928Y-12064929D01*
X17384500Y-11979214D02*
X17327357Y-11979214D01*
X17298786Y-11993500D01*
X17284500Y-12007786D01*
X17255928Y-12050643D01*
X17241643Y-12107786D01*
X17241643Y-12222071D01*
X17255928Y-12250643D01*
X17270214Y-12264929D01*
X17298786Y-12279214D01*
X17355928Y-12279214D01*
X17384500Y-12264929D01*
X17398786Y-12250643D01*
X17413071Y-12222071D01*
X17413071Y-12150643D01*
X17398786Y-12122071D01*
X17384500Y-12107786D01*
X17355928Y-12093500D01*
X17298786Y-12093500D01*
X17270214Y-12107786D01*
X17255928Y-12122071D01*
X17241643Y-12150643D01*
X17770214Y-12279214D02*
X17770214Y-11979214D01*
X17898786Y-12279214D02*
X17898786Y-12122071D01*
X17884500Y-12093500D01*
X17855928Y-12079214D01*
X17813071Y-12079214D01*
X17784500Y-12093500D01*
X17770214Y-12107786D01*
X18084500Y-12279214D02*
X18055928Y-12264929D01*
X18041643Y-12250643D01*
X18027357Y-12222071D01*
X18027357Y-12136357D01*
X18041643Y-12107786D01*
X18055928Y-12093500D01*
X18084500Y-12079214D01*
X18127357Y-12079214D01*
X18155928Y-12093500D01*
X18170214Y-12107786D01*
X18184500Y-12136357D01*
X18184500Y-12222071D01*
X18170214Y-12250643D01*
X18155928Y-12264929D01*
X18127357Y-12279214D01*
X18084500Y-12279214D01*
X18355928Y-12279214D02*
X18327357Y-12264929D01*
X18313071Y-12236357D01*
X18313071Y-11979214D01*
X18584500Y-12264929D02*
X18555929Y-12279214D01*
X18498786Y-12279214D01*
X18470214Y-12264929D01*
X18455929Y-12236357D01*
X18455929Y-12122071D01*
X18470214Y-12093500D01*
X18498786Y-12079214D01*
X18555929Y-12079214D01*
X18584500Y-12093500D01*
X18598786Y-12122071D01*
X18598786Y-12150643D01*
X18455929Y-12179214D01*
X18713071Y-12264929D02*
X18741643Y-12279214D01*
X18798786Y-12279214D01*
X18827357Y-12264929D01*
X18841643Y-12236357D01*
X18841643Y-12222071D01*
X18827357Y-12193500D01*
X18798786Y-12179214D01*
X18755929Y-12179214D01*
X18727357Y-12164929D01*
X18713071Y-12136357D01*
X18713071Y-12122071D01*
X18727357Y-12093500D01*
X18755929Y-12079214D01*
X18798786Y-12079214D01*
X18827357Y-12093500D01*
X18941643Y-12393500D02*
X18955929Y-12379214D01*
X18984500Y-12336357D01*
X18998786Y-12307786D01*
X19013071Y-12264929D01*
X19027357Y-12193500D01*
X19027357Y-12136357D01*
X19013071Y-12064929D01*
X18998786Y-12022071D01*
X18984500Y-11993500D01*
X18955929Y-11950643D01*
X18941643Y-11936357D01*
X12184500Y-12539500D02*
G75*
G03X12184500Y-12539500I-35000J0D01*
G01*
X12513071Y-12375214D02*
X12541643Y-12375214D01*
X12570214Y-12389500D01*
X12584500Y-12403786D01*
X12598786Y-12432357D01*
X12613071Y-12489500D01*
X12613071Y-12560929D01*
X12598786Y-12618071D01*
X12584500Y-12646643D01*
X12570214Y-12660929D01*
X12541643Y-12675214D01*
X12513071Y-12675214D01*
X12484500Y-12660929D01*
X12470214Y-12646643D01*
X12455928Y-12618071D01*
X12441643Y-12560929D01*
X12441643Y-12489500D01*
X12455928Y-12432357D01*
X12470214Y-12403786D01*
X12484500Y-12389500D01*
X12513071Y-12375214D01*
X12741643Y-12646643D02*
X12755928Y-12660929D01*
X12741643Y-12675214D01*
X12727357Y-12660929D01*
X12741643Y-12646643D01*
X12741643Y-12675214D01*
X12855928Y-12375214D02*
X13055928Y-12375214D01*
X12927357Y-12675214D01*
X13227357Y-12375214D02*
X13255928Y-12375214D01*
X13284500Y-12389500D01*
X13298786Y-12403786D01*
X13313071Y-12432357D01*
X13327357Y-12489500D01*
X13327357Y-12560929D01*
X13313071Y-12618071D01*
X13298786Y-12646643D01*
X13284500Y-12660929D01*
X13255928Y-12675214D01*
X13227357Y-12675214D01*
X13198786Y-12660929D01*
X13184500Y-12646643D01*
X13170214Y-12618071D01*
X13155928Y-12560929D01*
X13155928Y-12489500D01*
X13170214Y-12432357D01*
X13184500Y-12403786D01*
X13198786Y-12389500D01*
X13227357Y-12375214D01*
X13455928Y-12675214D02*
X13455928Y-12475214D01*
X13455928Y-12503786D02*
X13470214Y-12489500D01*
X13498786Y-12475214D01*
X13541643Y-12475214D01*
X13570214Y-12489500D01*
X13584500Y-12518071D01*
X13584500Y-12675214D01*
X13584500Y-12518071D02*
X13598786Y-12489500D01*
X13627357Y-12475214D01*
X13670214Y-12475214D01*
X13698786Y-12489500D01*
X13713071Y-12518071D01*
X13713071Y-12675214D01*
X13855928Y-12675214D02*
X13855928Y-12475214D01*
X13855928Y-12503786D02*
X13870214Y-12489500D01*
X13898786Y-12475214D01*
X13941643Y-12475214D01*
X13970214Y-12489500D01*
X13984500Y-12518071D01*
X13984500Y-12675214D01*
X13984500Y-12518071D02*
X13998786Y-12489500D01*
X14027357Y-12475214D01*
X14070214Y-12475214D01*
X14098786Y-12489500D01*
X14113071Y-12518071D01*
X14113071Y-12675214D01*
X14698786Y-12360929D02*
X14441643Y-12746643D01*
X15084500Y-12375214D02*
X15113071Y-12375214D01*
X15141643Y-12389500D01*
X15155928Y-12403786D01*
X15170214Y-12432357D01*
X15184500Y-12489500D01*
X15184500Y-12560929D01*
X15170214Y-12618071D01*
X15155928Y-12646643D01*
X15141643Y-12660929D01*
X15113071Y-12675214D01*
X15084500Y-12675214D01*
X15055928Y-12660929D01*
X15041643Y-12646643D01*
X15027357Y-12618071D01*
X15013071Y-12560929D01*
X15013071Y-12489500D01*
X15027357Y-12432357D01*
X15041643Y-12403786D01*
X15055928Y-12389500D01*
X15084500Y-12375214D01*
X15313071Y-12646643D02*
X15327357Y-12660929D01*
X15313071Y-12675214D01*
X15298786Y-12660929D01*
X15313071Y-12646643D01*
X15313071Y-12675214D01*
X15513071Y-12375214D02*
X15541643Y-12375214D01*
X15570214Y-12389500D01*
X15584500Y-12403786D01*
X15598785Y-12432357D01*
X15613071Y-12489500D01*
X15613071Y-12560929D01*
X15598785Y-12618071D01*
X15584500Y-12646643D01*
X15570214Y-12660929D01*
X15541643Y-12675214D01*
X15513071Y-12675214D01*
X15484500Y-12660929D01*
X15470214Y-12646643D01*
X15455928Y-12618071D01*
X15441643Y-12560929D01*
X15441643Y-12489500D01*
X15455928Y-12432357D01*
X15470214Y-12403786D01*
X15484500Y-12389500D01*
X15513071Y-12375214D01*
X15727357Y-12403786D02*
X15741643Y-12389500D01*
X15770214Y-12375214D01*
X15841643Y-12375214D01*
X15870214Y-12389500D01*
X15884500Y-12403786D01*
X15898785Y-12432357D01*
X15898785Y-12460929D01*
X15884500Y-12503786D01*
X15713071Y-12675214D01*
X15898785Y-12675214D01*
X16070214Y-12503786D02*
X16041643Y-12489500D01*
X16027357Y-12475214D01*
X16013071Y-12446643D01*
X16013071Y-12432357D01*
X16027357Y-12403786D01*
X16041643Y-12389500D01*
X16070214Y-12375214D01*
X16127357Y-12375214D01*
X16155928Y-12389500D01*
X16170214Y-12403786D01*
X16184500Y-12432357D01*
X16184500Y-12446643D01*
X16170214Y-12475214D01*
X16155928Y-12489500D01*
X16127357Y-12503786D01*
X16070214Y-12503786D01*
X16041643Y-12518071D01*
X16027357Y-12532357D01*
X16013071Y-12560929D01*
X16013071Y-12618071D01*
X16027357Y-12646643D01*
X16041643Y-12660929D01*
X16070214Y-12675214D01*
X16127357Y-12675214D01*
X16155928Y-12660929D01*
X16170214Y-12646643D01*
X16184500Y-12618071D01*
X16184500Y-12560929D01*
X16170214Y-12532357D01*
X16155928Y-12518071D01*
X16127357Y-12503786D01*
X16298786Y-12375214D02*
X16298786Y-12432357D01*
X16413071Y-12375214D02*
X16413071Y-12432357D01*
X16855928Y-12789500D02*
X16841643Y-12775214D01*
X16813071Y-12732357D01*
X16798786Y-12703786D01*
X16784500Y-12660929D01*
X16770214Y-12589500D01*
X16770214Y-12532357D01*
X16784500Y-12460929D01*
X16798786Y-12418071D01*
X16813071Y-12389500D01*
X16841643Y-12346643D01*
X16855928Y-12332357D01*
X17127357Y-12675214D02*
X16955928Y-12675214D01*
X17041643Y-12675214D02*
X17041643Y-12375214D01*
X17013071Y-12418071D01*
X16984500Y-12446643D01*
X16955928Y-12460929D01*
X17384500Y-12475214D02*
X17384500Y-12675214D01*
X17313071Y-12360929D02*
X17241643Y-12575214D01*
X17427357Y-12575214D01*
X17770214Y-12675214D02*
X17770214Y-12375214D01*
X17898786Y-12675214D02*
X17898786Y-12518071D01*
X17884500Y-12489500D01*
X17855928Y-12475214D01*
X17813071Y-12475214D01*
X17784500Y-12489500D01*
X17770214Y-12503786D01*
X18084500Y-12675214D02*
X18055928Y-12660929D01*
X18041643Y-12646643D01*
X18027357Y-12618071D01*
X18027357Y-12532357D01*
X18041643Y-12503786D01*
X18055928Y-12489500D01*
X18084500Y-12475214D01*
X18127357Y-12475214D01*
X18155928Y-12489500D01*
X18170214Y-12503786D01*
X18184500Y-12532357D01*
X18184500Y-12618071D01*
X18170214Y-12646643D01*
X18155928Y-12660929D01*
X18127357Y-12675214D01*
X18084500Y-12675214D01*
X18355928Y-12675214D02*
X18327357Y-12660929D01*
X18313071Y-12632357D01*
X18313071Y-12375214D01*
X18584500Y-12660929D02*
X18555929Y-12675214D01*
X18498786Y-12675214D01*
X18470214Y-12660929D01*
X18455929Y-12632357D01*
X18455929Y-12518071D01*
X18470214Y-12489500D01*
X18498786Y-12475214D01*
X18555929Y-12475214D01*
X18584500Y-12489500D01*
X18598786Y-12518071D01*
X18598786Y-12546643D01*
X18455929Y-12575214D01*
X18713071Y-12660929D02*
X18741643Y-12675214D01*
X18798786Y-12675214D01*
X18827357Y-12660929D01*
X18841643Y-12632357D01*
X18841643Y-12618071D01*
X18827357Y-12589500D01*
X18798786Y-12575214D01*
X18755929Y-12575214D01*
X18727357Y-12560929D01*
X18713071Y-12532357D01*
X18713071Y-12518071D01*
X18727357Y-12489500D01*
X18755929Y-12475214D01*
X18798786Y-12475214D01*
X18827357Y-12489500D01*
X18941643Y-12789500D02*
X18955929Y-12775214D01*
X18984500Y-12732357D01*
X18998786Y-12703786D01*
X19013071Y-12660929D01*
X19027357Y-12589500D01*
X19027357Y-12532357D01*
X19013071Y-12460929D01*
X18998786Y-12418071D01*
X18984500Y-12389500D01*
X18955929Y-12346643D01*
X18941643Y-12332357D01*
X12144500Y-12895500D02*
X12144500Y-12975500D01*
X12104500Y-12935500D02*
X12184500Y-12935500D01*
X12513071Y-12771214D02*
X12541643Y-12771214D01*
X12570214Y-12785500D01*
X12584500Y-12799786D01*
X12598786Y-12828357D01*
X12613071Y-12885500D01*
X12613071Y-12956929D01*
X12598786Y-13014071D01*
X12584500Y-13042643D01*
X12570214Y-13056929D01*
X12541643Y-13071214D01*
X12513071Y-13071214D01*
X12484500Y-13056929D01*
X12470214Y-13042643D01*
X12455928Y-13014071D01*
X12441643Y-12956929D01*
X12441643Y-12885500D01*
X12455928Y-12828357D01*
X12470214Y-12799786D01*
X12484500Y-12785500D01*
X12513071Y-12771214D01*
X12741643Y-13042643D02*
X12755928Y-13056929D01*
X12741643Y-13071214D01*
X12727357Y-13056929D01*
X12741643Y-13042643D01*
X12741643Y-13071214D01*
X12927357Y-12899786D02*
X12898786Y-12885500D01*
X12884500Y-12871214D01*
X12870214Y-12842643D01*
X12870214Y-12828357D01*
X12884500Y-12799786D01*
X12898786Y-12785500D01*
X12927357Y-12771214D01*
X12984500Y-12771214D01*
X13013071Y-12785500D01*
X13027357Y-12799786D01*
X13041643Y-12828357D01*
X13041643Y-12842643D01*
X13027357Y-12871214D01*
X13013071Y-12885500D01*
X12984500Y-12899786D01*
X12927357Y-12899786D01*
X12898786Y-12914071D01*
X12884500Y-12928357D01*
X12870214Y-12956929D01*
X12870214Y-13014071D01*
X12884500Y-13042643D01*
X12898786Y-13056929D01*
X12927357Y-13071214D01*
X12984500Y-13071214D01*
X13013071Y-13056929D01*
X13027357Y-13042643D01*
X13041643Y-13014071D01*
X13041643Y-12956929D01*
X13027357Y-12928357D01*
X13013071Y-12914071D01*
X12984500Y-12899786D01*
X13227357Y-12771214D02*
X13255928Y-12771214D01*
X13284500Y-12785500D01*
X13298786Y-12799786D01*
X13313071Y-12828357D01*
X13327357Y-12885500D01*
X13327357Y-12956929D01*
X13313071Y-13014071D01*
X13298786Y-13042643D01*
X13284500Y-13056929D01*
X13255928Y-13071214D01*
X13227357Y-13071214D01*
X13198786Y-13056929D01*
X13184500Y-13042643D01*
X13170214Y-13014071D01*
X13155928Y-12956929D01*
X13155928Y-12885500D01*
X13170214Y-12828357D01*
X13184500Y-12799786D01*
X13198786Y-12785500D01*
X13227357Y-12771214D01*
X13455928Y-13071214D02*
X13455928Y-12871214D01*
X13455928Y-12899786D02*
X13470214Y-12885500D01*
X13498786Y-12871214D01*
X13541643Y-12871214D01*
X13570214Y-12885500D01*
X13584500Y-12914071D01*
X13584500Y-13071214D01*
X13584500Y-12914071D02*
X13598786Y-12885500D01*
X13627357Y-12871214D01*
X13670214Y-12871214D01*
X13698786Y-12885500D01*
X13713071Y-12914071D01*
X13713071Y-13071214D01*
X13855928Y-13071214D02*
X13855928Y-12871214D01*
X13855928Y-12899786D02*
X13870214Y-12885500D01*
X13898786Y-12871214D01*
X13941643Y-12871214D01*
X13970214Y-12885500D01*
X13984500Y-12914071D01*
X13984500Y-13071214D01*
X13984500Y-12914071D02*
X13998786Y-12885500D01*
X14027357Y-12871214D01*
X14070214Y-12871214D01*
X14098786Y-12885500D01*
X14113071Y-12914071D01*
X14113071Y-13071214D01*
X14698786Y-12756929D02*
X14441643Y-13142643D01*
X15084500Y-12771214D02*
X15113071Y-12771214D01*
X15141643Y-12785500D01*
X15155928Y-12799786D01*
X15170214Y-12828357D01*
X15184500Y-12885500D01*
X15184500Y-12956929D01*
X15170214Y-13014071D01*
X15155928Y-13042643D01*
X15141643Y-13056929D01*
X15113071Y-13071214D01*
X15084500Y-13071214D01*
X15055928Y-13056929D01*
X15041643Y-13042643D01*
X15027357Y-13014071D01*
X15013071Y-12956929D01*
X15013071Y-12885500D01*
X15027357Y-12828357D01*
X15041643Y-12799786D01*
X15055928Y-12785500D01*
X15084500Y-12771214D01*
X15313071Y-13042643D02*
X15327357Y-13056929D01*
X15313071Y-13071214D01*
X15298786Y-13056929D01*
X15313071Y-13042643D01*
X15313071Y-13071214D01*
X15513071Y-12771214D02*
X15541643Y-12771214D01*
X15570214Y-12785500D01*
X15584500Y-12799786D01*
X15598785Y-12828357D01*
X15613071Y-12885500D01*
X15613071Y-12956929D01*
X15598785Y-13014071D01*
X15584500Y-13042643D01*
X15570214Y-13056929D01*
X15541643Y-13071214D01*
X15513071Y-13071214D01*
X15484500Y-13056929D01*
X15470214Y-13042643D01*
X15455928Y-13014071D01*
X15441643Y-12956929D01*
X15441643Y-12885500D01*
X15455928Y-12828357D01*
X15470214Y-12799786D01*
X15484500Y-12785500D01*
X15513071Y-12771214D01*
X15713071Y-12771214D02*
X15898785Y-12771214D01*
X15798785Y-12885500D01*
X15841643Y-12885500D01*
X15870214Y-12899786D01*
X15884500Y-12914071D01*
X15898785Y-12942643D01*
X15898785Y-13014071D01*
X15884500Y-13042643D01*
X15870214Y-13056929D01*
X15841643Y-13071214D01*
X15755928Y-13071214D01*
X15727357Y-13056929D01*
X15713071Y-13042643D01*
X16184500Y-13071214D02*
X16013071Y-13071214D01*
X16098785Y-13071214D02*
X16098785Y-12771214D01*
X16070214Y-12814071D01*
X16041643Y-12842643D01*
X16013071Y-12856929D01*
X16298786Y-12771214D02*
X16298786Y-12828357D01*
X16413071Y-12771214D02*
X16413071Y-12828357D01*
X16855928Y-13185500D02*
X16841643Y-13171214D01*
X16813071Y-13128357D01*
X16798786Y-13099786D01*
X16784500Y-13056929D01*
X16770214Y-12985500D01*
X16770214Y-12928357D01*
X16784500Y-12856929D01*
X16798786Y-12814071D01*
X16813071Y-12785500D01*
X16841643Y-12742643D01*
X16855928Y-12728357D01*
X16955928Y-12799786D02*
X16970214Y-12785500D01*
X16998786Y-12771214D01*
X17070214Y-12771214D01*
X17098786Y-12785500D01*
X17113071Y-12799786D01*
X17127357Y-12828357D01*
X17127357Y-12856929D01*
X17113071Y-12899786D01*
X16941643Y-13071214D01*
X17127357Y-13071214D01*
X17241643Y-12799786D02*
X17255928Y-12785500D01*
X17284500Y-12771214D01*
X17355928Y-12771214D01*
X17384500Y-12785500D01*
X17398786Y-12799786D01*
X17413071Y-12828357D01*
X17413071Y-12856929D01*
X17398786Y-12899786D01*
X17227357Y-13071214D01*
X17413071Y-13071214D01*
X17770214Y-13071214D02*
X17770214Y-12771214D01*
X17898786Y-13071214D02*
X17898786Y-12914071D01*
X17884500Y-12885500D01*
X17855928Y-12871214D01*
X17813071Y-12871214D01*
X17784500Y-12885500D01*
X17770214Y-12899786D01*
X18084500Y-13071214D02*
X18055928Y-13056929D01*
X18041643Y-13042643D01*
X18027357Y-13014071D01*
X18027357Y-12928357D01*
X18041643Y-12899786D01*
X18055928Y-12885500D01*
X18084500Y-12871214D01*
X18127357Y-12871214D01*
X18155928Y-12885500D01*
X18170214Y-12899786D01*
X18184500Y-12928357D01*
X18184500Y-13014071D01*
X18170214Y-13042643D01*
X18155928Y-13056929D01*
X18127357Y-13071214D01*
X18084500Y-13071214D01*
X18355928Y-13071214D02*
X18327357Y-13056929D01*
X18313071Y-13028357D01*
X18313071Y-12771214D01*
X18584500Y-13056929D02*
X18555929Y-13071214D01*
X18498786Y-13071214D01*
X18470214Y-13056929D01*
X18455929Y-13028357D01*
X18455929Y-12914071D01*
X18470214Y-12885500D01*
X18498786Y-12871214D01*
X18555929Y-12871214D01*
X18584500Y-12885500D01*
X18598786Y-12914071D01*
X18598786Y-12942643D01*
X18455929Y-12971214D01*
X18713071Y-13056929D02*
X18741643Y-13071214D01*
X18798786Y-13071214D01*
X18827357Y-13056929D01*
X18841643Y-13028357D01*
X18841643Y-13014071D01*
X18827357Y-12985500D01*
X18798786Y-12971214D01*
X18755929Y-12971214D01*
X18727357Y-12956929D01*
X18713071Y-12928357D01*
X18713071Y-12914071D01*
X18727357Y-12885500D01*
X18755929Y-12871214D01*
X18798786Y-12871214D01*
X18827357Y-12885500D01*
X18941643Y-13185500D02*
X18955929Y-13171214D01*
X18984500Y-13128357D01*
X18998786Y-13099786D01*
X19013071Y-13056929D01*
X19027357Y-12985500D01*
X19027357Y-12928357D01*
X19013071Y-12856929D01*
X18998786Y-12814071D01*
X18984500Y-12785500D01*
X18955929Y-12742643D01*
X18941643Y-12728357D01*
X12169621Y-13367421D02*
X12169621Y-13295579D01*
X12097778Y-13295579D01*
X12097778Y-13367421D01*
X12169621Y-13367421D01*
X12613071Y-13467214D02*
X12441643Y-13467214D01*
X12527357Y-13467214D02*
X12527357Y-13167214D01*
X12498786Y-13210071D01*
X12470214Y-13238643D01*
X12441643Y-13252929D01*
X12741643Y-13438643D02*
X12755928Y-13452929D01*
X12741643Y-13467214D01*
X12727357Y-13452929D01*
X12741643Y-13438643D01*
X12741643Y-13467214D01*
X12941643Y-13167214D02*
X12970214Y-13167214D01*
X12998786Y-13181500D01*
X13013071Y-13195786D01*
X13027357Y-13224357D01*
X13041643Y-13281500D01*
X13041643Y-13352929D01*
X13027357Y-13410071D01*
X13013071Y-13438643D01*
X12998786Y-13452929D01*
X12970214Y-13467214D01*
X12941643Y-13467214D01*
X12913071Y-13452929D01*
X12898786Y-13438643D01*
X12884500Y-13410071D01*
X12870214Y-13352929D01*
X12870214Y-13281500D01*
X12884500Y-13224357D01*
X12898786Y-13195786D01*
X12913071Y-13181500D01*
X12941643Y-13167214D01*
X13155928Y-13195786D02*
X13170214Y-13181500D01*
X13198786Y-13167214D01*
X13270214Y-13167214D01*
X13298786Y-13181500D01*
X13313071Y-13195786D01*
X13327357Y-13224357D01*
X13327357Y-13252929D01*
X13313071Y-13295786D01*
X13141643Y-13467214D01*
X13327357Y-13467214D01*
X13455928Y-13467214D02*
X13455928Y-13267214D01*
X13455928Y-13295786D02*
X13470214Y-13281500D01*
X13498786Y-13267214D01*
X13541643Y-13267214D01*
X13570214Y-13281500D01*
X13584500Y-13310071D01*
X13584500Y-13467214D01*
X13584500Y-13310071D02*
X13598786Y-13281500D01*
X13627357Y-13267214D01*
X13670214Y-13267214D01*
X13698786Y-13281500D01*
X13713071Y-13310071D01*
X13713071Y-13467214D01*
X13855928Y-13467214D02*
X13855928Y-13267214D01*
X13855928Y-13295786D02*
X13870214Y-13281500D01*
X13898786Y-13267214D01*
X13941643Y-13267214D01*
X13970214Y-13281500D01*
X13984500Y-13310071D01*
X13984500Y-13467214D01*
X13984500Y-13310071D02*
X13998786Y-13281500D01*
X14027357Y-13267214D01*
X14070214Y-13267214D01*
X14098786Y-13281500D01*
X14113071Y-13310071D01*
X14113071Y-13467214D01*
X14698786Y-13152929D02*
X14441643Y-13538643D01*
X15084500Y-13167214D02*
X15113071Y-13167214D01*
X15141643Y-13181500D01*
X15155928Y-13195786D01*
X15170214Y-13224357D01*
X15184500Y-13281500D01*
X15184500Y-13352929D01*
X15170214Y-13410071D01*
X15155928Y-13438643D01*
X15141643Y-13452929D01*
X15113071Y-13467214D01*
X15084500Y-13467214D01*
X15055928Y-13452929D01*
X15041643Y-13438643D01*
X15027357Y-13410071D01*
X15013071Y-13352929D01*
X15013071Y-13281500D01*
X15027357Y-13224357D01*
X15041643Y-13195786D01*
X15055928Y-13181500D01*
X15084500Y-13167214D01*
X15313071Y-13438643D02*
X15327357Y-13452929D01*
X15313071Y-13467214D01*
X15298786Y-13452929D01*
X15313071Y-13438643D01*
X15313071Y-13467214D01*
X15513071Y-13167214D02*
X15541643Y-13167214D01*
X15570214Y-13181500D01*
X15584500Y-13195786D01*
X15598785Y-13224357D01*
X15613071Y-13281500D01*
X15613071Y-13352929D01*
X15598785Y-13410071D01*
X15584500Y-13438643D01*
X15570214Y-13452929D01*
X15541643Y-13467214D01*
X15513071Y-13467214D01*
X15484500Y-13452929D01*
X15470214Y-13438643D01*
X15455928Y-13410071D01*
X15441643Y-13352929D01*
X15441643Y-13281500D01*
X15455928Y-13224357D01*
X15470214Y-13195786D01*
X15484500Y-13181500D01*
X15513071Y-13167214D01*
X15870214Y-13267214D02*
X15870214Y-13467214D01*
X15798785Y-13152929D02*
X15727357Y-13367214D01*
X15913071Y-13367214D01*
X16084500Y-13167214D02*
X16113071Y-13167214D01*
X16141643Y-13181500D01*
X16155928Y-13195786D01*
X16170214Y-13224357D01*
X16184500Y-13281500D01*
X16184500Y-13352929D01*
X16170214Y-13410071D01*
X16155928Y-13438643D01*
X16141643Y-13452929D01*
X16113071Y-13467214D01*
X16084500Y-13467214D01*
X16055928Y-13452929D01*
X16041643Y-13438643D01*
X16027357Y-13410071D01*
X16013071Y-13352929D01*
X16013071Y-13281500D01*
X16027357Y-13224357D01*
X16041643Y-13195786D01*
X16055928Y-13181500D01*
X16084500Y-13167214D01*
X16298786Y-13167214D02*
X16298786Y-13224357D01*
X16413071Y-13167214D02*
X16413071Y-13224357D01*
X16855928Y-13581500D02*
X16841643Y-13567214D01*
X16813071Y-13524357D01*
X16798786Y-13495786D01*
X16784500Y-13452929D01*
X16770214Y-13381500D01*
X16770214Y-13324357D01*
X16784500Y-13252929D01*
X16798786Y-13210071D01*
X16813071Y-13181500D01*
X16841643Y-13138643D01*
X16855928Y-13124357D01*
X16955928Y-13195786D02*
X16970214Y-13181500D01*
X16998786Y-13167214D01*
X17070214Y-13167214D01*
X17098786Y-13181500D01*
X17113071Y-13195786D01*
X17127357Y-13224357D01*
X17127357Y-13252929D01*
X17113071Y-13295786D01*
X16941643Y-13467214D01*
X17127357Y-13467214D01*
X17413071Y-13467214D02*
X17241643Y-13467214D01*
X17327357Y-13467214D02*
X17327357Y-13167214D01*
X17298786Y-13210071D01*
X17270214Y-13238643D01*
X17241643Y-13252929D01*
X17770214Y-13467214D02*
X17770214Y-13167214D01*
X17898786Y-13467214D02*
X17898786Y-13310071D01*
X17884500Y-13281500D01*
X17855928Y-13267214D01*
X17813071Y-13267214D01*
X17784500Y-13281500D01*
X17770214Y-13295786D01*
X18084500Y-13467214D02*
X18055928Y-13452929D01*
X18041643Y-13438643D01*
X18027357Y-13410071D01*
X18027357Y-13324357D01*
X18041643Y-13295786D01*
X18055928Y-13281500D01*
X18084500Y-13267214D01*
X18127357Y-13267214D01*
X18155928Y-13281500D01*
X18170214Y-13295786D01*
X18184500Y-13324357D01*
X18184500Y-13410071D01*
X18170214Y-13438643D01*
X18155928Y-13452929D01*
X18127357Y-13467214D01*
X18084500Y-13467214D01*
X18355928Y-13467214D02*
X18327357Y-13452929D01*
X18313071Y-13424357D01*
X18313071Y-13167214D01*
X18584500Y-13452929D02*
X18555929Y-13467214D01*
X18498786Y-13467214D01*
X18470214Y-13452929D01*
X18455929Y-13424357D01*
X18455929Y-13310071D01*
X18470214Y-13281500D01*
X18498786Y-13267214D01*
X18555929Y-13267214D01*
X18584500Y-13281500D01*
X18598786Y-13310071D01*
X18598786Y-13338643D01*
X18455929Y-13367214D01*
X18713071Y-13452929D02*
X18741643Y-13467214D01*
X18798786Y-13467214D01*
X18827357Y-13452929D01*
X18841643Y-13424357D01*
X18841643Y-13410071D01*
X18827357Y-13381500D01*
X18798786Y-13367214D01*
X18755929Y-13367214D01*
X18727357Y-13352929D01*
X18713071Y-13324357D01*
X18713071Y-13310071D01*
X18727357Y-13281500D01*
X18755929Y-13267214D01*
X18798786Y-13267214D01*
X18827357Y-13281500D01*
X18941643Y-13581500D02*
X18955929Y-13567214D01*
X18984500Y-13524357D01*
X18998786Y-13495786D01*
X19013071Y-13452929D01*
X19027357Y-13381500D01*
X19027357Y-13324357D01*
X19013071Y-13252929D01*
X18998786Y-13210071D01*
X18984500Y-13181500D01*
X18955929Y-13138643D01*
X18941643Y-13124357D01*
X12127350Y-13784650D02*
X12184500Y-13727500D01*
X12127350Y-13670350D01*
X12070200Y-13727500D01*
X12127350Y-13784650D01*
X12613071Y-13863214D02*
X12441643Y-13863214D01*
X12527357Y-13863214D02*
X12527357Y-13563214D01*
X12498786Y-13606071D01*
X12470214Y-13634643D01*
X12441643Y-13648929D01*
X12741643Y-13834643D02*
X12755928Y-13848929D01*
X12741643Y-13863214D01*
X12727357Y-13848929D01*
X12741643Y-13834643D01*
X12741643Y-13863214D01*
X13041643Y-13863214D02*
X12870214Y-13863214D01*
X12955928Y-13863214D02*
X12955928Y-13563214D01*
X12927357Y-13606071D01*
X12898786Y-13634643D01*
X12870214Y-13648929D01*
X13298786Y-13663214D02*
X13298786Y-13863214D01*
X13227357Y-13548929D02*
X13155928Y-13763214D01*
X13341643Y-13763214D01*
X13455928Y-13863214D02*
X13455928Y-13663214D01*
X13455928Y-13691786D02*
X13470214Y-13677500D01*
X13498786Y-13663214D01*
X13541643Y-13663214D01*
X13570214Y-13677500D01*
X13584500Y-13706071D01*
X13584500Y-13863214D01*
X13584500Y-13706071D02*
X13598786Y-13677500D01*
X13627357Y-13663214D01*
X13670214Y-13663214D01*
X13698786Y-13677500D01*
X13713071Y-13706071D01*
X13713071Y-13863214D01*
X13855928Y-13863214D02*
X13855928Y-13663214D01*
X13855928Y-13691786D02*
X13870214Y-13677500D01*
X13898786Y-13663214D01*
X13941643Y-13663214D01*
X13970214Y-13677500D01*
X13984500Y-13706071D01*
X13984500Y-13863214D01*
X13984500Y-13706071D02*
X13998786Y-13677500D01*
X14027357Y-13663214D01*
X14070214Y-13663214D01*
X14098786Y-13677500D01*
X14113071Y-13706071D01*
X14113071Y-13863214D01*
X14698786Y-13548929D02*
X14441643Y-13934643D01*
X15084500Y-13563214D02*
X15113071Y-13563214D01*
X15141643Y-13577500D01*
X15155928Y-13591786D01*
X15170214Y-13620357D01*
X15184500Y-13677500D01*
X15184500Y-13748929D01*
X15170214Y-13806071D01*
X15155928Y-13834643D01*
X15141643Y-13848929D01*
X15113071Y-13863214D01*
X15084500Y-13863214D01*
X15055928Y-13848929D01*
X15041643Y-13834643D01*
X15027357Y-13806071D01*
X15013071Y-13748929D01*
X15013071Y-13677500D01*
X15027357Y-13620357D01*
X15041643Y-13591786D01*
X15055928Y-13577500D01*
X15084500Y-13563214D01*
X15313071Y-13834643D02*
X15327357Y-13848929D01*
X15313071Y-13863214D01*
X15298786Y-13848929D01*
X15313071Y-13834643D01*
X15313071Y-13863214D01*
X15513071Y-13563214D02*
X15541643Y-13563214D01*
X15570214Y-13577500D01*
X15584500Y-13591786D01*
X15598785Y-13620357D01*
X15613071Y-13677500D01*
X15613071Y-13748929D01*
X15598785Y-13806071D01*
X15584500Y-13834643D01*
X15570214Y-13848929D01*
X15541643Y-13863214D01*
X15513071Y-13863214D01*
X15484500Y-13848929D01*
X15470214Y-13834643D01*
X15455928Y-13806071D01*
X15441643Y-13748929D01*
X15441643Y-13677500D01*
X15455928Y-13620357D01*
X15470214Y-13591786D01*
X15484500Y-13577500D01*
X15513071Y-13563214D01*
X15870214Y-13663214D02*
X15870214Y-13863214D01*
X15798785Y-13548929D02*
X15727357Y-13763214D01*
X15913071Y-13763214D01*
X16170214Y-13563214D02*
X16027357Y-13563214D01*
X16013071Y-13706071D01*
X16027357Y-13691786D01*
X16055928Y-13677500D01*
X16127357Y-13677500D01*
X16155928Y-13691786D01*
X16170214Y-13706071D01*
X16184500Y-13734643D01*
X16184500Y-13806071D01*
X16170214Y-13834643D01*
X16155928Y-13848929D01*
X16127357Y-13863214D01*
X16055928Y-13863214D01*
X16027357Y-13848929D01*
X16013071Y-13834643D01*
X16298786Y-13563214D02*
X16298786Y-13620357D01*
X16413071Y-13563214D02*
X16413071Y-13620357D01*
X16855928Y-13977500D02*
X16841643Y-13963214D01*
X16813071Y-13920357D01*
X16798786Y-13891786D01*
X16784500Y-13848929D01*
X16770214Y-13777500D01*
X16770214Y-13720357D01*
X16784500Y-13648929D01*
X16798786Y-13606071D01*
X16813071Y-13577500D01*
X16841643Y-13534643D01*
X16855928Y-13520357D01*
X17127357Y-13863214D02*
X16955928Y-13863214D01*
X17041643Y-13863214D02*
X17041643Y-13563214D01*
X17013071Y-13606071D01*
X16984500Y-13634643D01*
X16955928Y-13648929D01*
X17241643Y-13591786D02*
X17255928Y-13577500D01*
X17284500Y-13563214D01*
X17355928Y-13563214D01*
X17384500Y-13577500D01*
X17398786Y-13591786D01*
X17413071Y-13620357D01*
X17413071Y-13648929D01*
X17398786Y-13691786D01*
X17227357Y-13863214D01*
X17413071Y-13863214D01*
X17770214Y-13863214D02*
X17770214Y-13563214D01*
X17898786Y-13863214D02*
X17898786Y-13706071D01*
X17884500Y-13677500D01*
X17855928Y-13663214D01*
X17813071Y-13663214D01*
X17784500Y-13677500D01*
X17770214Y-13691786D01*
X18084500Y-13863214D02*
X18055928Y-13848929D01*
X18041643Y-13834643D01*
X18027357Y-13806071D01*
X18027357Y-13720357D01*
X18041643Y-13691786D01*
X18055928Y-13677500D01*
X18084500Y-13663214D01*
X18127357Y-13663214D01*
X18155928Y-13677500D01*
X18170214Y-13691786D01*
X18184500Y-13720357D01*
X18184500Y-13806071D01*
X18170214Y-13834643D01*
X18155928Y-13848929D01*
X18127357Y-13863214D01*
X18084500Y-13863214D01*
X18355928Y-13863214D02*
X18327357Y-13848929D01*
X18313071Y-13820357D01*
X18313071Y-13563214D01*
X18584500Y-13848929D02*
X18555929Y-13863214D01*
X18498786Y-13863214D01*
X18470214Y-13848929D01*
X18455929Y-13820357D01*
X18455929Y-13706071D01*
X18470214Y-13677500D01*
X18498786Y-13663214D01*
X18555929Y-13663214D01*
X18584500Y-13677500D01*
X18598786Y-13706071D01*
X18598786Y-13734643D01*
X18455929Y-13763214D01*
X18713071Y-13848929D02*
X18741643Y-13863214D01*
X18798786Y-13863214D01*
X18827357Y-13848929D01*
X18841643Y-13820357D01*
X18841643Y-13806071D01*
X18827357Y-13777500D01*
X18798786Y-13763214D01*
X18755929Y-13763214D01*
X18727357Y-13748929D01*
X18713071Y-13720357D01*
X18713071Y-13706071D01*
X18727357Y-13677500D01*
X18755929Y-13663214D01*
X18798786Y-13663214D01*
X18827357Y-13677500D01*
X18941643Y-13977500D02*
X18955929Y-13963214D01*
X18984500Y-13920357D01*
X18998786Y-13891786D01*
X19013071Y-13848929D01*
X19027357Y-13777500D01*
X19027357Y-13720357D01*
X19013071Y-13648929D01*
X18998786Y-13606071D01*
X18984500Y-13577500D01*
X18955929Y-13534643D01*
X18941643Y-13520357D01*
M02*
