G04 #@! TF.FileFunction,Copper,L2,Bot,Signal*
%FSLAX46Y46*%
G04 Gerber Fmt 4.6, Leading zero omitted, Abs format (unit mm)*
G04 Created by KiCad (PCBNEW 4.0.5) date 02/10/17 18:58:16*
%MOMM*%
%LPD*%
G01*
G04 APERTURE LIST*
%ADD10C,0.100000*%
%ADD11R,1.600000X1.600000*%
%ADD12C,1.600000*%
%ADD13R,1.100000X2.500000*%
%ADD14O,1.100000X2.500000*%
%ADD15O,2.032000X2.540000*%
%ADD16R,1.700000X1.700000*%
%ADD17O,1.700000X1.700000*%
%ADD18C,1.400000*%
%ADD19O,1.400000X1.400000*%
%ADD20R,2.032000X1.727200*%
%ADD21O,2.032000X1.727200*%
%ADD22R,1.727200X2.032000*%
%ADD23O,1.727200X2.032000*%
%ADD24R,2.032000X2.032000*%
%ADD25O,2.032000X2.032000*%
%ADD26O,1.600000X1.600000*%
%ADD27C,0.600000*%
%ADD28C,0.250000*%
%ADD29C,0.500000*%
%ADD30C,0.254000*%
G04 APERTURE END LIST*
D10*
D11*
X110490000Y-109220000D03*
D12*
X112990000Y-109220000D03*
D13*
X123190000Y-81850000D03*
D14*
X121190000Y-81850000D03*
X119190000Y-81850000D03*
X117190000Y-81850000D03*
X115190000Y-81850000D03*
X113190000Y-81850000D03*
X111190000Y-81850000D03*
X109190000Y-81850000D03*
X109190000Y-97250000D03*
X111190000Y-97150000D03*
X113190000Y-97250000D03*
X115190000Y-97250000D03*
X117190000Y-97250000D03*
X119190000Y-97250000D03*
X121190000Y-97250000D03*
X123190000Y-97250000D03*
D15*
X99060000Y-69850000D03*
X96520000Y-69850000D03*
X101600000Y-69850000D03*
X84074000Y-84074000D03*
X81534000Y-84074000D03*
X86614000Y-84074000D03*
X115062000Y-69850000D03*
X112522000Y-69850000D03*
X117602000Y-69850000D03*
D16*
X91440000Y-96520000D03*
D17*
X91440000Y-93980000D03*
X91440000Y-91440000D03*
X91440000Y-88900000D03*
D18*
X122682000Y-69850000D03*
D19*
X122682000Y-71750000D03*
D18*
X106426000Y-69850000D03*
D19*
X106426000Y-71750000D03*
D18*
X91440000Y-69850000D03*
D19*
X91440000Y-71750000D03*
D18*
X91694000Y-84074000D03*
D19*
X91694000Y-85974000D03*
D20*
X123190000Y-101600000D03*
D21*
X123190000Y-104140000D03*
X123190000Y-106680000D03*
X123190000Y-109220000D03*
D22*
X87376000Y-77724000D03*
D23*
X84836000Y-77724000D03*
X82296000Y-77724000D03*
X79756000Y-77724000D03*
D24*
X82296000Y-91186000D03*
D25*
X79756000Y-91186000D03*
D18*
X118110000Y-102870000D03*
D19*
X118110000Y-100970000D03*
D18*
X120650000Y-78232000D03*
D19*
X122550000Y-78232000D03*
D15*
X84074000Y-69850000D03*
X81534000Y-69850000D03*
X86614000Y-69850000D03*
D11*
X101854000Y-101600000D03*
D26*
X94234000Y-78740000D03*
X101854000Y-99060000D03*
X94234000Y-81280000D03*
X101854000Y-96520000D03*
X94234000Y-83820000D03*
X101854000Y-93980000D03*
X94234000Y-86360000D03*
X101854000Y-91440000D03*
X94234000Y-88900000D03*
X101854000Y-88900000D03*
X94234000Y-91440000D03*
X101854000Y-86360000D03*
X94234000Y-93980000D03*
X101854000Y-83820000D03*
X94234000Y-96520000D03*
X101854000Y-81280000D03*
X94234000Y-99060000D03*
X101854000Y-78740000D03*
X94234000Y-101600000D03*
D24*
X96774000Y-109220000D03*
D25*
X94234000Y-109220000D03*
D24*
X116840000Y-109220000D03*
D25*
X119380000Y-109220000D03*
D22*
X101854000Y-109220000D03*
D23*
X104394000Y-109220000D03*
X106934000Y-109220000D03*
D18*
X114300000Y-102870000D03*
D19*
X114300000Y-100970000D03*
D15*
X84328000Y-109220000D03*
X86868000Y-109220000D03*
X81788000Y-109220000D03*
D11*
X79756000Y-101600000D03*
D12*
X82256000Y-101600000D03*
D11*
X88138000Y-101600000D03*
D12*
X85638000Y-101600000D03*
D27*
X105410000Y-93980000D03*
D28*
X80010000Y-109220000D02*
X80010000Y-109220000D01*
X111190000Y-96550000D02*
X111190000Y-99760000D01*
X111190000Y-99760000D02*
X111760000Y-100330000D01*
D29*
X82804000Y-78232000D02*
X82804000Y-78486000D01*
D28*
X94234000Y-81280000D02*
X92964000Y-80010000D01*
X92964000Y-70866000D02*
X91948000Y-69850000D01*
X92964000Y-80010000D02*
X92964000Y-70866000D01*
X91948000Y-69850000D02*
X91440000Y-69850000D01*
X94234000Y-83820000D02*
X95758000Y-83820000D01*
X101600000Y-72644000D02*
X101600000Y-69850000D01*
X97282000Y-76962000D02*
X101600000Y-72644000D01*
X97282000Y-82296000D02*
X97282000Y-76962000D01*
X95758000Y-83820000D02*
X97282000Y-82296000D01*
X94234000Y-86360000D02*
X96266000Y-86360000D01*
X117602000Y-73406000D02*
X117602000Y-69850000D01*
X117094000Y-73914000D02*
X117602000Y-73406000D01*
X102870000Y-73914000D02*
X117094000Y-73914000D01*
X99314000Y-77470000D02*
X102870000Y-73914000D01*
X99314000Y-83312000D02*
X99314000Y-77470000D01*
X96266000Y-86360000D02*
X99314000Y-83312000D01*
X105410000Y-93980000D02*
X105410000Y-86360000D01*
X105410000Y-86360000D02*
X109190000Y-82580000D01*
X109190000Y-82580000D02*
X109190000Y-82550000D01*
X109220000Y-82520000D02*
X109190000Y-82550000D01*
X120620000Y-78262000D02*
X120650000Y-78232000D01*
X101854000Y-81280000D02*
X103378000Y-81280000D01*
X117190000Y-79344000D02*
X117190000Y-82550000D01*
X115316000Y-77470000D02*
X117190000Y-79344000D01*
X107188000Y-77470000D02*
X115316000Y-77470000D01*
X103378000Y-81280000D02*
X107188000Y-77470000D01*
X101854000Y-83820000D02*
X101854000Y-83566000D01*
X101854000Y-83566000D02*
X107442000Y-77978000D01*
X107442000Y-77978000D02*
X112014000Y-77978000D01*
X112014000Y-77978000D02*
X115190000Y-81154000D01*
X115190000Y-81154000D02*
X115190000Y-82550000D01*
X115190000Y-82550000D02*
X115190000Y-80900000D01*
X113190000Y-82550000D02*
X113190000Y-80424000D01*
X103124000Y-84836000D02*
X101854000Y-86360000D01*
X103124000Y-83058000D02*
X103124000Y-84836000D01*
X107442000Y-78740000D02*
X103124000Y-83058000D01*
X111506000Y-78740000D02*
X107442000Y-78740000D01*
X113190000Y-80424000D02*
X111506000Y-78740000D01*
X113190000Y-82550000D02*
X113190000Y-81440000D01*
X111190000Y-82550000D02*
X111190000Y-80202000D01*
X103886000Y-86614000D02*
X101854000Y-88900000D01*
X103886000Y-83058000D02*
X103886000Y-86614000D01*
X107696000Y-79248000D02*
X103886000Y-83058000D01*
X110236000Y-79248000D02*
X107696000Y-79248000D01*
X111190000Y-80202000D02*
X110236000Y-79248000D01*
X117190000Y-96550000D02*
X116870000Y-96550000D01*
X116870000Y-96550000D02*
X115570000Y-95250000D01*
X115570000Y-95250000D02*
X107950000Y-95250000D01*
X107950000Y-95250000D02*
X104140000Y-99060000D01*
X104140000Y-99060000D02*
X101854000Y-99060000D01*
X119190000Y-96550000D02*
X119190000Y-96330000D01*
X119190000Y-96330000D02*
X116840000Y-93980000D01*
X116840000Y-93980000D02*
X106680000Y-93980000D01*
X106680000Y-93980000D02*
X104140000Y-96520000D01*
X104140000Y-96520000D02*
X101854000Y-96520000D01*
X118110000Y-100970000D02*
X118750000Y-100970000D01*
X118750000Y-100970000D02*
X119380000Y-101600000D01*
X119380000Y-101600000D02*
X119380000Y-109220000D01*
D30*
G36*
X125020000Y-79883000D02*
X117950000Y-79883000D01*
X117950000Y-79344000D01*
X117892148Y-79053161D01*
X117892148Y-79053160D01*
X117727401Y-78806599D01*
X117417185Y-78496383D01*
X119314769Y-78496383D01*
X119517582Y-78987229D01*
X119892796Y-79363098D01*
X120383287Y-79566768D01*
X120914383Y-79567231D01*
X121405229Y-79364418D01*
X121588322Y-79181644D01*
X122012964Y-79465379D01*
X122523846Y-79567000D01*
X122576154Y-79567000D01*
X123087036Y-79465379D01*
X123520142Y-79175988D01*
X123809533Y-78742882D01*
X123911154Y-78232000D01*
X123809533Y-77721118D01*
X123520142Y-77288012D01*
X123087036Y-76998621D01*
X122576154Y-76897000D01*
X122523846Y-76897000D01*
X122012964Y-76998621D01*
X121588334Y-77282348D01*
X121407204Y-77100902D01*
X120916713Y-76897232D01*
X120385617Y-76896769D01*
X119894771Y-77099582D01*
X119518902Y-77474796D01*
X119315232Y-77965287D01*
X119314769Y-78496383D01*
X117417185Y-78496383D01*
X115853401Y-76932599D01*
X115606839Y-76767852D01*
X115316000Y-76710000D01*
X107188000Y-76710000D01*
X106897161Y-76767852D01*
X106650599Y-76932599D01*
X103065474Y-80517724D01*
X102896811Y-80265302D01*
X102514725Y-80010000D01*
X102896811Y-79754698D01*
X103207880Y-79289151D01*
X103317113Y-78740000D01*
X103207880Y-78190849D01*
X102896811Y-77725302D01*
X102431264Y-77414233D01*
X101882113Y-77305000D01*
X101825887Y-77305000D01*
X101276736Y-77414233D01*
X100811189Y-77725302D01*
X100500120Y-78190849D01*
X100390887Y-78740000D01*
X100500120Y-79289151D01*
X100811189Y-79754698D01*
X101193275Y-80010000D01*
X100811189Y-80265302D01*
X100500120Y-80730849D01*
X100390887Y-81280000D01*
X100500120Y-81829151D01*
X100811189Y-82294698D01*
X101193275Y-82550000D01*
X100811189Y-82805302D01*
X100500120Y-83270849D01*
X100390887Y-83820000D01*
X100500120Y-84369151D01*
X100811189Y-84834698D01*
X101193275Y-85090000D01*
X100811189Y-85345302D01*
X100500120Y-85810849D01*
X100390887Y-86360000D01*
X100500120Y-86909151D01*
X100811189Y-87374698D01*
X101193275Y-87630000D01*
X100811189Y-87885302D01*
X100500120Y-88350849D01*
X100390887Y-88900000D01*
X100500120Y-89449151D01*
X100811189Y-89914698D01*
X101193275Y-90170000D01*
X100811189Y-90425302D01*
X100500120Y-90890849D01*
X100390887Y-91440000D01*
X100500120Y-91989151D01*
X100811189Y-92454698D01*
X101193275Y-92710000D01*
X100811189Y-92965302D01*
X100500120Y-93430849D01*
X100390887Y-93980000D01*
X100500120Y-94529151D01*
X100811189Y-94994698D01*
X101193275Y-95250000D01*
X100811189Y-95505302D01*
X100500120Y-95970849D01*
X100390887Y-96520000D01*
X100500120Y-97069151D01*
X100811189Y-97534698D01*
X101193275Y-97790000D01*
X100811189Y-98045302D01*
X100500120Y-98510849D01*
X100390887Y-99060000D01*
X100500120Y-99609151D01*
X100811189Y-100074698D01*
X100955465Y-100171101D01*
X100818683Y-100196838D01*
X100602559Y-100335910D01*
X100457569Y-100548110D01*
X100406560Y-100800000D01*
X100406560Y-102400000D01*
X100450838Y-102635317D01*
X100589910Y-102851441D01*
X100802110Y-102996431D01*
X101054000Y-103047440D01*
X102654000Y-103047440D01*
X102889317Y-103003162D01*
X103105441Y-102864090D01*
X103250431Y-102651890D01*
X103301440Y-102400000D01*
X103301440Y-100800000D01*
X103257162Y-100564683D01*
X103118090Y-100348559D01*
X102905890Y-100203569D01*
X102750911Y-100172185D01*
X102896811Y-100074698D01*
X103066995Y-99820000D01*
X104140000Y-99820000D01*
X104430839Y-99762148D01*
X104677401Y-99597401D01*
X108065405Y-96209397D01*
X108005000Y-96513071D01*
X108005000Y-97986929D01*
X108095203Y-98440409D01*
X108352078Y-98824851D01*
X108736520Y-99081726D01*
X109190000Y-99171929D01*
X109643480Y-99081726D01*
X110027922Y-98824851D01*
X110229405Y-98523309D01*
X110441882Y-98777724D01*
X110853854Y-98993398D01*
X110880256Y-98993803D01*
X111063000Y-98868361D01*
X111063000Y-97277000D01*
X111043000Y-97277000D01*
X111043000Y-97023000D01*
X111063000Y-97023000D01*
X111063000Y-97003000D01*
X111317000Y-97003000D01*
X111317000Y-97023000D01*
X111337000Y-97023000D01*
X111337000Y-97277000D01*
X111317000Y-97277000D01*
X111317000Y-98868361D01*
X111499744Y-98993803D01*
X111526146Y-98993398D01*
X111938118Y-98777724D01*
X112150595Y-98523309D01*
X112352078Y-98824851D01*
X112736520Y-99081726D01*
X113190000Y-99171929D01*
X113643480Y-99081726D01*
X114027922Y-98824851D01*
X114190000Y-98582283D01*
X114352078Y-98824851D01*
X114736520Y-99081726D01*
X115190000Y-99171929D01*
X115643480Y-99081726D01*
X116027922Y-98824851D01*
X116190000Y-98582283D01*
X116352078Y-98824851D01*
X116736520Y-99081726D01*
X117190000Y-99171929D01*
X117643480Y-99081726D01*
X118027922Y-98824851D01*
X118190000Y-98582283D01*
X118352078Y-98824851D01*
X118736520Y-99081726D01*
X119190000Y-99171929D01*
X119643480Y-99081726D01*
X120027922Y-98824851D01*
X120190000Y-98582283D01*
X120352078Y-98824851D01*
X120736520Y-99081726D01*
X121190000Y-99171929D01*
X121643480Y-99081726D01*
X122027922Y-98824851D01*
X122190000Y-98582283D01*
X122352078Y-98824851D01*
X122736520Y-99081726D01*
X123190000Y-99171929D01*
X123643480Y-99081726D01*
X124027922Y-98824851D01*
X124284797Y-98440409D01*
X124375000Y-97986929D01*
X124375000Y-96513071D01*
X124284797Y-96059591D01*
X124168139Y-95885000D01*
X125020000Y-95885000D01*
X125020000Y-113590000D01*
X78180000Y-113590000D01*
X78180000Y-109220000D01*
X79250000Y-109220000D01*
X79307852Y-109510839D01*
X79472599Y-109757401D01*
X79719161Y-109922148D01*
X80010000Y-109980000D01*
X80221844Y-109937861D01*
X80262675Y-110143131D01*
X80620567Y-110678754D01*
X81156190Y-111036646D01*
X81788000Y-111162321D01*
X82419810Y-111036646D01*
X82955433Y-110678754D01*
X83072054Y-110504219D01*
X83250370Y-110731236D01*
X83813523Y-111047926D01*
X83945056Y-111079975D01*
X84201000Y-110960836D01*
X84201000Y-109347000D01*
X84181000Y-109347000D01*
X84181000Y-109093000D01*
X84201000Y-109093000D01*
X84201000Y-107479164D01*
X84455000Y-107479164D01*
X84455000Y-109093000D01*
X84475000Y-109093000D01*
X84475000Y-109347000D01*
X84455000Y-109347000D01*
X84455000Y-110960836D01*
X84710944Y-111079975D01*
X84842477Y-111047926D01*
X85405630Y-110731236D01*
X85583946Y-110504219D01*
X85700567Y-110678754D01*
X86236190Y-111036646D01*
X86868000Y-111162321D01*
X87499810Y-111036646D01*
X88035433Y-110678754D01*
X88393325Y-110143131D01*
X88519000Y-109511321D01*
X88519000Y-109220000D01*
X92550655Y-109220000D01*
X92676330Y-109851810D01*
X93034222Y-110387433D01*
X93569845Y-110745325D01*
X94201655Y-110871000D01*
X94266345Y-110871000D01*
X94898155Y-110745325D01*
X95198519Y-110544628D01*
X95219673Y-110595699D01*
X95398302Y-110774327D01*
X95631691Y-110871000D01*
X96488250Y-110871000D01*
X96647000Y-110712250D01*
X96647000Y-109347000D01*
X96901000Y-109347000D01*
X96901000Y-110712250D01*
X97059750Y-110871000D01*
X97916309Y-110871000D01*
X98149698Y-110774327D01*
X98328327Y-110595699D01*
X98425000Y-110362310D01*
X98425000Y-109505750D01*
X98266250Y-109347000D01*
X96901000Y-109347000D01*
X96647000Y-109347000D01*
X96627000Y-109347000D01*
X96627000Y-109093000D01*
X96647000Y-109093000D01*
X96647000Y-107727750D01*
X96901000Y-107727750D01*
X96901000Y-109093000D01*
X98266250Y-109093000D01*
X98425000Y-108934250D01*
X98425000Y-108204000D01*
X100342960Y-108204000D01*
X100342960Y-110236000D01*
X100387238Y-110471317D01*
X100526310Y-110687441D01*
X100738510Y-110832431D01*
X100990400Y-110883440D01*
X102717600Y-110883440D01*
X102952917Y-110839162D01*
X103169041Y-110700090D01*
X103314031Y-110487890D01*
X103333232Y-110393073D01*
X103491964Y-110570732D01*
X104019209Y-110824709D01*
X104034974Y-110827358D01*
X104267000Y-110706217D01*
X104267000Y-109347000D01*
X104247000Y-109347000D01*
X104247000Y-109093000D01*
X104267000Y-109093000D01*
X104267000Y-107733783D01*
X104521000Y-107733783D01*
X104521000Y-109093000D01*
X104541000Y-109093000D01*
X104541000Y-109347000D01*
X104521000Y-109347000D01*
X104521000Y-110706217D01*
X104753026Y-110827358D01*
X104768791Y-110824709D01*
X105296036Y-110570732D01*
X105667539Y-110154931D01*
X105874330Y-110464415D01*
X106360511Y-110789271D01*
X106934000Y-110903345D01*
X107507489Y-110789271D01*
X107993670Y-110464415D01*
X108318526Y-109978234D01*
X108432600Y-109404745D01*
X108432600Y-109035255D01*
X108318526Y-108461766D01*
X108290619Y-108420000D01*
X109042560Y-108420000D01*
X109042560Y-110020000D01*
X109086838Y-110255317D01*
X109225910Y-110471441D01*
X109438110Y-110616431D01*
X109690000Y-110667440D01*
X111290000Y-110667440D01*
X111525317Y-110623162D01*
X111741441Y-110484090D01*
X111886431Y-110271890D01*
X111895370Y-110227745D01*
X112161861Y-110227745D01*
X112235995Y-110473864D01*
X112773223Y-110666965D01*
X113343454Y-110639778D01*
X113744005Y-110473864D01*
X113818139Y-110227745D01*
X112990000Y-109399605D01*
X112161861Y-110227745D01*
X111895370Y-110227745D01*
X111934646Y-110033799D01*
X111982255Y-110048139D01*
X112810395Y-109220000D01*
X113169605Y-109220000D01*
X113997745Y-110048139D01*
X114243864Y-109974005D01*
X114412173Y-109505750D01*
X115189000Y-109505750D01*
X115189000Y-110362310D01*
X115285673Y-110595699D01*
X115464302Y-110774327D01*
X115697691Y-110871000D01*
X116554250Y-110871000D01*
X116713000Y-110712250D01*
X116713000Y-109347000D01*
X115347750Y-109347000D01*
X115189000Y-109505750D01*
X114412173Y-109505750D01*
X114436965Y-109436777D01*
X114409778Y-108866546D01*
X114243864Y-108465995D01*
X113997745Y-108391861D01*
X113169605Y-109220000D01*
X112810395Y-109220000D01*
X111982255Y-108391861D01*
X111934833Y-108406145D01*
X111898351Y-108212255D01*
X112161861Y-108212255D01*
X112990000Y-109040395D01*
X113818139Y-108212255D01*
X113777607Y-108077690D01*
X115189000Y-108077690D01*
X115189000Y-108934250D01*
X115347750Y-109093000D01*
X116713000Y-109093000D01*
X116713000Y-107727750D01*
X116554250Y-107569000D01*
X115697691Y-107569000D01*
X115464302Y-107665673D01*
X115285673Y-107844301D01*
X115189000Y-108077690D01*
X113777607Y-108077690D01*
X113744005Y-107966136D01*
X113206777Y-107773035D01*
X112636546Y-107800222D01*
X112235995Y-107966136D01*
X112161861Y-108212255D01*
X111898351Y-108212255D01*
X111893162Y-108184683D01*
X111754090Y-107968559D01*
X111541890Y-107823569D01*
X111290000Y-107772560D01*
X109690000Y-107772560D01*
X109454683Y-107816838D01*
X109238559Y-107955910D01*
X109093569Y-108168110D01*
X109042560Y-108420000D01*
X108290619Y-108420000D01*
X107993670Y-107975585D01*
X107507489Y-107650729D01*
X106934000Y-107536655D01*
X106360511Y-107650729D01*
X105874330Y-107975585D01*
X105667539Y-108285069D01*
X105296036Y-107869268D01*
X104768791Y-107615291D01*
X104753026Y-107612642D01*
X104521000Y-107733783D01*
X104267000Y-107733783D01*
X104034974Y-107612642D01*
X104019209Y-107615291D01*
X103491964Y-107869268D01*
X103335093Y-108044845D01*
X103320762Y-107968683D01*
X103181690Y-107752559D01*
X102969490Y-107607569D01*
X102717600Y-107556560D01*
X100990400Y-107556560D01*
X100755083Y-107600838D01*
X100538959Y-107739910D01*
X100393969Y-107952110D01*
X100342960Y-108204000D01*
X98425000Y-108204000D01*
X98425000Y-108077690D01*
X98328327Y-107844301D01*
X98149698Y-107665673D01*
X97916309Y-107569000D01*
X97059750Y-107569000D01*
X96901000Y-107727750D01*
X96647000Y-107727750D01*
X96488250Y-107569000D01*
X95631691Y-107569000D01*
X95398302Y-107665673D01*
X95219673Y-107844301D01*
X95198519Y-107895372D01*
X94898155Y-107694675D01*
X94266345Y-107569000D01*
X94201655Y-107569000D01*
X93569845Y-107694675D01*
X93034222Y-108052567D01*
X92676330Y-108588190D01*
X92550655Y-109220000D01*
X88519000Y-109220000D01*
X88519000Y-108928679D01*
X88393325Y-108296869D01*
X88035433Y-107761246D01*
X87499810Y-107403354D01*
X86868000Y-107277679D01*
X86236190Y-107403354D01*
X85700567Y-107761246D01*
X85583946Y-107935781D01*
X85405630Y-107708764D01*
X84842477Y-107392074D01*
X84710944Y-107360025D01*
X84455000Y-107479164D01*
X84201000Y-107479164D01*
X83945056Y-107360025D01*
X83813523Y-107392074D01*
X83250370Y-107708764D01*
X83072054Y-107935781D01*
X82955433Y-107761246D01*
X82419810Y-107403354D01*
X81788000Y-107277679D01*
X81156190Y-107403354D01*
X80620567Y-107761246D01*
X80262675Y-108296869D01*
X80221844Y-108502139D01*
X80010000Y-108460000D01*
X79719161Y-108517852D01*
X79472599Y-108682599D01*
X79307852Y-108929161D01*
X79250000Y-109220000D01*
X78180000Y-109220000D01*
X78180000Y-103134383D01*
X112964769Y-103134383D01*
X113167582Y-103625229D01*
X113542796Y-104001098D01*
X114033287Y-104204768D01*
X114564383Y-104205231D01*
X115055229Y-104002418D01*
X115431098Y-103627204D01*
X115634768Y-103136713D01*
X115634770Y-103134383D01*
X116774769Y-103134383D01*
X116977582Y-103625229D01*
X117352796Y-104001098D01*
X117843287Y-104204768D01*
X118374383Y-104205231D01*
X118620000Y-104103744D01*
X118620000Y-107758717D01*
X118415481Y-107895372D01*
X118394327Y-107844301D01*
X118215698Y-107665673D01*
X117982309Y-107569000D01*
X117125750Y-107569000D01*
X116967000Y-107727750D01*
X116967000Y-109093000D01*
X116987000Y-109093000D01*
X116987000Y-109347000D01*
X116967000Y-109347000D01*
X116967000Y-110712250D01*
X117125750Y-110871000D01*
X117982309Y-110871000D01*
X118215698Y-110774327D01*
X118394327Y-110595699D01*
X118415481Y-110544628D01*
X118715845Y-110745325D01*
X119347655Y-110871000D01*
X119412345Y-110871000D01*
X120044155Y-110745325D01*
X120579778Y-110387433D01*
X120937670Y-109851810D01*
X121063345Y-109220000D01*
X121506655Y-109220000D01*
X121620729Y-109793489D01*
X121945585Y-110279670D01*
X122431766Y-110604526D01*
X123005255Y-110718600D01*
X123374745Y-110718600D01*
X123948234Y-110604526D01*
X124434415Y-110279670D01*
X124759271Y-109793489D01*
X124873345Y-109220000D01*
X124759271Y-108646511D01*
X124434415Y-108160330D01*
X124124931Y-107953539D01*
X124540732Y-107582036D01*
X124794709Y-107054791D01*
X124797358Y-107039026D01*
X124676217Y-106807000D01*
X123317000Y-106807000D01*
X123317000Y-106827000D01*
X123063000Y-106827000D01*
X123063000Y-106807000D01*
X121703783Y-106807000D01*
X121582642Y-107039026D01*
X121585291Y-107054791D01*
X121839268Y-107582036D01*
X122255069Y-107953539D01*
X121945585Y-108160330D01*
X121620729Y-108646511D01*
X121506655Y-109220000D01*
X121063345Y-109220000D01*
X120937670Y-108588190D01*
X120579778Y-108052567D01*
X120140000Y-107758717D01*
X120140000Y-104140000D01*
X121506655Y-104140000D01*
X121620729Y-104713489D01*
X121945585Y-105199670D01*
X122255069Y-105406461D01*
X121839268Y-105777964D01*
X121585291Y-106305209D01*
X121582642Y-106320974D01*
X121703783Y-106553000D01*
X123063000Y-106553000D01*
X123063000Y-106533000D01*
X123317000Y-106533000D01*
X123317000Y-106553000D01*
X124676217Y-106553000D01*
X124797358Y-106320974D01*
X124794709Y-106305209D01*
X124540732Y-105777964D01*
X124124931Y-105406461D01*
X124434415Y-105199670D01*
X124759271Y-104713489D01*
X124873345Y-104140000D01*
X124759271Y-103566511D01*
X124434415Y-103080330D01*
X124420087Y-103070757D01*
X124441317Y-103066762D01*
X124657441Y-102927690D01*
X124802431Y-102715490D01*
X124853440Y-102463600D01*
X124853440Y-100736400D01*
X124809162Y-100501083D01*
X124670090Y-100284959D01*
X124457890Y-100139969D01*
X124206000Y-100088960D01*
X122174000Y-100088960D01*
X121938683Y-100133238D01*
X121722559Y-100272310D01*
X121577569Y-100484510D01*
X121526560Y-100736400D01*
X121526560Y-102463600D01*
X121570838Y-102698917D01*
X121709910Y-102915041D01*
X121922110Y-103060031D01*
X121963439Y-103068400D01*
X121945585Y-103080330D01*
X121620729Y-103566511D01*
X121506655Y-104140000D01*
X120140000Y-104140000D01*
X120140000Y-101600000D01*
X120082148Y-101309161D01*
X119917401Y-101062599D01*
X119357188Y-100502386D01*
X119343379Y-100432964D01*
X119053988Y-99999858D01*
X118620882Y-99710467D01*
X118110000Y-99608846D01*
X117599118Y-99710467D01*
X117166012Y-99999858D01*
X116876621Y-100432964D01*
X116775000Y-100943846D01*
X116775000Y-100996154D01*
X116876621Y-101507036D01*
X117160348Y-101931666D01*
X116978902Y-102112796D01*
X116775232Y-102603287D01*
X116774769Y-103134383D01*
X115634770Y-103134383D01*
X115635231Y-102605617D01*
X115432418Y-102114771D01*
X115249644Y-101931678D01*
X115533379Y-101507036D01*
X115635000Y-100996154D01*
X115635000Y-100943846D01*
X115533379Y-100432964D01*
X115243988Y-99999858D01*
X114810882Y-99710467D01*
X114300000Y-99608846D01*
X113789118Y-99710467D01*
X113356012Y-99999858D01*
X113066621Y-100432964D01*
X112965000Y-100943846D01*
X112965000Y-100996154D01*
X113066621Y-101507036D01*
X113350348Y-101931666D01*
X113168902Y-102112796D01*
X112965232Y-102603287D01*
X112964769Y-103134383D01*
X78180000Y-103134383D01*
X78180000Y-100800000D01*
X78308560Y-100800000D01*
X78308560Y-102400000D01*
X78352838Y-102635317D01*
X78491910Y-102851441D01*
X78704110Y-102996431D01*
X78956000Y-103047440D01*
X80556000Y-103047440D01*
X80791317Y-103003162D01*
X81007441Y-102864090D01*
X81152431Y-102651890D01*
X81173680Y-102546959D01*
X81442077Y-102815824D01*
X81969309Y-103034750D01*
X82540187Y-103035248D01*
X83067800Y-102817243D01*
X83471824Y-102413923D01*
X83690750Y-101886691D01*
X83690752Y-101884187D01*
X84202752Y-101884187D01*
X84420757Y-102411800D01*
X84824077Y-102815824D01*
X85351309Y-103034750D01*
X85922187Y-103035248D01*
X86449800Y-102817243D01*
X86718583Y-102548928D01*
X86734838Y-102635317D01*
X86873910Y-102851441D01*
X87086110Y-102996431D01*
X87338000Y-103047440D01*
X88938000Y-103047440D01*
X89173317Y-103003162D01*
X89389441Y-102864090D01*
X89534431Y-102651890D01*
X89585440Y-102400000D01*
X89585440Y-101600000D01*
X92770887Y-101600000D01*
X92880120Y-102149151D01*
X93191189Y-102614698D01*
X93656736Y-102925767D01*
X94205887Y-103035000D01*
X94262113Y-103035000D01*
X94811264Y-102925767D01*
X95276811Y-102614698D01*
X95587880Y-102149151D01*
X95697113Y-101600000D01*
X95587880Y-101050849D01*
X95276811Y-100585302D01*
X94872297Y-100315014D01*
X95089134Y-100212389D01*
X95465041Y-99797423D01*
X95625904Y-99409039D01*
X95503915Y-99187000D01*
X94361000Y-99187000D01*
X94361000Y-99207000D01*
X94107000Y-99207000D01*
X94107000Y-99187000D01*
X92964085Y-99187000D01*
X92842096Y-99409039D01*
X93002959Y-99797423D01*
X93378866Y-100212389D01*
X93595703Y-100315014D01*
X93191189Y-100585302D01*
X92880120Y-101050849D01*
X92770887Y-101600000D01*
X89585440Y-101600000D01*
X89585440Y-100800000D01*
X89541162Y-100564683D01*
X89402090Y-100348559D01*
X89189890Y-100203569D01*
X88938000Y-100152560D01*
X87338000Y-100152560D01*
X87102683Y-100196838D01*
X86886559Y-100335910D01*
X86741569Y-100548110D01*
X86720320Y-100653041D01*
X86451923Y-100384176D01*
X85924691Y-100165250D01*
X85353813Y-100164752D01*
X84826200Y-100382757D01*
X84422176Y-100786077D01*
X84203250Y-101313309D01*
X84202752Y-101884187D01*
X83690752Y-101884187D01*
X83691248Y-101315813D01*
X83473243Y-100788200D01*
X83069923Y-100384176D01*
X82542691Y-100165250D01*
X81971813Y-100164752D01*
X81444200Y-100382757D01*
X81175417Y-100651072D01*
X81159162Y-100564683D01*
X81020090Y-100348559D01*
X80807890Y-100203569D01*
X80556000Y-100152560D01*
X78956000Y-100152560D01*
X78720683Y-100196838D01*
X78504559Y-100335910D01*
X78359569Y-100548110D01*
X78308560Y-100800000D01*
X78180000Y-100800000D01*
X78180000Y-91725659D01*
X78198330Y-91817810D01*
X78556222Y-92353433D01*
X79091845Y-92711325D01*
X79723655Y-92837000D01*
X79788345Y-92837000D01*
X80420155Y-92711325D01*
X80722962Y-92508996D01*
X80815910Y-92653441D01*
X81028110Y-92798431D01*
X81280000Y-92849440D01*
X83312000Y-92849440D01*
X83547317Y-92805162D01*
X83763441Y-92666090D01*
X83908431Y-92453890D01*
X83959440Y-92202000D01*
X83959440Y-90170000D01*
X83915162Y-89934683D01*
X83776090Y-89718559D01*
X83563890Y-89573569D01*
X83312000Y-89522560D01*
X81280000Y-89522560D01*
X81044683Y-89566838D01*
X80828559Y-89705910D01*
X80721767Y-89862206D01*
X80420155Y-89660675D01*
X79788345Y-89535000D01*
X79723655Y-89535000D01*
X79091845Y-89660675D01*
X78556222Y-90018567D01*
X78198330Y-90554190D01*
X78180000Y-90646341D01*
X78180000Y-88900000D01*
X89925907Y-88900000D01*
X90038946Y-89468285D01*
X90360853Y-89950054D01*
X90690026Y-90170000D01*
X90360853Y-90389946D01*
X90038946Y-90871715D01*
X89925907Y-91440000D01*
X90038946Y-92008285D01*
X90360853Y-92490054D01*
X90690026Y-92710000D01*
X90360853Y-92929946D01*
X90038946Y-93411715D01*
X89925907Y-93980000D01*
X90038946Y-94548285D01*
X90360853Y-95030054D01*
X90402452Y-95057850D01*
X90354683Y-95066838D01*
X90138559Y-95205910D01*
X89993569Y-95418110D01*
X89942560Y-95670000D01*
X89942560Y-97370000D01*
X89986838Y-97605317D01*
X90125910Y-97821441D01*
X90338110Y-97966431D01*
X90590000Y-98017440D01*
X92290000Y-98017440D01*
X92525317Y-97973162D01*
X92741441Y-97834090D01*
X92886431Y-97621890D01*
X92937440Y-97370000D01*
X92937440Y-97154936D01*
X93191189Y-97534698D01*
X93595703Y-97804986D01*
X93378866Y-97907611D01*
X93002959Y-98322577D01*
X92842096Y-98710961D01*
X92964085Y-98933000D01*
X94107000Y-98933000D01*
X94107000Y-98913000D01*
X94361000Y-98913000D01*
X94361000Y-98933000D01*
X95503915Y-98933000D01*
X95625904Y-98710961D01*
X95465041Y-98322577D01*
X95089134Y-97907611D01*
X94872297Y-97804986D01*
X95276811Y-97534698D01*
X95587880Y-97069151D01*
X95697113Y-96520000D01*
X95587880Y-95970849D01*
X95276811Y-95505302D01*
X94894725Y-95250000D01*
X95276811Y-94994698D01*
X95587880Y-94529151D01*
X95697113Y-93980000D01*
X95587880Y-93430849D01*
X95276811Y-92965302D01*
X94894725Y-92710000D01*
X95276811Y-92454698D01*
X95587880Y-91989151D01*
X95697113Y-91440000D01*
X95587880Y-90890849D01*
X95276811Y-90425302D01*
X94894725Y-90170000D01*
X95276811Y-89914698D01*
X95587880Y-89449151D01*
X95697113Y-88900000D01*
X95587880Y-88350849D01*
X95276811Y-87885302D01*
X94894725Y-87630000D01*
X95276811Y-87374698D01*
X95446995Y-87120000D01*
X96266000Y-87120000D01*
X96556839Y-87062148D01*
X96803401Y-86897401D01*
X99851401Y-83849401D01*
X100016148Y-83602839D01*
X100074000Y-83312000D01*
X100074000Y-77784802D01*
X103184802Y-74674000D01*
X117094000Y-74674000D01*
X117384839Y-74616148D01*
X117631401Y-74451401D01*
X118139401Y-73943401D01*
X118304147Y-73696840D01*
X118304148Y-73696839D01*
X118362000Y-73406000D01*
X118362000Y-72083331D01*
X121389273Y-72083331D01*
X121615236Y-72552663D01*
X122003604Y-72899797D01*
X122348671Y-73042716D01*
X122555000Y-72919374D01*
X122555000Y-71877000D01*
X122809000Y-71877000D01*
X122809000Y-72919374D01*
X123015329Y-73042716D01*
X123360396Y-72899797D01*
X123748764Y-72552663D01*
X123974727Y-72083331D01*
X123852206Y-71877000D01*
X122809000Y-71877000D01*
X122555000Y-71877000D01*
X121511794Y-71877000D01*
X121389273Y-72083331D01*
X118362000Y-72083331D01*
X118362000Y-71580992D01*
X118769433Y-71308754D01*
X119127325Y-70773131D01*
X119253000Y-70141321D01*
X119253000Y-70114383D01*
X121346769Y-70114383D01*
X121549582Y-70605229D01*
X121761017Y-70817034D01*
X121615236Y-70947337D01*
X121389273Y-71416669D01*
X121511794Y-71623000D01*
X122555000Y-71623000D01*
X122555000Y-71603000D01*
X122809000Y-71603000D01*
X122809000Y-71623000D01*
X123852206Y-71623000D01*
X123974727Y-71416669D01*
X123748764Y-70947337D01*
X123602940Y-70816996D01*
X123813098Y-70607204D01*
X124016768Y-70116713D01*
X124017231Y-69585617D01*
X123814418Y-69094771D01*
X123439204Y-68718902D01*
X122948713Y-68515232D01*
X122417617Y-68514769D01*
X121926771Y-68717582D01*
X121550902Y-69092796D01*
X121347232Y-69583287D01*
X121346769Y-70114383D01*
X119253000Y-70114383D01*
X119253000Y-69558679D01*
X119127325Y-68926869D01*
X118769433Y-68391246D01*
X118233810Y-68033354D01*
X117602000Y-67907679D01*
X116970190Y-68033354D01*
X116434567Y-68391246D01*
X116332000Y-68544748D01*
X116229433Y-68391246D01*
X115693810Y-68033354D01*
X115062000Y-67907679D01*
X114430190Y-68033354D01*
X113894567Y-68391246D01*
X113777946Y-68565781D01*
X113599630Y-68338764D01*
X113036477Y-68022074D01*
X112904944Y-67990025D01*
X112649000Y-68109164D01*
X112649000Y-69723000D01*
X112669000Y-69723000D01*
X112669000Y-69977000D01*
X112649000Y-69977000D01*
X112649000Y-71590836D01*
X112904944Y-71709975D01*
X113036477Y-71677926D01*
X113599630Y-71361236D01*
X113777946Y-71134219D01*
X113894567Y-71308754D01*
X114430190Y-71666646D01*
X115062000Y-71792321D01*
X115693810Y-71666646D01*
X116229433Y-71308754D01*
X116332000Y-71155252D01*
X116434567Y-71308754D01*
X116842000Y-71580992D01*
X116842000Y-73091198D01*
X116779198Y-73154000D01*
X102870000Y-73154000D01*
X102627414Y-73202254D01*
X102579160Y-73211852D01*
X102332599Y-73376599D01*
X98776599Y-76932599D01*
X98611852Y-77179161D01*
X98554000Y-77470000D01*
X98554000Y-82997198D01*
X95951198Y-85600000D01*
X95446995Y-85600000D01*
X95276811Y-85345302D01*
X94894725Y-85090000D01*
X95276811Y-84834698D01*
X95446995Y-84580000D01*
X95758000Y-84580000D01*
X96048839Y-84522148D01*
X96295401Y-84357401D01*
X97819401Y-82833401D01*
X97984148Y-82586840D01*
X97997443Y-82520000D01*
X98042000Y-82296000D01*
X98042000Y-77276802D01*
X102137401Y-73181401D01*
X102302148Y-72934839D01*
X102360000Y-72644000D01*
X102360000Y-72083331D01*
X105133273Y-72083331D01*
X105359236Y-72552663D01*
X105747604Y-72899797D01*
X106092671Y-73042716D01*
X106299000Y-72919374D01*
X106299000Y-71877000D01*
X106553000Y-71877000D01*
X106553000Y-72919374D01*
X106759329Y-73042716D01*
X107104396Y-72899797D01*
X107492764Y-72552663D01*
X107718727Y-72083331D01*
X107596206Y-71877000D01*
X106553000Y-71877000D01*
X106299000Y-71877000D01*
X105255794Y-71877000D01*
X105133273Y-72083331D01*
X102360000Y-72083331D01*
X102360000Y-71580992D01*
X102767433Y-71308754D01*
X103125325Y-70773131D01*
X103251000Y-70141321D01*
X103251000Y-70114383D01*
X105090769Y-70114383D01*
X105293582Y-70605229D01*
X105505017Y-70817034D01*
X105359236Y-70947337D01*
X105133273Y-71416669D01*
X105255794Y-71623000D01*
X106299000Y-71623000D01*
X106299000Y-71603000D01*
X106553000Y-71603000D01*
X106553000Y-71623000D01*
X107596206Y-71623000D01*
X107718727Y-71416669D01*
X107492764Y-70947337D01*
X107346940Y-70816996D01*
X107557098Y-70607204D01*
X107760768Y-70116713D01*
X107760889Y-69977000D01*
X110871000Y-69977000D01*
X110871000Y-70231000D01*
X111045276Y-70853143D01*
X111444370Y-71361236D01*
X112007523Y-71677926D01*
X112139056Y-71709975D01*
X112395000Y-71590836D01*
X112395000Y-69977000D01*
X110871000Y-69977000D01*
X107760889Y-69977000D01*
X107761231Y-69585617D01*
X107713046Y-69469000D01*
X110871000Y-69469000D01*
X110871000Y-69723000D01*
X112395000Y-69723000D01*
X112395000Y-68109164D01*
X112139056Y-67990025D01*
X112007523Y-68022074D01*
X111444370Y-68338764D01*
X111045276Y-68846857D01*
X110871000Y-69469000D01*
X107713046Y-69469000D01*
X107558418Y-69094771D01*
X107183204Y-68718902D01*
X106692713Y-68515232D01*
X106161617Y-68514769D01*
X105670771Y-68717582D01*
X105294902Y-69092796D01*
X105091232Y-69583287D01*
X105090769Y-70114383D01*
X103251000Y-70114383D01*
X103251000Y-69558679D01*
X103125325Y-68926869D01*
X102767433Y-68391246D01*
X102231810Y-68033354D01*
X101600000Y-67907679D01*
X100968190Y-68033354D01*
X100432567Y-68391246D01*
X100330000Y-68544748D01*
X100227433Y-68391246D01*
X99691810Y-68033354D01*
X99060000Y-67907679D01*
X98428190Y-68033354D01*
X97892567Y-68391246D01*
X97775946Y-68565781D01*
X97597630Y-68338764D01*
X97034477Y-68022074D01*
X96902944Y-67990025D01*
X96647000Y-68109164D01*
X96647000Y-69723000D01*
X96667000Y-69723000D01*
X96667000Y-69977000D01*
X96647000Y-69977000D01*
X96647000Y-71590836D01*
X96902944Y-71709975D01*
X97034477Y-71677926D01*
X97597630Y-71361236D01*
X97775946Y-71134219D01*
X97892567Y-71308754D01*
X98428190Y-71666646D01*
X99060000Y-71792321D01*
X99691810Y-71666646D01*
X100227433Y-71308754D01*
X100330000Y-71155252D01*
X100432567Y-71308754D01*
X100840000Y-71580992D01*
X100840000Y-72329198D01*
X96744599Y-76424599D01*
X96579852Y-76671161D01*
X96522000Y-76962000D01*
X96522000Y-81981198D01*
X95445474Y-83057724D01*
X95276811Y-82805302D01*
X94894725Y-82550000D01*
X95276811Y-82294698D01*
X95587880Y-81829151D01*
X95697113Y-81280000D01*
X95587880Y-80730849D01*
X95276811Y-80265302D01*
X94894725Y-80010000D01*
X95276811Y-79754698D01*
X95587880Y-79289151D01*
X95697113Y-78740000D01*
X95587880Y-78190849D01*
X95276811Y-77725302D01*
X94811264Y-77414233D01*
X94262113Y-77305000D01*
X94205887Y-77305000D01*
X93724000Y-77400853D01*
X93724000Y-70866000D01*
X93666148Y-70575161D01*
X93501401Y-70328599D01*
X93149802Y-69977000D01*
X94869000Y-69977000D01*
X94869000Y-70231000D01*
X95043276Y-70853143D01*
X95442370Y-71361236D01*
X96005523Y-71677926D01*
X96137056Y-71709975D01*
X96393000Y-71590836D01*
X96393000Y-69977000D01*
X94869000Y-69977000D01*
X93149802Y-69977000D01*
X92775216Y-69602414D01*
X92775231Y-69585617D01*
X92727046Y-69469000D01*
X94869000Y-69469000D01*
X94869000Y-69723000D01*
X96393000Y-69723000D01*
X96393000Y-68109164D01*
X96137056Y-67990025D01*
X96005523Y-68022074D01*
X95442370Y-68338764D01*
X95043276Y-68846857D01*
X94869000Y-69469000D01*
X92727046Y-69469000D01*
X92572418Y-69094771D01*
X92197204Y-68718902D01*
X91706713Y-68515232D01*
X91175617Y-68514769D01*
X90684771Y-68717582D01*
X90308902Y-69092796D01*
X90105232Y-69583287D01*
X90104769Y-70114383D01*
X90307582Y-70605229D01*
X90519017Y-70817034D01*
X90373236Y-70947337D01*
X90147273Y-71416669D01*
X90269794Y-71623000D01*
X91313000Y-71623000D01*
X91313000Y-71603000D01*
X91567000Y-71603000D01*
X91567000Y-71623000D01*
X91587000Y-71623000D01*
X91587000Y-71877000D01*
X91567000Y-71877000D01*
X91567000Y-72919374D01*
X91773329Y-73042716D01*
X92118396Y-72899797D01*
X92204000Y-72823282D01*
X92204000Y-80010000D01*
X92261852Y-80300839D01*
X92426599Y-80547401D01*
X92835312Y-80956114D01*
X92770887Y-81280000D01*
X92880120Y-81829151D01*
X93191189Y-82294698D01*
X93573275Y-82550000D01*
X93191189Y-82805302D01*
X92880120Y-83270849D01*
X92856234Y-83390932D01*
X92826418Y-83318771D01*
X92451204Y-82942902D01*
X91960713Y-82739232D01*
X91429617Y-82738769D01*
X90938771Y-82941582D01*
X90562902Y-83316796D01*
X90359232Y-83807287D01*
X90358769Y-84338383D01*
X90561582Y-84829229D01*
X90773017Y-85041034D01*
X90627236Y-85171337D01*
X90401273Y-85640669D01*
X90523794Y-85847000D01*
X91567000Y-85847000D01*
X91567000Y-85827000D01*
X91821000Y-85827000D01*
X91821000Y-85847000D01*
X91841000Y-85847000D01*
X91841000Y-86101000D01*
X91821000Y-86101000D01*
X91821000Y-87143374D01*
X92027329Y-87266716D01*
X92372396Y-87123797D01*
X92760764Y-86776663D01*
X92826576Y-86639969D01*
X92880120Y-86909151D01*
X93191189Y-87374698D01*
X93573275Y-87630000D01*
X93191189Y-87885302D01*
X92880120Y-88350849D01*
X92862490Y-88439481D01*
X92841054Y-88331715D01*
X92519147Y-87849946D01*
X92037378Y-87528039D01*
X91469093Y-87415000D01*
X91410907Y-87415000D01*
X90842622Y-87528039D01*
X90360853Y-87849946D01*
X90038946Y-88331715D01*
X89925907Y-88900000D01*
X78180000Y-88900000D01*
X78180000Y-86307331D01*
X90401273Y-86307331D01*
X90627236Y-86776663D01*
X91015604Y-87123797D01*
X91360671Y-87266716D01*
X91567000Y-87143374D01*
X91567000Y-86101000D01*
X90523794Y-86101000D01*
X90401273Y-86307331D01*
X78180000Y-86307331D01*
X78180000Y-84201000D01*
X79883000Y-84201000D01*
X79883000Y-84455000D01*
X80057276Y-85077143D01*
X80456370Y-85585236D01*
X81019523Y-85901926D01*
X81151056Y-85933975D01*
X81407000Y-85814836D01*
X81407000Y-84201000D01*
X79883000Y-84201000D01*
X78180000Y-84201000D01*
X78180000Y-83693000D01*
X79883000Y-83693000D01*
X79883000Y-83947000D01*
X81407000Y-83947000D01*
X81407000Y-82333164D01*
X81661000Y-82333164D01*
X81661000Y-83947000D01*
X81681000Y-83947000D01*
X81681000Y-84201000D01*
X81661000Y-84201000D01*
X81661000Y-85814836D01*
X81916944Y-85933975D01*
X82048477Y-85901926D01*
X82611630Y-85585236D01*
X82789946Y-85358219D01*
X82906567Y-85532754D01*
X83442190Y-85890646D01*
X84074000Y-86016321D01*
X84705810Y-85890646D01*
X85241433Y-85532754D01*
X85344000Y-85379252D01*
X85446567Y-85532754D01*
X85982190Y-85890646D01*
X86614000Y-86016321D01*
X87245810Y-85890646D01*
X87781433Y-85532754D01*
X88139325Y-84997131D01*
X88265000Y-84365321D01*
X88265000Y-83782679D01*
X88139325Y-83150869D01*
X87781433Y-82615246D01*
X87245810Y-82257354D01*
X86614000Y-82131679D01*
X85982190Y-82257354D01*
X85446567Y-82615246D01*
X85344000Y-82768748D01*
X85241433Y-82615246D01*
X84705810Y-82257354D01*
X84074000Y-82131679D01*
X83442190Y-82257354D01*
X82906567Y-82615246D01*
X82789946Y-82789781D01*
X82611630Y-82562764D01*
X82048477Y-82246074D01*
X81916944Y-82214025D01*
X81661000Y-82333164D01*
X81407000Y-82333164D01*
X81151056Y-82214025D01*
X81019523Y-82246074D01*
X80456370Y-82562764D01*
X80057276Y-83070857D01*
X79883000Y-83693000D01*
X78180000Y-83693000D01*
X78180000Y-77539255D01*
X78257400Y-77539255D01*
X78257400Y-77908745D01*
X78371474Y-78482234D01*
X78696330Y-78968415D01*
X79182511Y-79293271D01*
X79756000Y-79407345D01*
X80329489Y-79293271D01*
X80815670Y-78968415D01*
X81026000Y-78653634D01*
X81236330Y-78968415D01*
X81722511Y-79293271D01*
X82296000Y-79407345D01*
X82641360Y-79338649D01*
X82804000Y-79371000D01*
X83142675Y-79303633D01*
X83429790Y-79111790D01*
X83621633Y-78824675D01*
X83635088Y-78757032D01*
X83776330Y-78968415D01*
X84262511Y-79293271D01*
X84836000Y-79407345D01*
X85409489Y-79293271D01*
X85895670Y-78968415D01*
X85905243Y-78954087D01*
X85909238Y-78975317D01*
X86048310Y-79191441D01*
X86260510Y-79336431D01*
X86512400Y-79387440D01*
X88239600Y-79387440D01*
X88474917Y-79343162D01*
X88691041Y-79204090D01*
X88836031Y-78991890D01*
X88887040Y-78740000D01*
X88887040Y-76708000D01*
X88842762Y-76472683D01*
X88703690Y-76256559D01*
X88491490Y-76111569D01*
X88239600Y-76060560D01*
X86512400Y-76060560D01*
X86277083Y-76104838D01*
X86060959Y-76243910D01*
X85915969Y-76456110D01*
X85907600Y-76497439D01*
X85895670Y-76479585D01*
X85409489Y-76154729D01*
X84836000Y-76040655D01*
X84262511Y-76154729D01*
X83776330Y-76479585D01*
X83566000Y-76794366D01*
X83355670Y-76479585D01*
X82869489Y-76154729D01*
X82296000Y-76040655D01*
X81722511Y-76154729D01*
X81236330Y-76479585D01*
X81026000Y-76794366D01*
X80815670Y-76479585D01*
X80329489Y-76154729D01*
X79756000Y-76040655D01*
X79182511Y-76154729D01*
X78696330Y-76479585D01*
X78371474Y-76965766D01*
X78257400Y-77539255D01*
X78180000Y-77539255D01*
X78180000Y-72083331D01*
X90147273Y-72083331D01*
X90373236Y-72552663D01*
X90761604Y-72899797D01*
X91106671Y-73042716D01*
X91313000Y-72919374D01*
X91313000Y-71877000D01*
X90269794Y-71877000D01*
X90147273Y-72083331D01*
X78180000Y-72083331D01*
X78180000Y-69977000D01*
X79883000Y-69977000D01*
X79883000Y-70231000D01*
X80057276Y-70853143D01*
X80456370Y-71361236D01*
X81019523Y-71677926D01*
X81151056Y-71709975D01*
X81407000Y-71590836D01*
X81407000Y-69977000D01*
X79883000Y-69977000D01*
X78180000Y-69977000D01*
X78180000Y-69469000D01*
X79883000Y-69469000D01*
X79883000Y-69723000D01*
X81407000Y-69723000D01*
X81407000Y-68109164D01*
X81661000Y-68109164D01*
X81661000Y-69723000D01*
X81681000Y-69723000D01*
X81681000Y-69977000D01*
X81661000Y-69977000D01*
X81661000Y-71590836D01*
X81916944Y-71709975D01*
X82048477Y-71677926D01*
X82611630Y-71361236D01*
X82789946Y-71134219D01*
X82906567Y-71308754D01*
X83442190Y-71666646D01*
X84074000Y-71792321D01*
X84705810Y-71666646D01*
X85241433Y-71308754D01*
X85344000Y-71155252D01*
X85446567Y-71308754D01*
X85982190Y-71666646D01*
X86614000Y-71792321D01*
X87245810Y-71666646D01*
X87781433Y-71308754D01*
X88139325Y-70773131D01*
X88265000Y-70141321D01*
X88265000Y-69558679D01*
X88139325Y-68926869D01*
X87781433Y-68391246D01*
X87245810Y-68033354D01*
X86614000Y-67907679D01*
X85982190Y-68033354D01*
X85446567Y-68391246D01*
X85344000Y-68544748D01*
X85241433Y-68391246D01*
X84705810Y-68033354D01*
X84074000Y-67907679D01*
X83442190Y-68033354D01*
X82906567Y-68391246D01*
X82789946Y-68565781D01*
X82611630Y-68338764D01*
X82048477Y-68022074D01*
X81916944Y-67990025D01*
X81661000Y-68109164D01*
X81407000Y-68109164D01*
X81151056Y-67990025D01*
X81019523Y-68022074D01*
X80456370Y-68338764D01*
X80057276Y-68846857D01*
X79883000Y-69469000D01*
X78180000Y-69469000D01*
X78180000Y-66750000D01*
X125020000Y-66750000D01*
X125020000Y-79883000D01*
X125020000Y-79883000D01*
G37*
X125020000Y-79883000D02*
X117950000Y-79883000D01*
X117950000Y-79344000D01*
X117892148Y-79053161D01*
X117892148Y-79053160D01*
X117727401Y-78806599D01*
X117417185Y-78496383D01*
X119314769Y-78496383D01*
X119517582Y-78987229D01*
X119892796Y-79363098D01*
X120383287Y-79566768D01*
X120914383Y-79567231D01*
X121405229Y-79364418D01*
X121588322Y-79181644D01*
X122012964Y-79465379D01*
X122523846Y-79567000D01*
X122576154Y-79567000D01*
X123087036Y-79465379D01*
X123520142Y-79175988D01*
X123809533Y-78742882D01*
X123911154Y-78232000D01*
X123809533Y-77721118D01*
X123520142Y-77288012D01*
X123087036Y-76998621D01*
X122576154Y-76897000D01*
X122523846Y-76897000D01*
X122012964Y-76998621D01*
X121588334Y-77282348D01*
X121407204Y-77100902D01*
X120916713Y-76897232D01*
X120385617Y-76896769D01*
X119894771Y-77099582D01*
X119518902Y-77474796D01*
X119315232Y-77965287D01*
X119314769Y-78496383D01*
X117417185Y-78496383D01*
X115853401Y-76932599D01*
X115606839Y-76767852D01*
X115316000Y-76710000D01*
X107188000Y-76710000D01*
X106897161Y-76767852D01*
X106650599Y-76932599D01*
X103065474Y-80517724D01*
X102896811Y-80265302D01*
X102514725Y-80010000D01*
X102896811Y-79754698D01*
X103207880Y-79289151D01*
X103317113Y-78740000D01*
X103207880Y-78190849D01*
X102896811Y-77725302D01*
X102431264Y-77414233D01*
X101882113Y-77305000D01*
X101825887Y-77305000D01*
X101276736Y-77414233D01*
X100811189Y-77725302D01*
X100500120Y-78190849D01*
X100390887Y-78740000D01*
X100500120Y-79289151D01*
X100811189Y-79754698D01*
X101193275Y-80010000D01*
X100811189Y-80265302D01*
X100500120Y-80730849D01*
X100390887Y-81280000D01*
X100500120Y-81829151D01*
X100811189Y-82294698D01*
X101193275Y-82550000D01*
X100811189Y-82805302D01*
X100500120Y-83270849D01*
X100390887Y-83820000D01*
X100500120Y-84369151D01*
X100811189Y-84834698D01*
X101193275Y-85090000D01*
X100811189Y-85345302D01*
X100500120Y-85810849D01*
X100390887Y-86360000D01*
X100500120Y-86909151D01*
X100811189Y-87374698D01*
X101193275Y-87630000D01*
X100811189Y-87885302D01*
X100500120Y-88350849D01*
X100390887Y-88900000D01*
X100500120Y-89449151D01*
X100811189Y-89914698D01*
X101193275Y-90170000D01*
X100811189Y-90425302D01*
X100500120Y-90890849D01*
X100390887Y-91440000D01*
X100500120Y-91989151D01*
X100811189Y-92454698D01*
X101193275Y-92710000D01*
X100811189Y-92965302D01*
X100500120Y-93430849D01*
X100390887Y-93980000D01*
X100500120Y-94529151D01*
X100811189Y-94994698D01*
X101193275Y-95250000D01*
X100811189Y-95505302D01*
X100500120Y-95970849D01*
X100390887Y-96520000D01*
X100500120Y-97069151D01*
X100811189Y-97534698D01*
X101193275Y-97790000D01*
X100811189Y-98045302D01*
X100500120Y-98510849D01*
X100390887Y-99060000D01*
X100500120Y-99609151D01*
X100811189Y-100074698D01*
X100955465Y-100171101D01*
X100818683Y-100196838D01*
X100602559Y-100335910D01*
X100457569Y-100548110D01*
X100406560Y-100800000D01*
X100406560Y-102400000D01*
X100450838Y-102635317D01*
X100589910Y-102851441D01*
X100802110Y-102996431D01*
X101054000Y-103047440D01*
X102654000Y-103047440D01*
X102889317Y-103003162D01*
X103105441Y-102864090D01*
X103250431Y-102651890D01*
X103301440Y-102400000D01*
X103301440Y-100800000D01*
X103257162Y-100564683D01*
X103118090Y-100348559D01*
X102905890Y-100203569D01*
X102750911Y-100172185D01*
X102896811Y-100074698D01*
X103066995Y-99820000D01*
X104140000Y-99820000D01*
X104430839Y-99762148D01*
X104677401Y-99597401D01*
X108065405Y-96209397D01*
X108005000Y-96513071D01*
X108005000Y-97986929D01*
X108095203Y-98440409D01*
X108352078Y-98824851D01*
X108736520Y-99081726D01*
X109190000Y-99171929D01*
X109643480Y-99081726D01*
X110027922Y-98824851D01*
X110229405Y-98523309D01*
X110441882Y-98777724D01*
X110853854Y-98993398D01*
X110880256Y-98993803D01*
X111063000Y-98868361D01*
X111063000Y-97277000D01*
X111043000Y-97277000D01*
X111043000Y-97023000D01*
X111063000Y-97023000D01*
X111063000Y-97003000D01*
X111317000Y-97003000D01*
X111317000Y-97023000D01*
X111337000Y-97023000D01*
X111337000Y-97277000D01*
X111317000Y-97277000D01*
X111317000Y-98868361D01*
X111499744Y-98993803D01*
X111526146Y-98993398D01*
X111938118Y-98777724D01*
X112150595Y-98523309D01*
X112352078Y-98824851D01*
X112736520Y-99081726D01*
X113190000Y-99171929D01*
X113643480Y-99081726D01*
X114027922Y-98824851D01*
X114190000Y-98582283D01*
X114352078Y-98824851D01*
X114736520Y-99081726D01*
X115190000Y-99171929D01*
X115643480Y-99081726D01*
X116027922Y-98824851D01*
X116190000Y-98582283D01*
X116352078Y-98824851D01*
X116736520Y-99081726D01*
X117190000Y-99171929D01*
X117643480Y-99081726D01*
X118027922Y-98824851D01*
X118190000Y-98582283D01*
X118352078Y-98824851D01*
X118736520Y-99081726D01*
X119190000Y-99171929D01*
X119643480Y-99081726D01*
X120027922Y-98824851D01*
X120190000Y-98582283D01*
X120352078Y-98824851D01*
X120736520Y-99081726D01*
X121190000Y-99171929D01*
X121643480Y-99081726D01*
X122027922Y-98824851D01*
X122190000Y-98582283D01*
X122352078Y-98824851D01*
X122736520Y-99081726D01*
X123190000Y-99171929D01*
X123643480Y-99081726D01*
X124027922Y-98824851D01*
X124284797Y-98440409D01*
X124375000Y-97986929D01*
X124375000Y-96513071D01*
X124284797Y-96059591D01*
X124168139Y-95885000D01*
X125020000Y-95885000D01*
X125020000Y-113590000D01*
X78180000Y-113590000D01*
X78180000Y-109220000D01*
X79250000Y-109220000D01*
X79307852Y-109510839D01*
X79472599Y-109757401D01*
X79719161Y-109922148D01*
X80010000Y-109980000D01*
X80221844Y-109937861D01*
X80262675Y-110143131D01*
X80620567Y-110678754D01*
X81156190Y-111036646D01*
X81788000Y-111162321D01*
X82419810Y-111036646D01*
X82955433Y-110678754D01*
X83072054Y-110504219D01*
X83250370Y-110731236D01*
X83813523Y-111047926D01*
X83945056Y-111079975D01*
X84201000Y-110960836D01*
X84201000Y-109347000D01*
X84181000Y-109347000D01*
X84181000Y-109093000D01*
X84201000Y-109093000D01*
X84201000Y-107479164D01*
X84455000Y-107479164D01*
X84455000Y-109093000D01*
X84475000Y-109093000D01*
X84475000Y-109347000D01*
X84455000Y-109347000D01*
X84455000Y-110960836D01*
X84710944Y-111079975D01*
X84842477Y-111047926D01*
X85405630Y-110731236D01*
X85583946Y-110504219D01*
X85700567Y-110678754D01*
X86236190Y-111036646D01*
X86868000Y-111162321D01*
X87499810Y-111036646D01*
X88035433Y-110678754D01*
X88393325Y-110143131D01*
X88519000Y-109511321D01*
X88519000Y-109220000D01*
X92550655Y-109220000D01*
X92676330Y-109851810D01*
X93034222Y-110387433D01*
X93569845Y-110745325D01*
X94201655Y-110871000D01*
X94266345Y-110871000D01*
X94898155Y-110745325D01*
X95198519Y-110544628D01*
X95219673Y-110595699D01*
X95398302Y-110774327D01*
X95631691Y-110871000D01*
X96488250Y-110871000D01*
X96647000Y-110712250D01*
X96647000Y-109347000D01*
X96901000Y-109347000D01*
X96901000Y-110712250D01*
X97059750Y-110871000D01*
X97916309Y-110871000D01*
X98149698Y-110774327D01*
X98328327Y-110595699D01*
X98425000Y-110362310D01*
X98425000Y-109505750D01*
X98266250Y-109347000D01*
X96901000Y-109347000D01*
X96647000Y-109347000D01*
X96627000Y-109347000D01*
X96627000Y-109093000D01*
X96647000Y-109093000D01*
X96647000Y-107727750D01*
X96901000Y-107727750D01*
X96901000Y-109093000D01*
X98266250Y-109093000D01*
X98425000Y-108934250D01*
X98425000Y-108204000D01*
X100342960Y-108204000D01*
X100342960Y-110236000D01*
X100387238Y-110471317D01*
X100526310Y-110687441D01*
X100738510Y-110832431D01*
X100990400Y-110883440D01*
X102717600Y-110883440D01*
X102952917Y-110839162D01*
X103169041Y-110700090D01*
X103314031Y-110487890D01*
X103333232Y-110393073D01*
X103491964Y-110570732D01*
X104019209Y-110824709D01*
X104034974Y-110827358D01*
X104267000Y-110706217D01*
X104267000Y-109347000D01*
X104247000Y-109347000D01*
X104247000Y-109093000D01*
X104267000Y-109093000D01*
X104267000Y-107733783D01*
X104521000Y-107733783D01*
X104521000Y-109093000D01*
X104541000Y-109093000D01*
X104541000Y-109347000D01*
X104521000Y-109347000D01*
X104521000Y-110706217D01*
X104753026Y-110827358D01*
X104768791Y-110824709D01*
X105296036Y-110570732D01*
X105667539Y-110154931D01*
X105874330Y-110464415D01*
X106360511Y-110789271D01*
X106934000Y-110903345D01*
X107507489Y-110789271D01*
X107993670Y-110464415D01*
X108318526Y-109978234D01*
X108432600Y-109404745D01*
X108432600Y-109035255D01*
X108318526Y-108461766D01*
X108290619Y-108420000D01*
X109042560Y-108420000D01*
X109042560Y-110020000D01*
X109086838Y-110255317D01*
X109225910Y-110471441D01*
X109438110Y-110616431D01*
X109690000Y-110667440D01*
X111290000Y-110667440D01*
X111525317Y-110623162D01*
X111741441Y-110484090D01*
X111886431Y-110271890D01*
X111895370Y-110227745D01*
X112161861Y-110227745D01*
X112235995Y-110473864D01*
X112773223Y-110666965D01*
X113343454Y-110639778D01*
X113744005Y-110473864D01*
X113818139Y-110227745D01*
X112990000Y-109399605D01*
X112161861Y-110227745D01*
X111895370Y-110227745D01*
X111934646Y-110033799D01*
X111982255Y-110048139D01*
X112810395Y-109220000D01*
X113169605Y-109220000D01*
X113997745Y-110048139D01*
X114243864Y-109974005D01*
X114412173Y-109505750D01*
X115189000Y-109505750D01*
X115189000Y-110362310D01*
X115285673Y-110595699D01*
X115464302Y-110774327D01*
X115697691Y-110871000D01*
X116554250Y-110871000D01*
X116713000Y-110712250D01*
X116713000Y-109347000D01*
X115347750Y-109347000D01*
X115189000Y-109505750D01*
X114412173Y-109505750D01*
X114436965Y-109436777D01*
X114409778Y-108866546D01*
X114243864Y-108465995D01*
X113997745Y-108391861D01*
X113169605Y-109220000D01*
X112810395Y-109220000D01*
X111982255Y-108391861D01*
X111934833Y-108406145D01*
X111898351Y-108212255D01*
X112161861Y-108212255D01*
X112990000Y-109040395D01*
X113818139Y-108212255D01*
X113777607Y-108077690D01*
X115189000Y-108077690D01*
X115189000Y-108934250D01*
X115347750Y-109093000D01*
X116713000Y-109093000D01*
X116713000Y-107727750D01*
X116554250Y-107569000D01*
X115697691Y-107569000D01*
X115464302Y-107665673D01*
X115285673Y-107844301D01*
X115189000Y-108077690D01*
X113777607Y-108077690D01*
X113744005Y-107966136D01*
X113206777Y-107773035D01*
X112636546Y-107800222D01*
X112235995Y-107966136D01*
X112161861Y-108212255D01*
X111898351Y-108212255D01*
X111893162Y-108184683D01*
X111754090Y-107968559D01*
X111541890Y-107823569D01*
X111290000Y-107772560D01*
X109690000Y-107772560D01*
X109454683Y-107816838D01*
X109238559Y-107955910D01*
X109093569Y-108168110D01*
X109042560Y-108420000D01*
X108290619Y-108420000D01*
X107993670Y-107975585D01*
X107507489Y-107650729D01*
X106934000Y-107536655D01*
X106360511Y-107650729D01*
X105874330Y-107975585D01*
X105667539Y-108285069D01*
X105296036Y-107869268D01*
X104768791Y-107615291D01*
X104753026Y-107612642D01*
X104521000Y-107733783D01*
X104267000Y-107733783D01*
X104034974Y-107612642D01*
X104019209Y-107615291D01*
X103491964Y-107869268D01*
X103335093Y-108044845D01*
X103320762Y-107968683D01*
X103181690Y-107752559D01*
X102969490Y-107607569D01*
X102717600Y-107556560D01*
X100990400Y-107556560D01*
X100755083Y-107600838D01*
X100538959Y-107739910D01*
X100393969Y-107952110D01*
X100342960Y-108204000D01*
X98425000Y-108204000D01*
X98425000Y-108077690D01*
X98328327Y-107844301D01*
X98149698Y-107665673D01*
X97916309Y-107569000D01*
X97059750Y-107569000D01*
X96901000Y-107727750D01*
X96647000Y-107727750D01*
X96488250Y-107569000D01*
X95631691Y-107569000D01*
X95398302Y-107665673D01*
X95219673Y-107844301D01*
X95198519Y-107895372D01*
X94898155Y-107694675D01*
X94266345Y-107569000D01*
X94201655Y-107569000D01*
X93569845Y-107694675D01*
X93034222Y-108052567D01*
X92676330Y-108588190D01*
X92550655Y-109220000D01*
X88519000Y-109220000D01*
X88519000Y-108928679D01*
X88393325Y-108296869D01*
X88035433Y-107761246D01*
X87499810Y-107403354D01*
X86868000Y-107277679D01*
X86236190Y-107403354D01*
X85700567Y-107761246D01*
X85583946Y-107935781D01*
X85405630Y-107708764D01*
X84842477Y-107392074D01*
X84710944Y-107360025D01*
X84455000Y-107479164D01*
X84201000Y-107479164D01*
X83945056Y-107360025D01*
X83813523Y-107392074D01*
X83250370Y-107708764D01*
X83072054Y-107935781D01*
X82955433Y-107761246D01*
X82419810Y-107403354D01*
X81788000Y-107277679D01*
X81156190Y-107403354D01*
X80620567Y-107761246D01*
X80262675Y-108296869D01*
X80221844Y-108502139D01*
X80010000Y-108460000D01*
X79719161Y-108517852D01*
X79472599Y-108682599D01*
X79307852Y-108929161D01*
X79250000Y-109220000D01*
X78180000Y-109220000D01*
X78180000Y-103134383D01*
X112964769Y-103134383D01*
X113167582Y-103625229D01*
X113542796Y-104001098D01*
X114033287Y-104204768D01*
X114564383Y-104205231D01*
X115055229Y-104002418D01*
X115431098Y-103627204D01*
X115634768Y-103136713D01*
X115634770Y-103134383D01*
X116774769Y-103134383D01*
X116977582Y-103625229D01*
X117352796Y-104001098D01*
X117843287Y-104204768D01*
X118374383Y-104205231D01*
X118620000Y-104103744D01*
X118620000Y-107758717D01*
X118415481Y-107895372D01*
X118394327Y-107844301D01*
X118215698Y-107665673D01*
X117982309Y-107569000D01*
X117125750Y-107569000D01*
X116967000Y-107727750D01*
X116967000Y-109093000D01*
X116987000Y-109093000D01*
X116987000Y-109347000D01*
X116967000Y-109347000D01*
X116967000Y-110712250D01*
X117125750Y-110871000D01*
X117982309Y-110871000D01*
X118215698Y-110774327D01*
X118394327Y-110595699D01*
X118415481Y-110544628D01*
X118715845Y-110745325D01*
X119347655Y-110871000D01*
X119412345Y-110871000D01*
X120044155Y-110745325D01*
X120579778Y-110387433D01*
X120937670Y-109851810D01*
X121063345Y-109220000D01*
X121506655Y-109220000D01*
X121620729Y-109793489D01*
X121945585Y-110279670D01*
X122431766Y-110604526D01*
X123005255Y-110718600D01*
X123374745Y-110718600D01*
X123948234Y-110604526D01*
X124434415Y-110279670D01*
X124759271Y-109793489D01*
X124873345Y-109220000D01*
X124759271Y-108646511D01*
X124434415Y-108160330D01*
X124124931Y-107953539D01*
X124540732Y-107582036D01*
X124794709Y-107054791D01*
X124797358Y-107039026D01*
X124676217Y-106807000D01*
X123317000Y-106807000D01*
X123317000Y-106827000D01*
X123063000Y-106827000D01*
X123063000Y-106807000D01*
X121703783Y-106807000D01*
X121582642Y-107039026D01*
X121585291Y-107054791D01*
X121839268Y-107582036D01*
X122255069Y-107953539D01*
X121945585Y-108160330D01*
X121620729Y-108646511D01*
X121506655Y-109220000D01*
X121063345Y-109220000D01*
X120937670Y-108588190D01*
X120579778Y-108052567D01*
X120140000Y-107758717D01*
X120140000Y-104140000D01*
X121506655Y-104140000D01*
X121620729Y-104713489D01*
X121945585Y-105199670D01*
X122255069Y-105406461D01*
X121839268Y-105777964D01*
X121585291Y-106305209D01*
X121582642Y-106320974D01*
X121703783Y-106553000D01*
X123063000Y-106553000D01*
X123063000Y-106533000D01*
X123317000Y-106533000D01*
X123317000Y-106553000D01*
X124676217Y-106553000D01*
X124797358Y-106320974D01*
X124794709Y-106305209D01*
X124540732Y-105777964D01*
X124124931Y-105406461D01*
X124434415Y-105199670D01*
X124759271Y-104713489D01*
X124873345Y-104140000D01*
X124759271Y-103566511D01*
X124434415Y-103080330D01*
X124420087Y-103070757D01*
X124441317Y-103066762D01*
X124657441Y-102927690D01*
X124802431Y-102715490D01*
X124853440Y-102463600D01*
X124853440Y-100736400D01*
X124809162Y-100501083D01*
X124670090Y-100284959D01*
X124457890Y-100139969D01*
X124206000Y-100088960D01*
X122174000Y-100088960D01*
X121938683Y-100133238D01*
X121722559Y-100272310D01*
X121577569Y-100484510D01*
X121526560Y-100736400D01*
X121526560Y-102463600D01*
X121570838Y-102698917D01*
X121709910Y-102915041D01*
X121922110Y-103060031D01*
X121963439Y-103068400D01*
X121945585Y-103080330D01*
X121620729Y-103566511D01*
X121506655Y-104140000D01*
X120140000Y-104140000D01*
X120140000Y-101600000D01*
X120082148Y-101309161D01*
X119917401Y-101062599D01*
X119357188Y-100502386D01*
X119343379Y-100432964D01*
X119053988Y-99999858D01*
X118620882Y-99710467D01*
X118110000Y-99608846D01*
X117599118Y-99710467D01*
X117166012Y-99999858D01*
X116876621Y-100432964D01*
X116775000Y-100943846D01*
X116775000Y-100996154D01*
X116876621Y-101507036D01*
X117160348Y-101931666D01*
X116978902Y-102112796D01*
X116775232Y-102603287D01*
X116774769Y-103134383D01*
X115634770Y-103134383D01*
X115635231Y-102605617D01*
X115432418Y-102114771D01*
X115249644Y-101931678D01*
X115533379Y-101507036D01*
X115635000Y-100996154D01*
X115635000Y-100943846D01*
X115533379Y-100432964D01*
X115243988Y-99999858D01*
X114810882Y-99710467D01*
X114300000Y-99608846D01*
X113789118Y-99710467D01*
X113356012Y-99999858D01*
X113066621Y-100432964D01*
X112965000Y-100943846D01*
X112965000Y-100996154D01*
X113066621Y-101507036D01*
X113350348Y-101931666D01*
X113168902Y-102112796D01*
X112965232Y-102603287D01*
X112964769Y-103134383D01*
X78180000Y-103134383D01*
X78180000Y-100800000D01*
X78308560Y-100800000D01*
X78308560Y-102400000D01*
X78352838Y-102635317D01*
X78491910Y-102851441D01*
X78704110Y-102996431D01*
X78956000Y-103047440D01*
X80556000Y-103047440D01*
X80791317Y-103003162D01*
X81007441Y-102864090D01*
X81152431Y-102651890D01*
X81173680Y-102546959D01*
X81442077Y-102815824D01*
X81969309Y-103034750D01*
X82540187Y-103035248D01*
X83067800Y-102817243D01*
X83471824Y-102413923D01*
X83690750Y-101886691D01*
X83690752Y-101884187D01*
X84202752Y-101884187D01*
X84420757Y-102411800D01*
X84824077Y-102815824D01*
X85351309Y-103034750D01*
X85922187Y-103035248D01*
X86449800Y-102817243D01*
X86718583Y-102548928D01*
X86734838Y-102635317D01*
X86873910Y-102851441D01*
X87086110Y-102996431D01*
X87338000Y-103047440D01*
X88938000Y-103047440D01*
X89173317Y-103003162D01*
X89389441Y-102864090D01*
X89534431Y-102651890D01*
X89585440Y-102400000D01*
X89585440Y-101600000D01*
X92770887Y-101600000D01*
X92880120Y-102149151D01*
X93191189Y-102614698D01*
X93656736Y-102925767D01*
X94205887Y-103035000D01*
X94262113Y-103035000D01*
X94811264Y-102925767D01*
X95276811Y-102614698D01*
X95587880Y-102149151D01*
X95697113Y-101600000D01*
X95587880Y-101050849D01*
X95276811Y-100585302D01*
X94872297Y-100315014D01*
X95089134Y-100212389D01*
X95465041Y-99797423D01*
X95625904Y-99409039D01*
X95503915Y-99187000D01*
X94361000Y-99187000D01*
X94361000Y-99207000D01*
X94107000Y-99207000D01*
X94107000Y-99187000D01*
X92964085Y-99187000D01*
X92842096Y-99409039D01*
X93002959Y-99797423D01*
X93378866Y-100212389D01*
X93595703Y-100315014D01*
X93191189Y-100585302D01*
X92880120Y-101050849D01*
X92770887Y-101600000D01*
X89585440Y-101600000D01*
X89585440Y-100800000D01*
X89541162Y-100564683D01*
X89402090Y-100348559D01*
X89189890Y-100203569D01*
X88938000Y-100152560D01*
X87338000Y-100152560D01*
X87102683Y-100196838D01*
X86886559Y-100335910D01*
X86741569Y-100548110D01*
X86720320Y-100653041D01*
X86451923Y-100384176D01*
X85924691Y-100165250D01*
X85353813Y-100164752D01*
X84826200Y-100382757D01*
X84422176Y-100786077D01*
X84203250Y-101313309D01*
X84202752Y-101884187D01*
X83690752Y-101884187D01*
X83691248Y-101315813D01*
X83473243Y-100788200D01*
X83069923Y-100384176D01*
X82542691Y-100165250D01*
X81971813Y-100164752D01*
X81444200Y-100382757D01*
X81175417Y-100651072D01*
X81159162Y-100564683D01*
X81020090Y-100348559D01*
X80807890Y-100203569D01*
X80556000Y-100152560D01*
X78956000Y-100152560D01*
X78720683Y-100196838D01*
X78504559Y-100335910D01*
X78359569Y-100548110D01*
X78308560Y-100800000D01*
X78180000Y-100800000D01*
X78180000Y-91725659D01*
X78198330Y-91817810D01*
X78556222Y-92353433D01*
X79091845Y-92711325D01*
X79723655Y-92837000D01*
X79788345Y-92837000D01*
X80420155Y-92711325D01*
X80722962Y-92508996D01*
X80815910Y-92653441D01*
X81028110Y-92798431D01*
X81280000Y-92849440D01*
X83312000Y-92849440D01*
X83547317Y-92805162D01*
X83763441Y-92666090D01*
X83908431Y-92453890D01*
X83959440Y-92202000D01*
X83959440Y-90170000D01*
X83915162Y-89934683D01*
X83776090Y-89718559D01*
X83563890Y-89573569D01*
X83312000Y-89522560D01*
X81280000Y-89522560D01*
X81044683Y-89566838D01*
X80828559Y-89705910D01*
X80721767Y-89862206D01*
X80420155Y-89660675D01*
X79788345Y-89535000D01*
X79723655Y-89535000D01*
X79091845Y-89660675D01*
X78556222Y-90018567D01*
X78198330Y-90554190D01*
X78180000Y-90646341D01*
X78180000Y-88900000D01*
X89925907Y-88900000D01*
X90038946Y-89468285D01*
X90360853Y-89950054D01*
X90690026Y-90170000D01*
X90360853Y-90389946D01*
X90038946Y-90871715D01*
X89925907Y-91440000D01*
X90038946Y-92008285D01*
X90360853Y-92490054D01*
X90690026Y-92710000D01*
X90360853Y-92929946D01*
X90038946Y-93411715D01*
X89925907Y-93980000D01*
X90038946Y-94548285D01*
X90360853Y-95030054D01*
X90402452Y-95057850D01*
X90354683Y-95066838D01*
X90138559Y-95205910D01*
X89993569Y-95418110D01*
X89942560Y-95670000D01*
X89942560Y-97370000D01*
X89986838Y-97605317D01*
X90125910Y-97821441D01*
X90338110Y-97966431D01*
X90590000Y-98017440D01*
X92290000Y-98017440D01*
X92525317Y-97973162D01*
X92741441Y-97834090D01*
X92886431Y-97621890D01*
X92937440Y-97370000D01*
X92937440Y-97154936D01*
X93191189Y-97534698D01*
X93595703Y-97804986D01*
X93378866Y-97907611D01*
X93002959Y-98322577D01*
X92842096Y-98710961D01*
X92964085Y-98933000D01*
X94107000Y-98933000D01*
X94107000Y-98913000D01*
X94361000Y-98913000D01*
X94361000Y-98933000D01*
X95503915Y-98933000D01*
X95625904Y-98710961D01*
X95465041Y-98322577D01*
X95089134Y-97907611D01*
X94872297Y-97804986D01*
X95276811Y-97534698D01*
X95587880Y-97069151D01*
X95697113Y-96520000D01*
X95587880Y-95970849D01*
X95276811Y-95505302D01*
X94894725Y-95250000D01*
X95276811Y-94994698D01*
X95587880Y-94529151D01*
X95697113Y-93980000D01*
X95587880Y-93430849D01*
X95276811Y-92965302D01*
X94894725Y-92710000D01*
X95276811Y-92454698D01*
X95587880Y-91989151D01*
X95697113Y-91440000D01*
X95587880Y-90890849D01*
X95276811Y-90425302D01*
X94894725Y-90170000D01*
X95276811Y-89914698D01*
X95587880Y-89449151D01*
X95697113Y-88900000D01*
X95587880Y-88350849D01*
X95276811Y-87885302D01*
X94894725Y-87630000D01*
X95276811Y-87374698D01*
X95446995Y-87120000D01*
X96266000Y-87120000D01*
X96556839Y-87062148D01*
X96803401Y-86897401D01*
X99851401Y-83849401D01*
X100016148Y-83602839D01*
X100074000Y-83312000D01*
X100074000Y-77784802D01*
X103184802Y-74674000D01*
X117094000Y-74674000D01*
X117384839Y-74616148D01*
X117631401Y-74451401D01*
X118139401Y-73943401D01*
X118304147Y-73696840D01*
X118304148Y-73696839D01*
X118362000Y-73406000D01*
X118362000Y-72083331D01*
X121389273Y-72083331D01*
X121615236Y-72552663D01*
X122003604Y-72899797D01*
X122348671Y-73042716D01*
X122555000Y-72919374D01*
X122555000Y-71877000D01*
X122809000Y-71877000D01*
X122809000Y-72919374D01*
X123015329Y-73042716D01*
X123360396Y-72899797D01*
X123748764Y-72552663D01*
X123974727Y-72083331D01*
X123852206Y-71877000D01*
X122809000Y-71877000D01*
X122555000Y-71877000D01*
X121511794Y-71877000D01*
X121389273Y-72083331D01*
X118362000Y-72083331D01*
X118362000Y-71580992D01*
X118769433Y-71308754D01*
X119127325Y-70773131D01*
X119253000Y-70141321D01*
X119253000Y-70114383D01*
X121346769Y-70114383D01*
X121549582Y-70605229D01*
X121761017Y-70817034D01*
X121615236Y-70947337D01*
X121389273Y-71416669D01*
X121511794Y-71623000D01*
X122555000Y-71623000D01*
X122555000Y-71603000D01*
X122809000Y-71603000D01*
X122809000Y-71623000D01*
X123852206Y-71623000D01*
X123974727Y-71416669D01*
X123748764Y-70947337D01*
X123602940Y-70816996D01*
X123813098Y-70607204D01*
X124016768Y-70116713D01*
X124017231Y-69585617D01*
X123814418Y-69094771D01*
X123439204Y-68718902D01*
X122948713Y-68515232D01*
X122417617Y-68514769D01*
X121926771Y-68717582D01*
X121550902Y-69092796D01*
X121347232Y-69583287D01*
X121346769Y-70114383D01*
X119253000Y-70114383D01*
X119253000Y-69558679D01*
X119127325Y-68926869D01*
X118769433Y-68391246D01*
X118233810Y-68033354D01*
X117602000Y-67907679D01*
X116970190Y-68033354D01*
X116434567Y-68391246D01*
X116332000Y-68544748D01*
X116229433Y-68391246D01*
X115693810Y-68033354D01*
X115062000Y-67907679D01*
X114430190Y-68033354D01*
X113894567Y-68391246D01*
X113777946Y-68565781D01*
X113599630Y-68338764D01*
X113036477Y-68022074D01*
X112904944Y-67990025D01*
X112649000Y-68109164D01*
X112649000Y-69723000D01*
X112669000Y-69723000D01*
X112669000Y-69977000D01*
X112649000Y-69977000D01*
X112649000Y-71590836D01*
X112904944Y-71709975D01*
X113036477Y-71677926D01*
X113599630Y-71361236D01*
X113777946Y-71134219D01*
X113894567Y-71308754D01*
X114430190Y-71666646D01*
X115062000Y-71792321D01*
X115693810Y-71666646D01*
X116229433Y-71308754D01*
X116332000Y-71155252D01*
X116434567Y-71308754D01*
X116842000Y-71580992D01*
X116842000Y-73091198D01*
X116779198Y-73154000D01*
X102870000Y-73154000D01*
X102627414Y-73202254D01*
X102579160Y-73211852D01*
X102332599Y-73376599D01*
X98776599Y-76932599D01*
X98611852Y-77179161D01*
X98554000Y-77470000D01*
X98554000Y-82997198D01*
X95951198Y-85600000D01*
X95446995Y-85600000D01*
X95276811Y-85345302D01*
X94894725Y-85090000D01*
X95276811Y-84834698D01*
X95446995Y-84580000D01*
X95758000Y-84580000D01*
X96048839Y-84522148D01*
X96295401Y-84357401D01*
X97819401Y-82833401D01*
X97984148Y-82586840D01*
X97997443Y-82520000D01*
X98042000Y-82296000D01*
X98042000Y-77276802D01*
X102137401Y-73181401D01*
X102302148Y-72934839D01*
X102360000Y-72644000D01*
X102360000Y-72083331D01*
X105133273Y-72083331D01*
X105359236Y-72552663D01*
X105747604Y-72899797D01*
X106092671Y-73042716D01*
X106299000Y-72919374D01*
X106299000Y-71877000D01*
X106553000Y-71877000D01*
X106553000Y-72919374D01*
X106759329Y-73042716D01*
X107104396Y-72899797D01*
X107492764Y-72552663D01*
X107718727Y-72083331D01*
X107596206Y-71877000D01*
X106553000Y-71877000D01*
X106299000Y-71877000D01*
X105255794Y-71877000D01*
X105133273Y-72083331D01*
X102360000Y-72083331D01*
X102360000Y-71580992D01*
X102767433Y-71308754D01*
X103125325Y-70773131D01*
X103251000Y-70141321D01*
X103251000Y-70114383D01*
X105090769Y-70114383D01*
X105293582Y-70605229D01*
X105505017Y-70817034D01*
X105359236Y-70947337D01*
X105133273Y-71416669D01*
X105255794Y-71623000D01*
X106299000Y-71623000D01*
X106299000Y-71603000D01*
X106553000Y-71603000D01*
X106553000Y-71623000D01*
X107596206Y-71623000D01*
X107718727Y-71416669D01*
X107492764Y-70947337D01*
X107346940Y-70816996D01*
X107557098Y-70607204D01*
X107760768Y-70116713D01*
X107760889Y-69977000D01*
X110871000Y-69977000D01*
X110871000Y-70231000D01*
X111045276Y-70853143D01*
X111444370Y-71361236D01*
X112007523Y-71677926D01*
X112139056Y-71709975D01*
X112395000Y-71590836D01*
X112395000Y-69977000D01*
X110871000Y-69977000D01*
X107760889Y-69977000D01*
X107761231Y-69585617D01*
X107713046Y-69469000D01*
X110871000Y-69469000D01*
X110871000Y-69723000D01*
X112395000Y-69723000D01*
X112395000Y-68109164D01*
X112139056Y-67990025D01*
X112007523Y-68022074D01*
X111444370Y-68338764D01*
X111045276Y-68846857D01*
X110871000Y-69469000D01*
X107713046Y-69469000D01*
X107558418Y-69094771D01*
X107183204Y-68718902D01*
X106692713Y-68515232D01*
X106161617Y-68514769D01*
X105670771Y-68717582D01*
X105294902Y-69092796D01*
X105091232Y-69583287D01*
X105090769Y-70114383D01*
X103251000Y-70114383D01*
X103251000Y-69558679D01*
X103125325Y-68926869D01*
X102767433Y-68391246D01*
X102231810Y-68033354D01*
X101600000Y-67907679D01*
X100968190Y-68033354D01*
X100432567Y-68391246D01*
X100330000Y-68544748D01*
X100227433Y-68391246D01*
X99691810Y-68033354D01*
X99060000Y-67907679D01*
X98428190Y-68033354D01*
X97892567Y-68391246D01*
X97775946Y-68565781D01*
X97597630Y-68338764D01*
X97034477Y-68022074D01*
X96902944Y-67990025D01*
X96647000Y-68109164D01*
X96647000Y-69723000D01*
X96667000Y-69723000D01*
X96667000Y-69977000D01*
X96647000Y-69977000D01*
X96647000Y-71590836D01*
X96902944Y-71709975D01*
X97034477Y-71677926D01*
X97597630Y-71361236D01*
X97775946Y-71134219D01*
X97892567Y-71308754D01*
X98428190Y-71666646D01*
X99060000Y-71792321D01*
X99691810Y-71666646D01*
X100227433Y-71308754D01*
X100330000Y-71155252D01*
X100432567Y-71308754D01*
X100840000Y-71580992D01*
X100840000Y-72329198D01*
X96744599Y-76424599D01*
X96579852Y-76671161D01*
X96522000Y-76962000D01*
X96522000Y-81981198D01*
X95445474Y-83057724D01*
X95276811Y-82805302D01*
X94894725Y-82550000D01*
X95276811Y-82294698D01*
X95587880Y-81829151D01*
X95697113Y-81280000D01*
X95587880Y-80730849D01*
X95276811Y-80265302D01*
X94894725Y-80010000D01*
X95276811Y-79754698D01*
X95587880Y-79289151D01*
X95697113Y-78740000D01*
X95587880Y-78190849D01*
X95276811Y-77725302D01*
X94811264Y-77414233D01*
X94262113Y-77305000D01*
X94205887Y-77305000D01*
X93724000Y-77400853D01*
X93724000Y-70866000D01*
X93666148Y-70575161D01*
X93501401Y-70328599D01*
X93149802Y-69977000D01*
X94869000Y-69977000D01*
X94869000Y-70231000D01*
X95043276Y-70853143D01*
X95442370Y-71361236D01*
X96005523Y-71677926D01*
X96137056Y-71709975D01*
X96393000Y-71590836D01*
X96393000Y-69977000D01*
X94869000Y-69977000D01*
X93149802Y-69977000D01*
X92775216Y-69602414D01*
X92775231Y-69585617D01*
X92727046Y-69469000D01*
X94869000Y-69469000D01*
X94869000Y-69723000D01*
X96393000Y-69723000D01*
X96393000Y-68109164D01*
X96137056Y-67990025D01*
X96005523Y-68022074D01*
X95442370Y-68338764D01*
X95043276Y-68846857D01*
X94869000Y-69469000D01*
X92727046Y-69469000D01*
X92572418Y-69094771D01*
X92197204Y-68718902D01*
X91706713Y-68515232D01*
X91175617Y-68514769D01*
X90684771Y-68717582D01*
X90308902Y-69092796D01*
X90105232Y-69583287D01*
X90104769Y-70114383D01*
X90307582Y-70605229D01*
X90519017Y-70817034D01*
X90373236Y-70947337D01*
X90147273Y-71416669D01*
X90269794Y-71623000D01*
X91313000Y-71623000D01*
X91313000Y-71603000D01*
X91567000Y-71603000D01*
X91567000Y-71623000D01*
X91587000Y-71623000D01*
X91587000Y-71877000D01*
X91567000Y-71877000D01*
X91567000Y-72919374D01*
X91773329Y-73042716D01*
X92118396Y-72899797D01*
X92204000Y-72823282D01*
X92204000Y-80010000D01*
X92261852Y-80300839D01*
X92426599Y-80547401D01*
X92835312Y-80956114D01*
X92770887Y-81280000D01*
X92880120Y-81829151D01*
X93191189Y-82294698D01*
X93573275Y-82550000D01*
X93191189Y-82805302D01*
X92880120Y-83270849D01*
X92856234Y-83390932D01*
X92826418Y-83318771D01*
X92451204Y-82942902D01*
X91960713Y-82739232D01*
X91429617Y-82738769D01*
X90938771Y-82941582D01*
X90562902Y-83316796D01*
X90359232Y-83807287D01*
X90358769Y-84338383D01*
X90561582Y-84829229D01*
X90773017Y-85041034D01*
X90627236Y-85171337D01*
X90401273Y-85640669D01*
X90523794Y-85847000D01*
X91567000Y-85847000D01*
X91567000Y-85827000D01*
X91821000Y-85827000D01*
X91821000Y-85847000D01*
X91841000Y-85847000D01*
X91841000Y-86101000D01*
X91821000Y-86101000D01*
X91821000Y-87143374D01*
X92027329Y-87266716D01*
X92372396Y-87123797D01*
X92760764Y-86776663D01*
X92826576Y-86639969D01*
X92880120Y-86909151D01*
X93191189Y-87374698D01*
X93573275Y-87630000D01*
X93191189Y-87885302D01*
X92880120Y-88350849D01*
X92862490Y-88439481D01*
X92841054Y-88331715D01*
X92519147Y-87849946D01*
X92037378Y-87528039D01*
X91469093Y-87415000D01*
X91410907Y-87415000D01*
X90842622Y-87528039D01*
X90360853Y-87849946D01*
X90038946Y-88331715D01*
X89925907Y-88900000D01*
X78180000Y-88900000D01*
X78180000Y-86307331D01*
X90401273Y-86307331D01*
X90627236Y-86776663D01*
X91015604Y-87123797D01*
X91360671Y-87266716D01*
X91567000Y-87143374D01*
X91567000Y-86101000D01*
X90523794Y-86101000D01*
X90401273Y-86307331D01*
X78180000Y-86307331D01*
X78180000Y-84201000D01*
X79883000Y-84201000D01*
X79883000Y-84455000D01*
X80057276Y-85077143D01*
X80456370Y-85585236D01*
X81019523Y-85901926D01*
X81151056Y-85933975D01*
X81407000Y-85814836D01*
X81407000Y-84201000D01*
X79883000Y-84201000D01*
X78180000Y-84201000D01*
X78180000Y-83693000D01*
X79883000Y-83693000D01*
X79883000Y-83947000D01*
X81407000Y-83947000D01*
X81407000Y-82333164D01*
X81661000Y-82333164D01*
X81661000Y-83947000D01*
X81681000Y-83947000D01*
X81681000Y-84201000D01*
X81661000Y-84201000D01*
X81661000Y-85814836D01*
X81916944Y-85933975D01*
X82048477Y-85901926D01*
X82611630Y-85585236D01*
X82789946Y-85358219D01*
X82906567Y-85532754D01*
X83442190Y-85890646D01*
X84074000Y-86016321D01*
X84705810Y-85890646D01*
X85241433Y-85532754D01*
X85344000Y-85379252D01*
X85446567Y-85532754D01*
X85982190Y-85890646D01*
X86614000Y-86016321D01*
X87245810Y-85890646D01*
X87781433Y-85532754D01*
X88139325Y-84997131D01*
X88265000Y-84365321D01*
X88265000Y-83782679D01*
X88139325Y-83150869D01*
X87781433Y-82615246D01*
X87245810Y-82257354D01*
X86614000Y-82131679D01*
X85982190Y-82257354D01*
X85446567Y-82615246D01*
X85344000Y-82768748D01*
X85241433Y-82615246D01*
X84705810Y-82257354D01*
X84074000Y-82131679D01*
X83442190Y-82257354D01*
X82906567Y-82615246D01*
X82789946Y-82789781D01*
X82611630Y-82562764D01*
X82048477Y-82246074D01*
X81916944Y-82214025D01*
X81661000Y-82333164D01*
X81407000Y-82333164D01*
X81151056Y-82214025D01*
X81019523Y-82246074D01*
X80456370Y-82562764D01*
X80057276Y-83070857D01*
X79883000Y-83693000D01*
X78180000Y-83693000D01*
X78180000Y-77539255D01*
X78257400Y-77539255D01*
X78257400Y-77908745D01*
X78371474Y-78482234D01*
X78696330Y-78968415D01*
X79182511Y-79293271D01*
X79756000Y-79407345D01*
X80329489Y-79293271D01*
X80815670Y-78968415D01*
X81026000Y-78653634D01*
X81236330Y-78968415D01*
X81722511Y-79293271D01*
X82296000Y-79407345D01*
X82641360Y-79338649D01*
X82804000Y-79371000D01*
X83142675Y-79303633D01*
X83429790Y-79111790D01*
X83621633Y-78824675D01*
X83635088Y-78757032D01*
X83776330Y-78968415D01*
X84262511Y-79293271D01*
X84836000Y-79407345D01*
X85409489Y-79293271D01*
X85895670Y-78968415D01*
X85905243Y-78954087D01*
X85909238Y-78975317D01*
X86048310Y-79191441D01*
X86260510Y-79336431D01*
X86512400Y-79387440D01*
X88239600Y-79387440D01*
X88474917Y-79343162D01*
X88691041Y-79204090D01*
X88836031Y-78991890D01*
X88887040Y-78740000D01*
X88887040Y-76708000D01*
X88842762Y-76472683D01*
X88703690Y-76256559D01*
X88491490Y-76111569D01*
X88239600Y-76060560D01*
X86512400Y-76060560D01*
X86277083Y-76104838D01*
X86060959Y-76243910D01*
X85915969Y-76456110D01*
X85907600Y-76497439D01*
X85895670Y-76479585D01*
X85409489Y-76154729D01*
X84836000Y-76040655D01*
X84262511Y-76154729D01*
X83776330Y-76479585D01*
X83566000Y-76794366D01*
X83355670Y-76479585D01*
X82869489Y-76154729D01*
X82296000Y-76040655D01*
X81722511Y-76154729D01*
X81236330Y-76479585D01*
X81026000Y-76794366D01*
X80815670Y-76479585D01*
X80329489Y-76154729D01*
X79756000Y-76040655D01*
X79182511Y-76154729D01*
X78696330Y-76479585D01*
X78371474Y-76965766D01*
X78257400Y-77539255D01*
X78180000Y-77539255D01*
X78180000Y-72083331D01*
X90147273Y-72083331D01*
X90373236Y-72552663D01*
X90761604Y-72899797D01*
X91106671Y-73042716D01*
X91313000Y-72919374D01*
X91313000Y-71877000D01*
X90269794Y-71877000D01*
X90147273Y-72083331D01*
X78180000Y-72083331D01*
X78180000Y-69977000D01*
X79883000Y-69977000D01*
X79883000Y-70231000D01*
X80057276Y-70853143D01*
X80456370Y-71361236D01*
X81019523Y-71677926D01*
X81151056Y-71709975D01*
X81407000Y-71590836D01*
X81407000Y-69977000D01*
X79883000Y-69977000D01*
X78180000Y-69977000D01*
X78180000Y-69469000D01*
X79883000Y-69469000D01*
X79883000Y-69723000D01*
X81407000Y-69723000D01*
X81407000Y-68109164D01*
X81661000Y-68109164D01*
X81661000Y-69723000D01*
X81681000Y-69723000D01*
X81681000Y-69977000D01*
X81661000Y-69977000D01*
X81661000Y-71590836D01*
X81916944Y-71709975D01*
X82048477Y-71677926D01*
X82611630Y-71361236D01*
X82789946Y-71134219D01*
X82906567Y-71308754D01*
X83442190Y-71666646D01*
X84074000Y-71792321D01*
X84705810Y-71666646D01*
X85241433Y-71308754D01*
X85344000Y-71155252D01*
X85446567Y-71308754D01*
X85982190Y-71666646D01*
X86614000Y-71792321D01*
X87245810Y-71666646D01*
X87781433Y-71308754D01*
X88139325Y-70773131D01*
X88265000Y-70141321D01*
X88265000Y-69558679D01*
X88139325Y-68926869D01*
X87781433Y-68391246D01*
X87245810Y-68033354D01*
X86614000Y-67907679D01*
X85982190Y-68033354D01*
X85446567Y-68391246D01*
X85344000Y-68544748D01*
X85241433Y-68391246D01*
X84705810Y-68033354D01*
X84074000Y-67907679D01*
X83442190Y-68033354D01*
X82906567Y-68391246D01*
X82789946Y-68565781D01*
X82611630Y-68338764D01*
X82048477Y-68022074D01*
X81916944Y-67990025D01*
X81661000Y-68109164D01*
X81407000Y-68109164D01*
X81151056Y-67990025D01*
X81019523Y-68022074D01*
X80456370Y-68338764D01*
X80057276Y-68846857D01*
X79883000Y-69469000D01*
X78180000Y-69469000D01*
X78180000Y-66750000D01*
X125020000Y-66750000D01*
X125020000Y-79883000D01*
M02*
