G04 #@! TF.FileFunction,Legend,Top*
%FSLAX46Y46*%
G04 Gerber Fmt 4.6, Leading zero omitted, Abs format (unit mm)*
G04 Created by KiCad (PCBNEW 4.0.5) date 02/09/17 22:31:50*
%MOMM*%
%LPD*%
G01*
G04 APERTURE LIST*
%ADD10C,0.100000*%
%ADD11C,0.150000*%
%ADD12C,0.120000*%
%ADD13C,0.152400*%
G04 APERTURE END LIST*
D10*
X133762762Y-105382190D02*
X133477048Y-105382190D01*
X133619905Y-105382190D02*
X133619905Y-104882190D01*
X133572286Y-104953619D01*
X133524667Y-105001238D01*
X133477048Y-105025048D01*
X134191333Y-104882190D02*
X134096095Y-104882190D01*
X134048476Y-104906000D01*
X134024667Y-104929810D01*
X133977048Y-105001238D01*
X133953238Y-105096476D01*
X133953238Y-105286952D01*
X133977048Y-105334571D01*
X134000857Y-105358381D01*
X134048476Y-105382190D01*
X134143714Y-105382190D01*
X134191333Y-105358381D01*
X134215143Y-105334571D01*
X134238952Y-105286952D01*
X134238952Y-105167905D01*
X134215143Y-105120286D01*
X134191333Y-105096476D01*
X134143714Y-105072667D01*
X134048476Y-105072667D01*
X134000857Y-105096476D01*
X133977048Y-105120286D01*
X133953238Y-105167905D01*
X128174762Y-108684190D02*
X127889048Y-108684190D01*
X128031905Y-108684190D02*
X128031905Y-108184190D01*
X127984286Y-108255619D01*
X127936667Y-108303238D01*
X127889048Y-108327048D01*
X128603333Y-108350857D02*
X128603333Y-108684190D01*
X128484286Y-108160381D02*
X128365238Y-108517524D01*
X128674762Y-108517524D01*
X125380762Y-108684190D02*
X125095048Y-108684190D01*
X125237905Y-108684190D02*
X125237905Y-108184190D01*
X125190286Y-108255619D01*
X125142667Y-108303238D01*
X125095048Y-108327048D01*
X125571238Y-108231810D02*
X125595048Y-108208000D01*
X125642667Y-108184190D01*
X125761714Y-108184190D01*
X125809333Y-108208000D01*
X125833143Y-108231810D01*
X125856952Y-108279429D01*
X125856952Y-108327048D01*
X125833143Y-108398476D01*
X125547429Y-108684190D01*
X125856952Y-108684190D01*
X122332762Y-108684190D02*
X122047048Y-108684190D01*
X122189905Y-108684190D02*
X122189905Y-108184190D01*
X122142286Y-108255619D01*
X122094667Y-108303238D01*
X122047048Y-108327048D01*
X122499429Y-108184190D02*
X122808952Y-108184190D01*
X122642286Y-108374667D01*
X122713714Y-108374667D01*
X122761333Y-108398476D01*
X122785143Y-108422286D01*
X122808952Y-108469905D01*
X122808952Y-108588952D01*
X122785143Y-108636571D01*
X122761333Y-108660381D01*
X122713714Y-108684190D01*
X122570857Y-108684190D01*
X122523238Y-108660381D01*
X122499429Y-108636571D01*
X139977906Y-95738190D02*
X140025525Y-95738190D01*
X140073144Y-95762000D01*
X140096953Y-95785810D01*
X140120763Y-95833429D01*
X140144572Y-95928667D01*
X140144572Y-96047714D01*
X140120763Y-96142952D01*
X140096953Y-96190571D01*
X140073144Y-96214381D01*
X140025525Y-96238190D01*
X139977906Y-96238190D01*
X139930287Y-96214381D01*
X139906477Y-96190571D01*
X139882668Y-96142952D01*
X139858858Y-96047714D01*
X139858858Y-95928667D01*
X139882668Y-95833429D01*
X139906477Y-95785810D01*
X139930287Y-95762000D01*
X139977906Y-95738190D01*
X140573143Y-95904857D02*
X140573143Y-96238190D01*
X140454096Y-95714381D02*
X140335048Y-96071524D01*
X140644572Y-96071524D01*
X139977906Y-93198190D02*
X140025525Y-93198190D01*
X140073144Y-93222000D01*
X140096953Y-93245810D01*
X140120763Y-93293429D01*
X140144572Y-93388667D01*
X140144572Y-93507714D01*
X140120763Y-93602952D01*
X140096953Y-93650571D01*
X140073144Y-93674381D01*
X140025525Y-93698190D01*
X139977906Y-93698190D01*
X139930287Y-93674381D01*
X139906477Y-93650571D01*
X139882668Y-93602952D01*
X139858858Y-93507714D01*
X139858858Y-93388667D01*
X139882668Y-93293429D01*
X139906477Y-93245810D01*
X139930287Y-93222000D01*
X139977906Y-93198190D01*
X140596953Y-93198190D02*
X140358858Y-93198190D01*
X140335048Y-93436286D01*
X140358858Y-93412476D01*
X140406477Y-93388667D01*
X140525524Y-93388667D01*
X140573143Y-93412476D01*
X140596953Y-93436286D01*
X140620762Y-93483905D01*
X140620762Y-93602952D01*
X140596953Y-93650571D01*
X140573143Y-93674381D01*
X140525524Y-93698190D01*
X140406477Y-93698190D01*
X140358858Y-93674381D01*
X140335048Y-93650571D01*
X140144572Y-91412190D02*
X139858858Y-91412190D01*
X140001715Y-91412190D02*
X140001715Y-90912190D01*
X139954096Y-90983619D01*
X139906477Y-91031238D01*
X139858858Y-91055048D01*
X140454096Y-90912190D02*
X140501715Y-90912190D01*
X140549334Y-90936000D01*
X140573143Y-90959810D01*
X140596953Y-91007429D01*
X140620762Y-91102667D01*
X140620762Y-91221714D01*
X140596953Y-91316952D01*
X140573143Y-91364571D01*
X140549334Y-91388381D01*
X140501715Y-91412190D01*
X140454096Y-91412190D01*
X140406477Y-91388381D01*
X140382667Y-91364571D01*
X140358858Y-91316952D01*
X140335048Y-91221714D01*
X140335048Y-91102667D01*
X140358858Y-91007429D01*
X140382667Y-90959810D01*
X140406477Y-90936000D01*
X140454096Y-90912190D01*
X139977906Y-87864190D02*
X140025525Y-87864190D01*
X140073144Y-87888000D01*
X140096953Y-87911810D01*
X140120763Y-87959429D01*
X140144572Y-88054667D01*
X140144572Y-88173714D01*
X140120763Y-88268952D01*
X140096953Y-88316571D01*
X140073144Y-88340381D01*
X140025525Y-88364190D01*
X139977906Y-88364190D01*
X139930287Y-88340381D01*
X139906477Y-88316571D01*
X139882668Y-88268952D01*
X139858858Y-88173714D01*
X139858858Y-88054667D01*
X139882668Y-87959429D01*
X139906477Y-87911810D01*
X139930287Y-87888000D01*
X139977906Y-87864190D01*
X140382667Y-88364190D02*
X140477905Y-88364190D01*
X140525524Y-88340381D01*
X140549334Y-88316571D01*
X140596953Y-88245143D01*
X140620762Y-88149905D01*
X140620762Y-87959429D01*
X140596953Y-87911810D01*
X140573143Y-87888000D01*
X140525524Y-87864190D01*
X140430286Y-87864190D01*
X140382667Y-87888000D01*
X140358858Y-87911810D01*
X140335048Y-87959429D01*
X140335048Y-88078476D01*
X140358858Y-88126095D01*
X140382667Y-88149905D01*
X140430286Y-88173714D01*
X140525524Y-88173714D01*
X140573143Y-88149905D01*
X140596953Y-88126095D01*
X140620762Y-88078476D01*
X153178000Y-94920571D02*
X153154190Y-94944381D01*
X153082762Y-94968190D01*
X153035143Y-94968190D01*
X152963714Y-94944381D01*
X152916095Y-94896762D01*
X152892286Y-94849143D01*
X152868476Y-94753905D01*
X152868476Y-94682476D01*
X152892286Y-94587238D01*
X152916095Y-94539619D01*
X152963714Y-94492000D01*
X153035143Y-94468190D01*
X153082762Y-94468190D01*
X153154190Y-94492000D01*
X153178000Y-94515810D01*
X153630381Y-94968190D02*
X153392286Y-94968190D01*
X153392286Y-94468190D01*
X153797048Y-94968190D02*
X153797048Y-94468190D01*
X154082762Y-94968190D02*
X153868476Y-94682476D01*
X154082762Y-94468190D02*
X153797048Y-94753905D01*
X152487524Y-92936190D02*
X152487524Y-92436190D01*
X152654190Y-92793333D01*
X152820857Y-92436190D01*
X152820857Y-92936190D01*
X153154191Y-92436190D02*
X153249429Y-92436190D01*
X153297048Y-92460000D01*
X153344667Y-92507619D01*
X153368476Y-92602857D01*
X153368476Y-92769524D01*
X153344667Y-92864762D01*
X153297048Y-92912381D01*
X153249429Y-92936190D01*
X153154191Y-92936190D01*
X153106572Y-92912381D01*
X153058953Y-92864762D01*
X153035143Y-92769524D01*
X153035143Y-92602857D01*
X153058953Y-92507619D01*
X153106572Y-92460000D01*
X153154191Y-92436190D01*
X153558953Y-92912381D02*
X153630382Y-92936190D01*
X153749429Y-92936190D01*
X153797048Y-92912381D01*
X153820858Y-92888571D01*
X153844667Y-92840952D01*
X153844667Y-92793333D01*
X153820858Y-92745714D01*
X153797048Y-92721905D01*
X153749429Y-92698095D01*
X153654191Y-92674286D01*
X153606572Y-92650476D01*
X153582763Y-92626667D01*
X153558953Y-92579048D01*
X153558953Y-92531429D01*
X153582763Y-92483810D01*
X153606572Y-92460000D01*
X153654191Y-92436190D01*
X153773239Y-92436190D01*
X153844667Y-92460000D01*
X154058953Y-92936190D02*
X154058953Y-92436190D01*
X153606572Y-90904190D02*
X153320858Y-90904190D01*
X153463715Y-90904190D02*
X153463715Y-90404190D01*
X153416096Y-90475619D01*
X153368477Y-90523238D01*
X153320858Y-90547048D01*
X153916096Y-90404190D02*
X153963715Y-90404190D01*
X154011334Y-90428000D01*
X154035143Y-90451810D01*
X154058953Y-90499429D01*
X154082762Y-90594667D01*
X154082762Y-90713714D01*
X154058953Y-90808952D01*
X154035143Y-90856571D01*
X154011334Y-90880381D01*
X153963715Y-90904190D01*
X153916096Y-90904190D01*
X153868477Y-90880381D01*
X153844667Y-90856571D01*
X153820858Y-90808952D01*
X153797048Y-90713714D01*
X153797048Y-90594667D01*
X153820858Y-90499429D01*
X153844667Y-90451810D01*
X153868477Y-90428000D01*
X153916096Y-90404190D01*
X153439906Y-88118190D02*
X153487525Y-88118190D01*
X153535144Y-88142000D01*
X153558953Y-88165810D01*
X153582763Y-88213429D01*
X153606572Y-88308667D01*
X153606572Y-88427714D01*
X153582763Y-88522952D01*
X153558953Y-88570571D01*
X153535144Y-88594381D01*
X153487525Y-88618190D01*
X153439906Y-88618190D01*
X153392287Y-88594381D01*
X153368477Y-88570571D01*
X153344668Y-88522952D01*
X153320858Y-88427714D01*
X153320858Y-88308667D01*
X153344668Y-88213429D01*
X153368477Y-88165810D01*
X153392287Y-88142000D01*
X153439906Y-88118190D01*
X153844667Y-88618190D02*
X153939905Y-88618190D01*
X153987524Y-88594381D01*
X154011334Y-88570571D01*
X154058953Y-88499143D01*
X154082762Y-88403905D01*
X154082762Y-88213429D01*
X154058953Y-88165810D01*
X154035143Y-88142000D01*
X153987524Y-88118190D01*
X153892286Y-88118190D01*
X153844667Y-88142000D01*
X153820858Y-88165810D01*
X153797048Y-88213429D01*
X153797048Y-88332476D01*
X153820858Y-88380095D01*
X153844667Y-88403905D01*
X153892286Y-88427714D01*
X153987524Y-88427714D01*
X154035143Y-88403905D01*
X154058953Y-88380095D01*
X154082762Y-88332476D01*
X152487524Y-86840190D02*
X152487524Y-86340190D01*
X152654190Y-86697333D01*
X152820857Y-86340190D01*
X152820857Y-86840190D01*
X153058953Y-86840190D02*
X153058953Y-86340190D01*
X153273238Y-86816381D02*
X153344667Y-86840190D01*
X153463714Y-86840190D01*
X153511333Y-86816381D01*
X153535143Y-86792571D01*
X153558952Y-86744952D01*
X153558952Y-86697333D01*
X153535143Y-86649714D01*
X153511333Y-86625905D01*
X153463714Y-86602095D01*
X153368476Y-86578286D01*
X153320857Y-86554476D01*
X153297048Y-86530667D01*
X153273238Y-86483048D01*
X153273238Y-86435429D01*
X153297048Y-86387810D01*
X153320857Y-86364000D01*
X153368476Y-86340190D01*
X153487524Y-86340190D01*
X153558952Y-86364000D01*
X153868476Y-86340190D02*
X153963714Y-86340190D01*
X154011333Y-86364000D01*
X154058952Y-86411619D01*
X154082761Y-86506857D01*
X154082761Y-86673524D01*
X154058952Y-86768762D01*
X154011333Y-86816381D01*
X153963714Y-86840190D01*
X153868476Y-86840190D01*
X153820857Y-86816381D01*
X153773238Y-86768762D01*
X153749428Y-86673524D01*
X153749428Y-86506857D01*
X153773238Y-86411619D01*
X153820857Y-86364000D01*
X153868476Y-86340190D01*
X153082762Y-84760571D02*
X153058952Y-84784381D01*
X152987524Y-84808190D01*
X152939905Y-84808190D01*
X152868476Y-84784381D01*
X152820857Y-84736762D01*
X152797048Y-84689143D01*
X152773238Y-84593905D01*
X152773238Y-84522476D01*
X152797048Y-84427238D01*
X152820857Y-84379619D01*
X152868476Y-84332000D01*
X152939905Y-84308190D01*
X152987524Y-84308190D01*
X153058952Y-84332000D01*
X153082762Y-84355810D01*
X153273238Y-84784381D02*
X153344667Y-84808190D01*
X153463714Y-84808190D01*
X153511333Y-84784381D01*
X153535143Y-84760571D01*
X153558952Y-84712952D01*
X153558952Y-84665333D01*
X153535143Y-84617714D01*
X153511333Y-84593905D01*
X153463714Y-84570095D01*
X153368476Y-84546286D01*
X153320857Y-84522476D01*
X153297048Y-84498667D01*
X153273238Y-84451048D01*
X153273238Y-84403429D01*
X153297048Y-84355810D01*
X153320857Y-84332000D01*
X153368476Y-84308190D01*
X153487524Y-84308190D01*
X153558952Y-84332000D01*
X153868476Y-84308190D02*
X153963714Y-84308190D01*
X154011333Y-84332000D01*
X154058952Y-84379619D01*
X154082761Y-84474857D01*
X154082761Y-84641524D01*
X154058952Y-84736762D01*
X154011333Y-84784381D01*
X153963714Y-84808190D01*
X153868476Y-84808190D01*
X153820857Y-84784381D01*
X153773238Y-84736762D01*
X153749428Y-84641524D01*
X153749428Y-84474857D01*
X153773238Y-84379619D01*
X153820857Y-84332000D01*
X153868476Y-84308190D01*
X156487906Y-79482190D02*
X156797429Y-79482190D01*
X156630763Y-79672667D01*
X156702191Y-79672667D01*
X156749810Y-79696476D01*
X156773620Y-79720286D01*
X156797429Y-79767905D01*
X156797429Y-79886952D01*
X156773620Y-79934571D01*
X156749810Y-79958381D01*
X156702191Y-79982190D01*
X156559334Y-79982190D01*
X156511715Y-79958381D01*
X156487906Y-79934571D01*
X157011715Y-79934571D02*
X157035524Y-79958381D01*
X157011715Y-79982190D01*
X156987905Y-79958381D01*
X157011715Y-79934571D01*
X157011715Y-79982190D01*
X157202191Y-79482190D02*
X157511714Y-79482190D01*
X157345048Y-79672667D01*
X157416476Y-79672667D01*
X157464095Y-79696476D01*
X157487905Y-79720286D01*
X157511714Y-79767905D01*
X157511714Y-79886952D01*
X157487905Y-79934571D01*
X157464095Y-79958381D01*
X157416476Y-79982190D01*
X157273619Y-79982190D01*
X157226000Y-79958381D01*
X157202191Y-79934571D01*
X157654571Y-79482190D02*
X157821238Y-79982190D01*
X157987904Y-79482190D01*
X159416762Y-79982190D02*
X159131048Y-79982190D01*
X159273905Y-79982190D02*
X159273905Y-79482190D01*
X159226286Y-79553619D01*
X159178667Y-79601238D01*
X159131048Y-79625048D01*
X159583429Y-79482190D02*
X159892952Y-79482190D01*
X159726286Y-79672667D01*
X159797714Y-79672667D01*
X159845333Y-79696476D01*
X159869143Y-79720286D01*
X159892952Y-79767905D01*
X159892952Y-79886952D01*
X159869143Y-79934571D01*
X159845333Y-79958381D01*
X159797714Y-79982190D01*
X159654857Y-79982190D01*
X159607238Y-79958381D01*
X159583429Y-79934571D01*
X161194762Y-79982190D02*
X160909048Y-79982190D01*
X161051905Y-79982190D02*
X161051905Y-79482190D01*
X161004286Y-79553619D01*
X160956667Y-79601238D01*
X160909048Y-79625048D01*
X161385238Y-79529810D02*
X161409048Y-79506000D01*
X161456667Y-79482190D01*
X161575714Y-79482190D01*
X161623333Y-79506000D01*
X161647143Y-79529810D01*
X161670952Y-79577429D01*
X161670952Y-79625048D01*
X161647143Y-79696476D01*
X161361429Y-79982190D01*
X161670952Y-79982190D01*
X163226762Y-79982190D02*
X162941048Y-79982190D01*
X163083905Y-79982190D02*
X163083905Y-79482190D01*
X163036286Y-79553619D01*
X162988667Y-79601238D01*
X162941048Y-79625048D01*
X163655333Y-79648857D02*
X163655333Y-79982190D01*
X163536286Y-79458381D02*
X163417238Y-79815524D01*
X163726762Y-79815524D01*
X165258762Y-79982190D02*
X164973048Y-79982190D01*
X165115905Y-79982190D02*
X165115905Y-79482190D01*
X165068286Y-79553619D01*
X165020667Y-79601238D01*
X164973048Y-79625048D01*
X165687333Y-79482190D02*
X165592095Y-79482190D01*
X165544476Y-79506000D01*
X165520667Y-79529810D01*
X165473048Y-79601238D01*
X165449238Y-79696476D01*
X165449238Y-79886952D01*
X165473048Y-79934571D01*
X165496857Y-79958381D01*
X165544476Y-79982190D01*
X165639714Y-79982190D01*
X165687333Y-79958381D01*
X165711143Y-79934571D01*
X165734952Y-79886952D01*
X165734952Y-79767905D01*
X165711143Y-79720286D01*
X165687333Y-79696476D01*
X165639714Y-79672667D01*
X165544476Y-79672667D01*
X165496857Y-79696476D01*
X165473048Y-79720286D01*
X165449238Y-79767905D01*
X166747905Y-79898857D02*
X166728857Y-79917905D01*
X166671714Y-79936952D01*
X166633619Y-79936952D01*
X166576476Y-79917905D01*
X166538381Y-79879810D01*
X166519333Y-79841714D01*
X166500285Y-79765524D01*
X166500285Y-79708381D01*
X166519333Y-79632190D01*
X166538381Y-79594095D01*
X166576476Y-79556000D01*
X166633619Y-79536952D01*
X166671714Y-79536952D01*
X166728857Y-79556000D01*
X166747905Y-79575048D01*
X166919333Y-79936952D02*
X166919333Y-79536952D01*
X166919333Y-79727429D02*
X167147905Y-79727429D01*
X167147905Y-79936952D02*
X167147905Y-79536952D01*
X167243143Y-79975048D02*
X167547905Y-79975048D01*
X167643143Y-79936952D02*
X167643143Y-79536952D01*
X167795524Y-79536952D01*
X167833619Y-79556000D01*
X167852667Y-79575048D01*
X167871715Y-79613143D01*
X167871715Y-79670286D01*
X167852667Y-79708381D01*
X167833619Y-79727429D01*
X167795524Y-79746476D01*
X167643143Y-79746476D01*
X168043143Y-79936952D02*
X168043143Y-79536952D01*
X168138381Y-79536952D01*
X168195524Y-79556000D01*
X168233619Y-79594095D01*
X168252667Y-79632190D01*
X168271715Y-79708381D01*
X168271715Y-79765524D01*
X168252667Y-79841714D01*
X168233619Y-79879810D01*
X168195524Y-79917905D01*
X168138381Y-79936952D01*
X168043143Y-79936952D01*
X168798953Y-79839333D02*
X169037048Y-79839333D01*
X168751334Y-79982190D02*
X168918001Y-79482190D01*
X169084667Y-79982190D01*
X169251334Y-79982190D02*
X169251334Y-79482190D01*
X169370381Y-79482190D01*
X169441810Y-79506000D01*
X169489429Y-79553619D01*
X169513238Y-79601238D01*
X169537048Y-79696476D01*
X169537048Y-79767905D01*
X169513238Y-79863143D01*
X169489429Y-79910762D01*
X169441810Y-79958381D01*
X169370381Y-79982190D01*
X169251334Y-79982190D01*
X170037048Y-79934571D02*
X170013238Y-79958381D01*
X169941810Y-79982190D01*
X169894191Y-79982190D01*
X169822762Y-79958381D01*
X169775143Y-79910762D01*
X169751334Y-79863143D01*
X169727524Y-79767905D01*
X169727524Y-79696476D01*
X169751334Y-79601238D01*
X169775143Y-79553619D01*
X169822762Y-79506000D01*
X169894191Y-79482190D01*
X169941810Y-79482190D01*
X170013238Y-79506000D01*
X170037048Y-79529810D01*
X171176191Y-79982190D02*
X171009524Y-79744095D01*
X170890477Y-79982190D02*
X170890477Y-79482190D01*
X171080953Y-79482190D01*
X171128572Y-79506000D01*
X171152381Y-79529810D01*
X171176191Y-79577429D01*
X171176191Y-79648857D01*
X171152381Y-79696476D01*
X171128572Y-79720286D01*
X171080953Y-79744095D01*
X170890477Y-79744095D01*
X171366667Y-79958381D02*
X171438096Y-79982190D01*
X171557143Y-79982190D01*
X171604762Y-79958381D01*
X171628572Y-79934571D01*
X171652381Y-79886952D01*
X171652381Y-79839333D01*
X171628572Y-79791714D01*
X171604762Y-79767905D01*
X171557143Y-79744095D01*
X171461905Y-79720286D01*
X171414286Y-79696476D01*
X171390477Y-79672667D01*
X171366667Y-79625048D01*
X171366667Y-79577429D01*
X171390477Y-79529810D01*
X171414286Y-79506000D01*
X171461905Y-79482190D01*
X171580953Y-79482190D01*
X171652381Y-79506000D01*
X171795238Y-79482190D02*
X172080952Y-79482190D01*
X171938095Y-79982190D02*
X171938095Y-79482190D01*
X157860953Y-99564000D02*
X157908572Y-99587810D01*
X157980000Y-99587810D01*
X158051429Y-99564000D01*
X158099048Y-99516381D01*
X158122857Y-99468762D01*
X158146667Y-99373524D01*
X158146667Y-99302095D01*
X158122857Y-99206857D01*
X158099048Y-99159238D01*
X158051429Y-99111619D01*
X157980000Y-99087810D01*
X157932381Y-99087810D01*
X157860953Y-99111619D01*
X157837143Y-99135429D01*
X157837143Y-99302095D01*
X157932381Y-99302095D01*
X157622857Y-99087810D02*
X157622857Y-99587810D01*
X157337143Y-99087810D01*
X157337143Y-99587810D01*
X157099047Y-99087810D02*
X157099047Y-99587810D01*
X156980000Y-99587810D01*
X156908571Y-99564000D01*
X156860952Y-99516381D01*
X156837143Y-99468762D01*
X156813333Y-99373524D01*
X156813333Y-99302095D01*
X156837143Y-99206857D01*
X156860952Y-99159238D01*
X156908571Y-99111619D01*
X156980000Y-99087810D01*
X157099047Y-99087810D01*
X159607238Y-99087810D02*
X159892952Y-99087810D01*
X159750095Y-99087810D02*
X159750095Y-99587810D01*
X159797714Y-99516381D01*
X159845333Y-99468762D01*
X159892952Y-99444952D01*
X159154857Y-99587810D02*
X159392952Y-99587810D01*
X159416762Y-99349714D01*
X159392952Y-99373524D01*
X159345333Y-99397333D01*
X159226286Y-99397333D01*
X159178667Y-99373524D01*
X159154857Y-99349714D01*
X159131048Y-99302095D01*
X159131048Y-99183048D01*
X159154857Y-99135429D01*
X159178667Y-99111619D01*
X159226286Y-99087810D01*
X159345333Y-99087810D01*
X159392952Y-99111619D01*
X159416762Y-99135429D01*
X161805904Y-99587810D02*
X161758285Y-99587810D01*
X161710666Y-99564000D01*
X161686857Y-99540190D01*
X161663047Y-99492571D01*
X161639238Y-99397333D01*
X161639238Y-99278286D01*
X161663047Y-99183048D01*
X161686857Y-99135429D01*
X161710666Y-99111619D01*
X161758285Y-99087810D01*
X161805904Y-99087810D01*
X161853523Y-99111619D01*
X161877333Y-99135429D01*
X161901142Y-99183048D01*
X161924952Y-99278286D01*
X161924952Y-99397333D01*
X161901142Y-99492571D01*
X161877333Y-99540190D01*
X161853523Y-99564000D01*
X161805904Y-99587810D01*
X161448762Y-99540190D02*
X161424952Y-99564000D01*
X161377333Y-99587810D01*
X161258286Y-99587810D01*
X161210667Y-99564000D01*
X161186857Y-99540190D01*
X161163048Y-99492571D01*
X161163048Y-99444952D01*
X161186857Y-99373524D01*
X161472571Y-99087810D01*
X161163048Y-99087810D01*
X163837904Y-99587810D02*
X163790285Y-99587810D01*
X163742666Y-99564000D01*
X163718857Y-99540190D01*
X163695047Y-99492571D01*
X163671238Y-99397333D01*
X163671238Y-99278286D01*
X163695047Y-99183048D01*
X163718857Y-99135429D01*
X163742666Y-99111619D01*
X163790285Y-99087810D01*
X163837904Y-99087810D01*
X163885523Y-99111619D01*
X163909333Y-99135429D01*
X163933142Y-99183048D01*
X163956952Y-99278286D01*
X163956952Y-99397333D01*
X163933142Y-99492571D01*
X163909333Y-99540190D01*
X163885523Y-99564000D01*
X163837904Y-99587810D01*
X163361714Y-99587810D02*
X163314095Y-99587810D01*
X163266476Y-99564000D01*
X163242667Y-99540190D01*
X163218857Y-99492571D01*
X163195048Y-99397333D01*
X163195048Y-99278286D01*
X163218857Y-99183048D01*
X163242667Y-99135429D01*
X163266476Y-99111619D01*
X163314095Y-99087810D01*
X163361714Y-99087810D01*
X163409333Y-99111619D01*
X163433143Y-99135429D01*
X163456952Y-99183048D01*
X163480762Y-99278286D01*
X163480762Y-99397333D01*
X163456952Y-99492571D01*
X163433143Y-99540190D01*
X163409333Y-99564000D01*
X163361714Y-99587810D01*
X165869904Y-99587810D02*
X165822285Y-99587810D01*
X165774666Y-99564000D01*
X165750857Y-99540190D01*
X165727047Y-99492571D01*
X165703238Y-99397333D01*
X165703238Y-99278286D01*
X165727047Y-99183048D01*
X165750857Y-99135429D01*
X165774666Y-99111619D01*
X165822285Y-99087810D01*
X165869904Y-99087810D01*
X165917523Y-99111619D01*
X165941333Y-99135429D01*
X165965142Y-99183048D01*
X165988952Y-99278286D01*
X165988952Y-99397333D01*
X165965142Y-99492571D01*
X165941333Y-99540190D01*
X165917523Y-99564000D01*
X165869904Y-99587810D01*
X165274667Y-99421143D02*
X165274667Y-99087810D01*
X165393714Y-99611619D02*
X165512762Y-99254476D01*
X165203238Y-99254476D01*
X167647904Y-99587810D02*
X167600285Y-99587810D01*
X167552666Y-99564000D01*
X167528857Y-99540190D01*
X167505047Y-99492571D01*
X167481238Y-99397333D01*
X167481238Y-99278286D01*
X167505047Y-99183048D01*
X167528857Y-99135429D01*
X167552666Y-99111619D01*
X167600285Y-99087810D01*
X167647904Y-99087810D01*
X167695523Y-99111619D01*
X167719333Y-99135429D01*
X167743142Y-99183048D01*
X167766952Y-99278286D01*
X167766952Y-99397333D01*
X167743142Y-99492571D01*
X167719333Y-99540190D01*
X167695523Y-99564000D01*
X167647904Y-99587810D01*
X167028857Y-99587810D02*
X167266952Y-99587810D01*
X167290762Y-99349714D01*
X167266952Y-99373524D01*
X167219333Y-99397333D01*
X167100286Y-99397333D01*
X167052667Y-99373524D01*
X167028857Y-99349714D01*
X167005048Y-99302095D01*
X167005048Y-99183048D01*
X167028857Y-99135429D01*
X167052667Y-99111619D01*
X167100286Y-99087810D01*
X167219333Y-99087810D01*
X167266952Y-99111619D01*
X167290762Y-99135429D01*
X169501333Y-99087810D02*
X169668000Y-99325905D01*
X169787047Y-99087810D02*
X169787047Y-99587810D01*
X169596571Y-99587810D01*
X169548952Y-99564000D01*
X169525143Y-99540190D01*
X169501333Y-99492571D01*
X169501333Y-99421143D01*
X169525143Y-99373524D01*
X169548952Y-99349714D01*
X169596571Y-99325905D01*
X169787047Y-99325905D01*
X169334666Y-99587810D02*
X169001333Y-99087810D01*
X169001333Y-99587810D02*
X169334666Y-99087810D01*
X171830952Y-99587810D02*
X171545238Y-99587810D01*
X171688095Y-99087810D02*
X171688095Y-99587810D01*
X171426190Y-99587810D02*
X171092857Y-99087810D01*
X171092857Y-99587810D02*
X171426190Y-99087810D01*
X173208190Y-101980952D02*
X173208190Y-101695238D01*
X173708190Y-101838095D02*
X173208190Y-101838095D01*
X173208190Y-101576190D02*
X173708190Y-101242857D01*
X173208190Y-101242857D02*
X173708190Y-101576190D01*
X173708190Y-104223333D02*
X173470095Y-104390000D01*
X173708190Y-104509047D02*
X173208190Y-104509047D01*
X173208190Y-104318571D01*
X173232000Y-104270952D01*
X173255810Y-104247143D01*
X173303429Y-104223333D01*
X173374857Y-104223333D01*
X173422476Y-104247143D01*
X173446286Y-104270952D01*
X173470095Y-104318571D01*
X173470095Y-104509047D01*
X173208190Y-104056666D02*
X173708190Y-103723333D01*
X173208190Y-103723333D02*
X173708190Y-104056666D01*
X173232000Y-107060953D02*
X173208190Y-107108572D01*
X173208190Y-107180000D01*
X173232000Y-107251429D01*
X173279619Y-107299048D01*
X173327238Y-107322857D01*
X173422476Y-107346667D01*
X173493905Y-107346667D01*
X173589143Y-107322857D01*
X173636762Y-107299048D01*
X173684381Y-107251429D01*
X173708190Y-107180000D01*
X173708190Y-107132381D01*
X173684381Y-107060953D01*
X173660571Y-107037143D01*
X173493905Y-107037143D01*
X173493905Y-107132381D01*
X173708190Y-106822857D02*
X173208190Y-106822857D01*
X173708190Y-106537143D01*
X173208190Y-106537143D01*
X173708190Y-106299047D02*
X173208190Y-106299047D01*
X173208190Y-106180000D01*
X173232000Y-106108571D01*
X173279619Y-106060952D01*
X173327238Y-106037143D01*
X173422476Y-106013333D01*
X173493905Y-106013333D01*
X173589143Y-106037143D01*
X173636762Y-106060952D01*
X173684381Y-106108571D01*
X173708190Y-106180000D01*
X173708190Y-106299047D01*
X173208190Y-109958094D02*
X173208190Y-109648571D01*
X173398667Y-109815237D01*
X173398667Y-109743809D01*
X173422476Y-109696190D01*
X173446286Y-109672380D01*
X173493905Y-109648571D01*
X173612952Y-109648571D01*
X173660571Y-109672380D01*
X173684381Y-109696190D01*
X173708190Y-109743809D01*
X173708190Y-109886666D01*
X173684381Y-109934285D01*
X173660571Y-109958094D01*
X173660571Y-109434285D02*
X173684381Y-109410476D01*
X173708190Y-109434285D01*
X173684381Y-109458095D01*
X173660571Y-109434285D01*
X173708190Y-109434285D01*
X173208190Y-109243809D02*
X173208190Y-108934286D01*
X173398667Y-109100952D01*
X173398667Y-109029524D01*
X173422476Y-108981905D01*
X173446286Y-108958095D01*
X173493905Y-108934286D01*
X173612952Y-108934286D01*
X173660571Y-108958095D01*
X173684381Y-108981905D01*
X173708190Y-109029524D01*
X173708190Y-109172381D01*
X173684381Y-109220000D01*
X173660571Y-109243809D01*
X173208190Y-108791429D02*
X173708190Y-108624762D01*
X173208190Y-108458096D01*
X141605047Y-110240000D02*
X141557428Y-110216190D01*
X141486000Y-110216190D01*
X141414571Y-110240000D01*
X141366952Y-110287619D01*
X141343143Y-110335238D01*
X141319333Y-110430476D01*
X141319333Y-110501905D01*
X141343143Y-110597143D01*
X141366952Y-110644762D01*
X141414571Y-110692381D01*
X141486000Y-110716190D01*
X141533619Y-110716190D01*
X141605047Y-110692381D01*
X141628857Y-110668571D01*
X141628857Y-110501905D01*
X141533619Y-110501905D01*
X141843143Y-110716190D02*
X141843143Y-110216190D01*
X142128857Y-110716190D01*
X142128857Y-110216190D01*
X142366953Y-110716190D02*
X142366953Y-110216190D01*
X142486000Y-110216190D01*
X142557429Y-110240000D01*
X142605048Y-110287619D01*
X142628857Y-110335238D01*
X142652667Y-110430476D01*
X142652667Y-110501905D01*
X142628857Y-110597143D01*
X142605048Y-110644762D01*
X142557429Y-110692381D01*
X142486000Y-110716190D01*
X142366953Y-110716190D01*
X133231049Y-109763714D02*
X133612001Y-109763714D01*
X133421525Y-109954190D02*
X133421525Y-109573238D01*
X134112001Y-109954190D02*
X133826287Y-109954190D01*
X133969144Y-109954190D02*
X133969144Y-109454190D01*
X133921525Y-109525619D01*
X133873906Y-109573238D01*
X133826287Y-109597048D01*
X134302477Y-109501810D02*
X134326287Y-109478000D01*
X134373906Y-109454190D01*
X134492953Y-109454190D01*
X134540572Y-109478000D01*
X134564382Y-109501810D01*
X134588191Y-109549429D01*
X134588191Y-109597048D01*
X134564382Y-109668476D01*
X134278668Y-109954190D01*
X134588191Y-109954190D01*
X134731048Y-109454190D02*
X134897715Y-109954190D01*
X135064381Y-109454190D01*
X135263049Y-105445714D02*
X135644001Y-105445714D01*
X135453525Y-105636190D02*
X135453525Y-105255238D01*
X136144001Y-105636190D02*
X135858287Y-105636190D01*
X136001144Y-105636190D02*
X136001144Y-105136190D01*
X135953525Y-105207619D01*
X135905906Y-105255238D01*
X135858287Y-105279048D01*
X136334477Y-105183810D02*
X136358287Y-105160000D01*
X136405906Y-105136190D01*
X136524953Y-105136190D01*
X136572572Y-105160000D01*
X136596382Y-105183810D01*
X136620191Y-105231429D01*
X136620191Y-105279048D01*
X136596382Y-105350476D01*
X136310668Y-105636190D01*
X136620191Y-105636190D01*
X136763048Y-105136190D02*
X136929715Y-105636190D01*
X137096381Y-105136190D01*
X136338667Y-112748190D02*
X136052953Y-112748190D01*
X136195810Y-112748190D02*
X136195810Y-112248190D01*
X136148191Y-112319619D01*
X136100572Y-112367238D01*
X136052953Y-112391048D01*
X136529143Y-112295810D02*
X136552953Y-112272000D01*
X136600572Y-112248190D01*
X136719619Y-112248190D01*
X136767238Y-112272000D01*
X136791048Y-112295810D01*
X136814857Y-112343429D01*
X136814857Y-112391048D01*
X136791048Y-112462476D01*
X136505334Y-112748190D01*
X136814857Y-112748190D01*
X136957714Y-112248190D02*
X137124381Y-112748190D01*
X137291047Y-112248190D01*
X137838666Y-112748190D02*
X137838666Y-112248190D01*
X138076761Y-112748190D02*
X138076761Y-112248190D01*
X138362475Y-112748190D01*
X138362475Y-112248190D01*
X138600571Y-112748190D02*
X138600571Y-112248190D01*
X138791047Y-112248190D01*
X138838666Y-112272000D01*
X138862475Y-112295810D01*
X138886285Y-112343429D01*
X138886285Y-112414857D01*
X138862475Y-112462476D01*
X138838666Y-112486286D01*
X138791047Y-112510095D01*
X138600571Y-112510095D01*
X139100571Y-112248190D02*
X139100571Y-112652952D01*
X139124380Y-112700571D01*
X139148190Y-112724381D01*
X139195809Y-112748190D01*
X139291047Y-112748190D01*
X139338666Y-112724381D01*
X139362475Y-112700571D01*
X139386285Y-112652952D01*
X139386285Y-112248190D01*
X139552952Y-112248190D02*
X139838666Y-112248190D01*
X139695809Y-112748190D02*
X139695809Y-112248190D01*
D11*
X160615714Y-89844571D02*
X160949048Y-89844571D01*
X161091905Y-90368381D02*
X160615714Y-90368381D01*
X160615714Y-89368381D01*
X161091905Y-89368381D01*
X161472857Y-90320762D02*
X161615714Y-90368381D01*
X161853810Y-90368381D01*
X161949048Y-90320762D01*
X161996667Y-90273143D01*
X162044286Y-90177905D01*
X162044286Y-90082667D01*
X161996667Y-89987429D01*
X161949048Y-89939810D01*
X161853810Y-89892190D01*
X161663333Y-89844571D01*
X161568095Y-89796952D01*
X161520476Y-89749333D01*
X161472857Y-89654095D01*
X161472857Y-89558857D01*
X161520476Y-89463619D01*
X161568095Y-89416000D01*
X161663333Y-89368381D01*
X161901429Y-89368381D01*
X162044286Y-89416000D01*
X162472857Y-90368381D02*
X162472857Y-89368381D01*
X162853810Y-89368381D01*
X162949048Y-89416000D01*
X162996667Y-89463619D01*
X163044286Y-89558857D01*
X163044286Y-89701714D01*
X162996667Y-89796952D01*
X162949048Y-89844571D01*
X162853810Y-89892190D01*
X162472857Y-89892190D01*
X163472857Y-89987429D02*
X164234762Y-89987429D01*
X165234762Y-90368381D02*
X164663333Y-90368381D01*
X164949047Y-90368381D02*
X164949047Y-89368381D01*
X164853809Y-89511238D01*
X164758571Y-89606476D01*
X164663333Y-89654095D01*
X165615714Y-89463619D02*
X165663333Y-89416000D01*
X165758571Y-89368381D01*
X165996667Y-89368381D01*
X166091905Y-89416000D01*
X166139524Y-89463619D01*
X166187143Y-89558857D01*
X166187143Y-89654095D01*
X166139524Y-89796952D01*
X165568095Y-90368381D01*
X166187143Y-90368381D01*
X166615714Y-89844571D02*
X166949048Y-89844571D01*
X167091905Y-90368381D02*
X166615714Y-90368381D01*
X166615714Y-89368381D01*
X167091905Y-89368381D01*
D10*
X145756381Y-95606667D02*
X145756381Y-94940000D01*
X146756381Y-95368572D01*
X146089714Y-94130476D02*
X146756381Y-94130476D01*
X145708762Y-94368572D02*
X146423048Y-94606667D01*
X146423048Y-93987619D01*
X146756381Y-93606667D02*
X145756381Y-93606667D01*
X146232571Y-93606667D02*
X146232571Y-93035238D01*
X146756381Y-93035238D02*
X145756381Y-93035238D01*
X146661143Y-91987619D02*
X146708762Y-92035238D01*
X146756381Y-92178095D01*
X146756381Y-92273333D01*
X146708762Y-92416191D01*
X146613524Y-92511429D01*
X146518286Y-92559048D01*
X146327810Y-92606667D01*
X146184952Y-92606667D01*
X145994476Y-92559048D01*
X145899238Y-92511429D01*
X145804000Y-92416191D01*
X145756381Y-92273333D01*
X145756381Y-92178095D01*
X145804000Y-92035238D01*
X145851619Y-91987619D01*
X145756381Y-91701905D02*
X145756381Y-91130476D01*
X146756381Y-91416191D02*
X145756381Y-91416191D01*
X145851619Y-90844762D02*
X145804000Y-90797143D01*
X145756381Y-90701905D01*
X145756381Y-90463809D01*
X145804000Y-90368571D01*
X145851619Y-90320952D01*
X145946857Y-90273333D01*
X146042095Y-90273333D01*
X146184952Y-90320952D01*
X146756381Y-90892381D01*
X146756381Y-90273333D01*
X146089714Y-89416190D02*
X146756381Y-89416190D01*
X145708762Y-89654286D02*
X146423048Y-89892381D01*
X146423048Y-89273333D01*
X145756381Y-88416190D02*
X145756381Y-88892381D01*
X146232571Y-88940000D01*
X146184952Y-88892381D01*
X146137333Y-88797143D01*
X146137333Y-88559047D01*
X146184952Y-88463809D01*
X146232571Y-88416190D01*
X146327810Y-88368571D01*
X146565905Y-88368571D01*
X146661143Y-88416190D01*
X146708762Y-88463809D01*
X146756381Y-88559047D01*
X146756381Y-88797143D01*
X146708762Y-88892381D01*
X146661143Y-88940000D01*
X146756381Y-87940000D02*
X145756381Y-87940000D01*
X146756381Y-87368571D01*
X145756381Y-87368571D01*
X129766190Y-102913619D02*
X129766190Y-103199333D01*
X129766190Y-103056476D02*
X129266190Y-103056476D01*
X129337619Y-103104095D01*
X129385238Y-103151714D01*
X129409048Y-103199333D01*
X129266190Y-102604095D02*
X129266190Y-102556476D01*
X129290000Y-102508857D01*
X129313810Y-102485048D01*
X129361429Y-102461238D01*
X129456667Y-102437429D01*
X129575714Y-102437429D01*
X129670952Y-102461238D01*
X129718571Y-102485048D01*
X129742381Y-102508857D01*
X129766190Y-102556476D01*
X129766190Y-102604095D01*
X129742381Y-102651714D01*
X129718571Y-102675524D01*
X129670952Y-102699333D01*
X129575714Y-102723143D01*
X129456667Y-102723143D01*
X129361429Y-102699333D01*
X129313810Y-102675524D01*
X129290000Y-102651714D01*
X129266190Y-102604095D01*
X129766190Y-102223143D02*
X129266190Y-102223143D01*
X129575714Y-102175524D02*
X129766190Y-102032667D01*
X129432857Y-102032667D02*
X129623333Y-102223143D01*
X129512190Y-95039619D02*
X129512190Y-95325333D01*
X129512190Y-95182476D02*
X129012190Y-95182476D01*
X129083619Y-95230095D01*
X129131238Y-95277714D01*
X129155048Y-95325333D01*
X129012190Y-94730095D02*
X129012190Y-94682476D01*
X129036000Y-94634857D01*
X129059810Y-94611048D01*
X129107429Y-94587238D01*
X129202667Y-94563429D01*
X129321714Y-94563429D01*
X129416952Y-94587238D01*
X129464571Y-94611048D01*
X129488381Y-94634857D01*
X129512190Y-94682476D01*
X129512190Y-94730095D01*
X129488381Y-94777714D01*
X129464571Y-94801524D01*
X129416952Y-94825333D01*
X129321714Y-94849143D01*
X129202667Y-94849143D01*
X129107429Y-94825333D01*
X129059810Y-94801524D01*
X129036000Y-94777714D01*
X129012190Y-94730095D01*
X129512190Y-94349143D02*
X129012190Y-94349143D01*
X129321714Y-94301524D02*
X129512190Y-94158667D01*
X129178857Y-94158667D02*
X129369333Y-94349143D01*
X129512190Y-87673619D02*
X129512190Y-87959333D01*
X129512190Y-87816476D02*
X129012190Y-87816476D01*
X129083619Y-87864095D01*
X129131238Y-87911714D01*
X129155048Y-87959333D01*
X129012190Y-87364095D02*
X129012190Y-87316476D01*
X129036000Y-87268857D01*
X129059810Y-87245048D01*
X129107429Y-87221238D01*
X129202667Y-87197429D01*
X129321714Y-87197429D01*
X129416952Y-87221238D01*
X129464571Y-87245048D01*
X129488381Y-87268857D01*
X129512190Y-87316476D01*
X129512190Y-87364095D01*
X129488381Y-87411714D01*
X129464571Y-87435524D01*
X129416952Y-87459333D01*
X129321714Y-87483143D01*
X129202667Y-87483143D01*
X129107429Y-87459333D01*
X129059810Y-87435524D01*
X129036000Y-87411714D01*
X129012190Y-87364095D01*
X129512190Y-86983143D02*
X129012190Y-86983143D01*
X129321714Y-86935524D02*
X129512190Y-86792667D01*
X129178857Y-86792667D02*
X129369333Y-86983143D01*
X129512190Y-80053619D02*
X129512190Y-80339333D01*
X129512190Y-80196476D02*
X129012190Y-80196476D01*
X129083619Y-80244095D01*
X129131238Y-80291714D01*
X129155048Y-80339333D01*
X129012190Y-79744095D02*
X129012190Y-79696476D01*
X129036000Y-79648857D01*
X129059810Y-79625048D01*
X129107429Y-79601238D01*
X129202667Y-79577429D01*
X129321714Y-79577429D01*
X129416952Y-79601238D01*
X129464571Y-79625048D01*
X129488381Y-79648857D01*
X129512190Y-79696476D01*
X129512190Y-79744095D01*
X129488381Y-79791714D01*
X129464571Y-79815524D01*
X129416952Y-79839333D01*
X129321714Y-79863143D01*
X129202667Y-79863143D01*
X129107429Y-79839333D01*
X129059810Y-79815524D01*
X129036000Y-79791714D01*
X129012190Y-79744095D01*
X129512190Y-79363143D02*
X129012190Y-79363143D01*
X129321714Y-79315524D02*
X129512190Y-79172667D01*
X129178857Y-79172667D02*
X129369333Y-79363143D01*
X169628381Y-76934190D02*
X169342667Y-76934190D01*
X169485524Y-76934190D02*
X169485524Y-76434190D01*
X169437905Y-76505619D01*
X169390286Y-76553238D01*
X169342667Y-76577048D01*
X169937905Y-76434190D02*
X169985524Y-76434190D01*
X170033143Y-76458000D01*
X170056952Y-76481810D01*
X170080762Y-76529429D01*
X170104571Y-76624667D01*
X170104571Y-76743714D01*
X170080762Y-76838952D01*
X170056952Y-76886571D01*
X170033143Y-76910381D01*
X169985524Y-76934190D01*
X169937905Y-76934190D01*
X169890286Y-76910381D01*
X169866476Y-76886571D01*
X169842667Y-76838952D01*
X169818857Y-76743714D01*
X169818857Y-76624667D01*
X169842667Y-76529429D01*
X169866476Y-76481810D01*
X169890286Y-76458000D01*
X169937905Y-76434190D01*
X170318857Y-76934190D02*
X170318857Y-76434190D01*
X170366476Y-76743714D02*
X170509333Y-76934190D01*
X170509333Y-76600857D02*
X170318857Y-76791333D01*
X164056190Y-102151619D02*
X164056190Y-102437333D01*
X164056190Y-102294476D02*
X163556190Y-102294476D01*
X163627619Y-102342095D01*
X163675238Y-102389714D01*
X163699048Y-102437333D01*
X163556190Y-101842095D02*
X163556190Y-101794476D01*
X163580000Y-101746857D01*
X163603810Y-101723048D01*
X163651429Y-101699238D01*
X163746667Y-101675429D01*
X163865714Y-101675429D01*
X163960952Y-101699238D01*
X164008571Y-101723048D01*
X164032381Y-101746857D01*
X164056190Y-101794476D01*
X164056190Y-101842095D01*
X164032381Y-101889714D01*
X164008571Y-101913524D01*
X163960952Y-101937333D01*
X163865714Y-101961143D01*
X163746667Y-101961143D01*
X163651429Y-101937333D01*
X163603810Y-101913524D01*
X163580000Y-101889714D01*
X163556190Y-101842095D01*
X164056190Y-101461143D02*
X163556190Y-101461143D01*
X163865714Y-101413524D02*
X164056190Y-101270667D01*
X163722857Y-101270667D02*
X163913333Y-101461143D01*
X167866190Y-102405619D02*
X167866190Y-102691333D01*
X167866190Y-102548476D02*
X167366190Y-102548476D01*
X167437619Y-102596095D01*
X167485238Y-102643714D01*
X167509048Y-102691333D01*
X167366190Y-102096095D02*
X167366190Y-102048476D01*
X167390000Y-102000857D01*
X167413810Y-101977048D01*
X167461429Y-101953238D01*
X167556667Y-101929429D01*
X167675714Y-101929429D01*
X167770952Y-101953238D01*
X167818571Y-101977048D01*
X167842381Y-102000857D01*
X167866190Y-102048476D01*
X167866190Y-102096095D01*
X167842381Y-102143714D01*
X167818571Y-102167524D01*
X167770952Y-102191333D01*
X167675714Y-102215143D01*
X167556667Y-102215143D01*
X167461429Y-102191333D01*
X167413810Y-102167524D01*
X167390000Y-102143714D01*
X167366190Y-102096095D01*
X167866190Y-101715143D02*
X167366190Y-101715143D01*
X167675714Y-101667524D02*
X167866190Y-101524667D01*
X167532857Y-101524667D02*
X167723333Y-101715143D01*
X169644190Y-106802762D02*
X169144190Y-106802762D01*
X169144190Y-106612286D01*
X169168000Y-106564667D01*
X169191810Y-106540858D01*
X169239429Y-106517048D01*
X169310857Y-106517048D01*
X169358476Y-106540858D01*
X169382286Y-106564667D01*
X169406095Y-106612286D01*
X169406095Y-106802762D01*
X169644190Y-106302762D02*
X169310857Y-106302762D01*
X169406095Y-106302762D02*
X169358476Y-106278953D01*
X169334667Y-106255143D01*
X169310857Y-106207524D01*
X169310857Y-106159905D01*
X169644190Y-105921810D02*
X169620381Y-105969429D01*
X169596571Y-105993238D01*
X169548952Y-106017048D01*
X169406095Y-106017048D01*
X169358476Y-105993238D01*
X169334667Y-105969429D01*
X169310857Y-105921810D01*
X169310857Y-105850381D01*
X169334667Y-105802762D01*
X169358476Y-105778953D01*
X169406095Y-105755143D01*
X169548952Y-105755143D01*
X169596571Y-105778953D01*
X169620381Y-105802762D01*
X169644190Y-105850381D01*
X169644190Y-105921810D01*
X169310857Y-105326572D02*
X169715619Y-105326572D01*
X169763238Y-105350381D01*
X169787048Y-105374191D01*
X169810857Y-105421810D01*
X169810857Y-105493238D01*
X169787048Y-105540857D01*
X169620381Y-105326572D02*
X169644190Y-105374191D01*
X169644190Y-105469429D01*
X169620381Y-105517048D01*
X169596571Y-105540857D01*
X169548952Y-105564667D01*
X169406095Y-105564667D01*
X169358476Y-105540857D01*
X169334667Y-105517048D01*
X169310857Y-105469429D01*
X169310857Y-105374191D01*
X169334667Y-105326572D01*
X169644190Y-105088476D02*
X169310857Y-105088476D01*
X169406095Y-105088476D02*
X169358476Y-105064667D01*
X169334667Y-105040857D01*
X169310857Y-104993238D01*
X169310857Y-104945619D01*
X169644190Y-104564667D02*
X169382286Y-104564667D01*
X169334667Y-104588476D01*
X169310857Y-104636095D01*
X169310857Y-104731333D01*
X169334667Y-104778952D01*
X169620381Y-104564667D02*
X169644190Y-104612286D01*
X169644190Y-104731333D01*
X169620381Y-104778952D01*
X169572762Y-104802762D01*
X169525143Y-104802762D01*
X169477524Y-104778952D01*
X169453714Y-104731333D01*
X169453714Y-104612286D01*
X169429905Y-104564667D01*
X169644190Y-104326571D02*
X169310857Y-104326571D01*
X169358476Y-104326571D02*
X169334667Y-104302762D01*
X169310857Y-104255143D01*
X169310857Y-104183714D01*
X169334667Y-104136095D01*
X169382286Y-104112286D01*
X169644190Y-104112286D01*
X169382286Y-104112286D02*
X169334667Y-104088476D01*
X169310857Y-104040857D01*
X169310857Y-103969429D01*
X169334667Y-103921809D01*
X169382286Y-103898000D01*
X169644190Y-103898000D01*
X169644190Y-103659904D02*
X169310857Y-103659904D01*
X169358476Y-103659904D02*
X169334667Y-103636095D01*
X169310857Y-103588476D01*
X169310857Y-103517047D01*
X169334667Y-103469428D01*
X169382286Y-103445619D01*
X169644190Y-103445619D01*
X169382286Y-103445619D02*
X169334667Y-103421809D01*
X169310857Y-103374190D01*
X169310857Y-103302762D01*
X169334667Y-103255142D01*
X169382286Y-103231333D01*
X169644190Y-103231333D01*
X169620381Y-102802761D02*
X169644190Y-102850380D01*
X169644190Y-102945618D01*
X169620381Y-102993237D01*
X169572762Y-103017047D01*
X169382286Y-103017047D01*
X169334667Y-102993237D01*
X169310857Y-102945618D01*
X169310857Y-102850380D01*
X169334667Y-102802761D01*
X169382286Y-102778952D01*
X169429905Y-102778952D01*
X169477524Y-103017047D01*
X169644190Y-102564666D02*
X169310857Y-102564666D01*
X169406095Y-102564666D02*
X169358476Y-102540857D01*
X169334667Y-102517047D01*
X169310857Y-102469428D01*
X169310857Y-102421809D01*
X163238488Y-107414190D02*
X163300988Y-106914190D01*
X163491464Y-106914190D01*
X163536107Y-106938000D01*
X163556940Y-106961810D01*
X163574797Y-107009429D01*
X163565869Y-107080857D01*
X163536107Y-107128476D01*
X163509321Y-107152286D01*
X163458726Y-107176095D01*
X163268250Y-107176095D01*
X163738488Y-107414190D02*
X163780155Y-107080857D01*
X163768250Y-107176095D02*
X163798012Y-107128476D01*
X163824798Y-107104667D01*
X163875393Y-107080857D01*
X163923012Y-107080857D01*
X164119440Y-107414190D02*
X164074797Y-107390381D01*
X164053965Y-107366571D01*
X164036107Y-107318952D01*
X164053964Y-107176095D01*
X164083727Y-107128476D01*
X164110512Y-107104667D01*
X164161107Y-107080857D01*
X164232536Y-107080857D01*
X164277179Y-107104667D01*
X164298012Y-107128476D01*
X164315869Y-107176095D01*
X164298012Y-107318952D01*
X164268250Y-107366571D01*
X164241464Y-107390381D01*
X164190869Y-107414190D01*
X164119440Y-107414190D01*
X164756345Y-107080857D02*
X164705750Y-107485619D01*
X164675988Y-107533238D01*
X164649202Y-107557048D01*
X164598607Y-107580857D01*
X164527179Y-107580857D01*
X164482536Y-107557048D01*
X164717654Y-107390381D02*
X164667059Y-107414190D01*
X164571821Y-107414190D01*
X164527178Y-107390381D01*
X164506346Y-107366571D01*
X164488488Y-107318952D01*
X164506345Y-107176095D01*
X164536108Y-107128476D01*
X164562893Y-107104667D01*
X164613488Y-107080857D01*
X164708726Y-107080857D01*
X164753369Y-107104667D01*
X164952774Y-107414190D02*
X164994441Y-107080857D01*
X164982536Y-107176095D02*
X165012298Y-107128476D01*
X165039084Y-107104667D01*
X165089679Y-107080857D01*
X165137298Y-107080857D01*
X165476583Y-107414190D02*
X165509321Y-107152286D01*
X165491465Y-107104667D01*
X165446822Y-107080857D01*
X165351584Y-107080857D01*
X165300989Y-107104667D01*
X165479559Y-107390381D02*
X165428964Y-107414190D01*
X165309917Y-107414190D01*
X165265274Y-107390381D01*
X165247417Y-107342762D01*
X165253369Y-107295143D01*
X165283132Y-107247524D01*
X165333727Y-107223714D01*
X165452774Y-107223714D01*
X165503369Y-107199905D01*
X165714679Y-107414190D02*
X165756346Y-107080857D01*
X165750394Y-107128476D02*
X165777179Y-107104667D01*
X165827774Y-107080857D01*
X165899203Y-107080857D01*
X165943846Y-107104667D01*
X165961702Y-107152286D01*
X165928964Y-107414190D01*
X165961702Y-107152286D02*
X165991465Y-107104667D01*
X166042060Y-107080857D01*
X166113488Y-107080857D01*
X166158132Y-107104667D01*
X166175988Y-107152286D01*
X166143250Y-107414190D01*
X166762298Y-107414190D02*
X166824798Y-106914190D01*
X166946821Y-107271333D01*
X167158131Y-106914190D01*
X167095631Y-107414190D01*
X167405155Y-107414190D02*
X167360512Y-107390381D01*
X167339680Y-107366571D01*
X167321822Y-107318952D01*
X167339679Y-107176095D01*
X167369442Y-107128476D01*
X167396227Y-107104667D01*
X167446822Y-107080857D01*
X167518251Y-107080857D01*
X167562894Y-107104667D01*
X167583727Y-107128476D01*
X167601584Y-107176095D01*
X167583727Y-107318952D01*
X167553965Y-107366571D01*
X167527179Y-107390381D01*
X167476584Y-107414190D01*
X167405155Y-107414190D01*
X168000393Y-107414190D02*
X168062893Y-106914190D01*
X168003369Y-107390381D02*
X167952774Y-107414190D01*
X167857536Y-107414190D01*
X167812893Y-107390381D01*
X167792061Y-107366571D01*
X167774203Y-107318952D01*
X167792060Y-107176095D01*
X167821823Y-107128476D01*
X167848608Y-107104667D01*
X167899203Y-107080857D01*
X167994441Y-107080857D01*
X168039084Y-107104667D01*
X168431941Y-107390381D02*
X168381346Y-107414190D01*
X168286108Y-107414190D01*
X168241465Y-107390381D01*
X168223608Y-107342762D01*
X168247417Y-107152286D01*
X168277180Y-107104667D01*
X168327775Y-107080857D01*
X168423013Y-107080857D01*
X168467656Y-107104667D01*
X168485512Y-107152286D01*
X168479560Y-107199905D01*
X168235513Y-107247524D01*
X136124190Y-92892380D02*
X136124190Y-93130475D01*
X136362286Y-93154285D01*
X136338476Y-93130475D01*
X136314667Y-93082856D01*
X136314667Y-92963809D01*
X136338476Y-92916190D01*
X136362286Y-92892380D01*
X136409905Y-92868571D01*
X136528952Y-92868571D01*
X136576571Y-92892380D01*
X136600381Y-92916190D01*
X136624190Y-92963809D01*
X136624190Y-93082856D01*
X136600381Y-93130475D01*
X136576571Y-93154285D01*
X136124190Y-92725714D02*
X136624190Y-92559047D01*
X136124190Y-92392381D01*
X136600381Y-91868572D02*
X136624190Y-91797143D01*
X136624190Y-91678096D01*
X136600381Y-91630477D01*
X136576571Y-91606667D01*
X136528952Y-91582858D01*
X136481333Y-91582858D01*
X136433714Y-91606667D01*
X136409905Y-91630477D01*
X136386095Y-91678096D01*
X136362286Y-91773334D01*
X136338476Y-91820953D01*
X136314667Y-91844762D01*
X136267048Y-91868572D01*
X136219429Y-91868572D01*
X136171810Y-91844762D01*
X136148000Y-91820953D01*
X136124190Y-91773334D01*
X136124190Y-91654286D01*
X136148000Y-91582858D01*
X136624190Y-91368572D02*
X136290857Y-91368572D01*
X136124190Y-91368572D02*
X136148000Y-91392382D01*
X136171810Y-91368572D01*
X136148000Y-91344763D01*
X136124190Y-91368572D01*
X136171810Y-91368572D01*
X136290857Y-90916192D02*
X136695619Y-90916192D01*
X136743238Y-90940001D01*
X136767048Y-90963811D01*
X136790857Y-91011430D01*
X136790857Y-91082858D01*
X136767048Y-91130477D01*
X136600381Y-90916192D02*
X136624190Y-90963811D01*
X136624190Y-91059049D01*
X136600381Y-91106668D01*
X136576571Y-91130477D01*
X136528952Y-91154287D01*
X136386095Y-91154287D01*
X136338476Y-91130477D01*
X136314667Y-91106668D01*
X136290857Y-91059049D01*
X136290857Y-90963811D01*
X136314667Y-90916192D01*
X136290857Y-90678096D02*
X136624190Y-90678096D01*
X136338476Y-90678096D02*
X136314667Y-90654287D01*
X136290857Y-90606668D01*
X136290857Y-90535239D01*
X136314667Y-90487620D01*
X136362286Y-90463811D01*
X136624190Y-90463811D01*
X136624190Y-90011430D02*
X136362286Y-90011430D01*
X136314667Y-90035239D01*
X136290857Y-90082858D01*
X136290857Y-90178096D01*
X136314667Y-90225715D01*
X136600381Y-90011430D02*
X136624190Y-90059049D01*
X136624190Y-90178096D01*
X136600381Y-90225715D01*
X136552762Y-90249525D01*
X136505143Y-90249525D01*
X136457524Y-90225715D01*
X136433714Y-90178096D01*
X136433714Y-90059049D01*
X136409905Y-90011430D01*
X136624190Y-89701906D02*
X136600381Y-89749525D01*
X136552762Y-89773334D01*
X136124190Y-89773334D01*
X149927811Y-103866190D02*
X150237334Y-103866190D01*
X150070668Y-104056667D01*
X150142096Y-104056667D01*
X150189715Y-104080476D01*
X150213525Y-104104286D01*
X150237334Y-104151905D01*
X150237334Y-104270952D01*
X150213525Y-104318571D01*
X150189715Y-104342381D01*
X150142096Y-104366190D01*
X149999239Y-104366190D01*
X149951620Y-104342381D01*
X149927811Y-104318571D01*
X150451620Y-104318571D02*
X150475429Y-104342381D01*
X150451620Y-104366190D01*
X150427810Y-104342381D01*
X150451620Y-104318571D01*
X150451620Y-104366190D01*
X150642096Y-103866190D02*
X150951619Y-103866190D01*
X150784953Y-104056667D01*
X150856381Y-104056667D01*
X150904000Y-104080476D01*
X150927810Y-104104286D01*
X150951619Y-104151905D01*
X150951619Y-104270952D01*
X150927810Y-104318571D01*
X150904000Y-104342381D01*
X150856381Y-104366190D01*
X150713524Y-104366190D01*
X150665905Y-104342381D01*
X150642096Y-104318571D01*
X151094476Y-103866190D02*
X151261143Y-104366190D01*
X151427809Y-103866190D01*
X152261142Y-104366190D02*
X152094475Y-104128095D01*
X151975428Y-104366190D02*
X151975428Y-103866190D01*
X152165904Y-103866190D01*
X152213523Y-103890000D01*
X152237332Y-103913810D01*
X152261142Y-103961429D01*
X152261142Y-104032857D01*
X152237332Y-104080476D01*
X152213523Y-104104286D01*
X152165904Y-104128095D01*
X151975428Y-104128095D01*
X152665904Y-104342381D02*
X152618285Y-104366190D01*
X152523047Y-104366190D01*
X152475428Y-104342381D01*
X152451618Y-104294762D01*
X152451618Y-104104286D01*
X152475428Y-104056667D01*
X152523047Y-104032857D01*
X152618285Y-104032857D01*
X152665904Y-104056667D01*
X152689713Y-104104286D01*
X152689713Y-104151905D01*
X152451618Y-104199524D01*
X153118284Y-104032857D02*
X153118284Y-104437619D01*
X153094475Y-104485238D01*
X153070665Y-104509048D01*
X153023046Y-104532857D01*
X152951618Y-104532857D01*
X152903999Y-104509048D01*
X153118284Y-104342381D02*
X153070665Y-104366190D01*
X152975427Y-104366190D01*
X152927808Y-104342381D01*
X152903999Y-104318571D01*
X152880189Y-104270952D01*
X152880189Y-104128095D01*
X152903999Y-104080476D01*
X152927808Y-104056667D01*
X152975427Y-104032857D01*
X153070665Y-104032857D01*
X153118284Y-104056667D01*
X153570665Y-104032857D02*
X153570665Y-104366190D01*
X153356380Y-104032857D02*
X153356380Y-104294762D01*
X153380189Y-104342381D01*
X153427808Y-104366190D01*
X153499237Y-104366190D01*
X153546856Y-104342381D01*
X153570665Y-104318571D01*
X153880189Y-104366190D02*
X153832570Y-104342381D01*
X153808761Y-104294762D01*
X153808761Y-103866190D01*
X154284951Y-104366190D02*
X154284951Y-104104286D01*
X154261142Y-104056667D01*
X154213523Y-104032857D01*
X154118285Y-104032857D01*
X154070666Y-104056667D01*
X154284951Y-104342381D02*
X154237332Y-104366190D01*
X154118285Y-104366190D01*
X154070666Y-104342381D01*
X154046856Y-104294762D01*
X154046856Y-104247143D01*
X154070666Y-104199524D01*
X154118285Y-104175714D01*
X154237332Y-104175714D01*
X154284951Y-104151905D01*
X154451618Y-104032857D02*
X154642094Y-104032857D01*
X154523047Y-103866190D02*
X154523047Y-104294762D01*
X154546856Y-104342381D01*
X154594475Y-104366190D01*
X154642094Y-104366190D01*
X154880189Y-104366190D02*
X154832570Y-104342381D01*
X154808761Y-104318571D01*
X154784951Y-104270952D01*
X154784951Y-104128095D01*
X154808761Y-104080476D01*
X154832570Y-104056667D01*
X154880189Y-104032857D01*
X154951618Y-104032857D01*
X154999237Y-104056667D01*
X155023046Y-104080476D01*
X155046856Y-104128095D01*
X155046856Y-104270952D01*
X155023046Y-104318571D01*
X154999237Y-104342381D01*
X154951618Y-104366190D01*
X154880189Y-104366190D01*
X155261142Y-104366190D02*
X155261142Y-104032857D01*
X155261142Y-104128095D02*
X155284951Y-104080476D01*
X155308761Y-104056667D01*
X155356380Y-104032857D01*
X155403999Y-104032857D01*
X142663275Y-108692190D02*
X142996608Y-108692190D01*
X142719822Y-109192190D01*
X143231727Y-108906476D02*
X143187084Y-108882667D01*
X143166251Y-108858857D01*
X143148393Y-108811238D01*
X143151369Y-108787429D01*
X143181132Y-108739810D01*
X143207917Y-108716000D01*
X143258512Y-108692190D01*
X143353750Y-108692190D01*
X143398393Y-108716000D01*
X143419227Y-108739810D01*
X143437083Y-108787429D01*
X143434107Y-108811238D01*
X143404346Y-108858857D01*
X143377560Y-108882667D01*
X143326965Y-108906476D01*
X143231727Y-108906476D01*
X143181131Y-108930286D01*
X143154346Y-108954095D01*
X143124584Y-109001714D01*
X143112679Y-109096952D01*
X143130537Y-109144571D01*
X143151369Y-109168381D01*
X143196012Y-109192190D01*
X143291250Y-109192190D01*
X143341845Y-109168381D01*
X143368632Y-109144571D01*
X143398393Y-109096952D01*
X143410298Y-109001714D01*
X143392441Y-108954095D01*
X143371607Y-108930286D01*
X143326965Y-108906476D01*
X143758512Y-108692190D02*
X143806131Y-108692190D01*
X143850774Y-108716000D01*
X143871607Y-108739810D01*
X143889464Y-108787429D01*
X143901369Y-108882667D01*
X143886488Y-109001714D01*
X143850774Y-109096952D01*
X143821012Y-109144571D01*
X143794226Y-109168381D01*
X143743631Y-109192190D01*
X143696012Y-109192190D01*
X143651369Y-109168381D01*
X143630536Y-109144571D01*
X143612679Y-109096952D01*
X143600774Y-109001714D01*
X143615655Y-108882667D01*
X143651369Y-108787429D01*
X143681131Y-108739810D01*
X143707917Y-108716000D01*
X143758512Y-108692190D01*
X144377559Y-108692190D02*
X144139464Y-108692190D01*
X144085892Y-108930286D01*
X144112679Y-108906476D01*
X144163274Y-108882667D01*
X144282321Y-108882667D01*
X144326964Y-108906476D01*
X144347797Y-108930286D01*
X144365654Y-108977905D01*
X144350773Y-109096952D01*
X144321012Y-109144571D01*
X144294225Y-109168381D01*
X144243630Y-109192190D01*
X144124583Y-109192190D01*
X144079940Y-109168381D01*
X144059107Y-109144571D01*
X131797085Y-104120190D02*
X131853632Y-104620190D01*
X131993513Y-104263048D01*
X132044108Y-104620190D01*
X132225656Y-104120190D01*
X132353633Y-104620190D02*
X132416133Y-104120190D01*
X132567918Y-104620190D02*
X132600656Y-104358286D01*
X132582800Y-104310667D01*
X132538157Y-104286857D01*
X132466728Y-104286857D01*
X132416133Y-104310667D01*
X132389348Y-104334476D01*
X132806014Y-104620190D02*
X132847681Y-104286857D01*
X132868514Y-104120190D02*
X132841728Y-104144000D01*
X132862562Y-104167810D01*
X132889347Y-104144000D01*
X132868514Y-104120190D01*
X132862562Y-104167810D01*
X133014347Y-104286857D02*
X133204823Y-104286857D01*
X133106609Y-104120190D02*
X133053038Y-104548762D01*
X133070894Y-104596381D01*
X133115537Y-104620190D01*
X133163156Y-104620190D01*
X133523275Y-104596381D02*
X133472680Y-104620190D01*
X133377442Y-104620190D01*
X133332799Y-104596381D01*
X133314942Y-104548762D01*
X133338751Y-104358286D01*
X133368514Y-104310667D01*
X133419109Y-104286857D01*
X133514347Y-104286857D01*
X133558990Y-104310667D01*
X133576846Y-104358286D01*
X133570894Y-104405905D01*
X133326847Y-104453524D01*
X134377441Y-104620190D02*
X134139346Y-104620190D01*
X134201846Y-104120190D01*
X134576846Y-104358286D02*
X134743512Y-104358286D01*
X134782203Y-104620190D02*
X134544108Y-104620190D01*
X134606608Y-104120190D01*
X134844703Y-104120190D01*
X134996489Y-104620190D02*
X135058989Y-104120190D01*
X135178036Y-104120190D01*
X135246489Y-104144000D01*
X135288156Y-104191619D01*
X135306012Y-104239238D01*
X135317918Y-104334476D01*
X135308989Y-104405905D01*
X135273274Y-104501143D01*
X135243513Y-104548762D01*
X135189941Y-104596381D01*
X135115536Y-104620190D01*
X134996489Y-104620190D01*
X135856607Y-104596381D02*
X135925060Y-104620190D01*
X136044107Y-104620190D01*
X136094702Y-104596381D01*
X136121489Y-104572571D01*
X136151250Y-104524952D01*
X136157202Y-104477333D01*
X136139346Y-104429714D01*
X136118512Y-104405905D01*
X136073869Y-104382095D01*
X135981607Y-104358286D01*
X135936965Y-104334476D01*
X135916132Y-104310667D01*
X135898274Y-104263048D01*
X135904226Y-104215429D01*
X135933989Y-104167810D01*
X135960774Y-104144000D01*
X136011369Y-104120190D01*
X136130417Y-104120190D01*
X136198869Y-104144000D01*
X136323869Y-104286857D02*
X136514345Y-104286857D01*
X136416131Y-104120190D02*
X136362560Y-104548762D01*
X136380416Y-104596381D01*
X136425059Y-104620190D01*
X136472678Y-104620190D01*
X136639345Y-104620190D02*
X136681012Y-104286857D01*
X136669107Y-104382095D02*
X136698869Y-104334476D01*
X136725655Y-104310667D01*
X136776250Y-104286857D01*
X136823869Y-104286857D01*
X136948869Y-104620190D02*
X136990536Y-104286857D01*
X137011369Y-104120190D02*
X136984583Y-104144000D01*
X137005417Y-104167810D01*
X137032202Y-104144000D01*
X137011369Y-104120190D01*
X137005417Y-104167810D01*
X137228631Y-104286857D02*
X137166131Y-104786857D01*
X137225655Y-104310667D02*
X137276250Y-104286857D01*
X137371488Y-104286857D01*
X137416131Y-104310667D01*
X137436964Y-104334476D01*
X137454821Y-104382095D01*
X137436964Y-104524952D01*
X137407202Y-104572571D01*
X137380416Y-104596381D01*
X137329821Y-104620190D01*
X137234583Y-104620190D01*
X137189940Y-104596381D01*
X123760418Y-107758667D02*
X123568750Y-107425333D01*
X123360418Y-107758667D02*
X123447918Y-107058667D01*
X123714584Y-107058667D01*
X123777084Y-107092000D01*
X123806250Y-107125333D01*
X123831251Y-107192000D01*
X123818751Y-107292000D01*
X123777084Y-107358667D01*
X123739584Y-107392000D01*
X123668750Y-107425333D01*
X123402084Y-107425333D01*
X124510417Y-107092000D02*
X124447918Y-107058667D01*
X124347918Y-107058667D01*
X124243751Y-107092000D01*
X124168751Y-107158667D01*
X124127084Y-107225333D01*
X124077084Y-107358667D01*
X124064584Y-107458667D01*
X124081251Y-107592000D01*
X124106251Y-107658667D01*
X124164584Y-107725333D01*
X124260418Y-107758667D01*
X124327084Y-107758667D01*
X124431250Y-107725333D01*
X124468751Y-107692000D01*
X124497918Y-107458667D01*
X124364584Y-107458667D01*
X125039584Y-107392000D02*
X125135417Y-107425333D01*
X125164584Y-107458667D01*
X125189584Y-107525333D01*
X125177084Y-107625333D01*
X125135417Y-107692000D01*
X125097917Y-107725333D01*
X125027084Y-107758667D01*
X124760418Y-107758667D01*
X124847918Y-107058667D01*
X125081251Y-107058667D01*
X125143751Y-107092000D01*
X125172917Y-107125333D01*
X125197917Y-107192000D01*
X125189584Y-107258667D01*
X125147917Y-107325333D01*
X125110418Y-107358667D01*
X125039584Y-107392000D01*
X124806251Y-107392000D01*
X126327084Y-107758667D02*
X125993751Y-107758667D01*
X126081251Y-107058667D01*
X126606251Y-107392000D02*
X126839584Y-107392000D01*
X126893751Y-107758667D02*
X126560418Y-107758667D01*
X126647918Y-107058667D01*
X126981251Y-107058667D01*
X127193751Y-107758667D02*
X127281251Y-107058667D01*
X127447917Y-107058667D01*
X127543750Y-107092000D01*
X127602084Y-107158667D01*
X127627083Y-107225333D01*
X127643751Y-107358667D01*
X127631251Y-107458667D01*
X127581250Y-107592000D01*
X127539584Y-107658667D01*
X127464583Y-107725333D01*
X127360417Y-107758667D01*
X127193751Y-107758667D01*
X128397916Y-107725333D02*
X128493750Y-107758667D01*
X128660417Y-107758667D01*
X128731250Y-107725333D01*
X128768750Y-107692000D01*
X128810416Y-107625333D01*
X128818750Y-107558667D01*
X128793750Y-107492000D01*
X128764584Y-107458667D01*
X128702083Y-107425333D01*
X128572917Y-107392000D01*
X128510417Y-107358667D01*
X128481250Y-107325333D01*
X128456250Y-107258667D01*
X128464583Y-107192000D01*
X128506250Y-107125333D01*
X128543750Y-107092000D01*
X128614584Y-107058667D01*
X128781250Y-107058667D01*
X128877083Y-107092000D01*
X129052084Y-107292000D02*
X129318750Y-107292000D01*
X129181251Y-107058667D02*
X129106251Y-107658667D01*
X129131250Y-107725333D01*
X129193751Y-107758667D01*
X129260417Y-107758667D01*
X129493751Y-107758667D02*
X129552084Y-107292000D01*
X129535417Y-107425333D02*
X129577084Y-107358667D01*
X129614583Y-107325333D01*
X129685417Y-107292000D01*
X129752084Y-107292000D01*
X129927084Y-107758667D02*
X129985417Y-107292000D01*
X130014584Y-107058667D02*
X129977083Y-107092000D01*
X130006250Y-107125333D01*
X130043750Y-107092000D01*
X130014584Y-107058667D01*
X130006250Y-107125333D01*
X130318750Y-107292000D02*
X130231250Y-107992000D01*
X130314583Y-107325333D02*
X130385416Y-107292000D01*
X130518750Y-107292000D01*
X130581249Y-107325333D01*
X130610417Y-107358667D01*
X130635416Y-107425333D01*
X130610416Y-107625333D01*
X130568750Y-107692000D01*
X130531249Y-107725333D01*
X130460417Y-107758667D01*
X130327083Y-107758667D01*
X130264583Y-107725333D01*
X121559049Y-105636190D02*
X121559049Y-105136190D01*
X122082858Y-105636190D02*
X121916191Y-105398095D01*
X121797144Y-105636190D02*
X121797144Y-105136190D01*
X121987620Y-105136190D01*
X122035239Y-105160000D01*
X122059048Y-105183810D01*
X122082858Y-105231429D01*
X122082858Y-105302857D01*
X122059048Y-105350476D01*
X122035239Y-105374286D01*
X121987620Y-105398095D01*
X121797144Y-105398095D01*
X122463810Y-105374286D02*
X122297144Y-105374286D01*
X122297144Y-105636190D02*
X122297144Y-105136190D01*
X122535239Y-105136190D01*
X123344762Y-105136190D02*
X123106667Y-105136190D01*
X123082857Y-105374286D01*
X123106667Y-105350476D01*
X123154286Y-105326667D01*
X123273333Y-105326667D01*
X123320952Y-105350476D01*
X123344762Y-105374286D01*
X123368571Y-105421905D01*
X123368571Y-105540952D01*
X123344762Y-105588571D01*
X123320952Y-105612381D01*
X123273333Y-105636190D01*
X123154286Y-105636190D01*
X123106667Y-105612381D01*
X123082857Y-105588571D01*
X123797142Y-105302857D02*
X123797142Y-105636190D01*
X123678095Y-105112381D02*
X123559047Y-105469524D01*
X123868571Y-105469524D01*
X124154285Y-105136190D02*
X124201904Y-105136190D01*
X124249523Y-105160000D01*
X124273332Y-105183810D01*
X124297142Y-105231429D01*
X124320951Y-105326667D01*
X124320951Y-105445714D01*
X124297142Y-105540952D01*
X124273332Y-105588571D01*
X124249523Y-105612381D01*
X124201904Y-105636190D01*
X124154285Y-105636190D01*
X124106666Y-105612381D01*
X124082856Y-105588571D01*
X124059047Y-105540952D01*
X124035237Y-105445714D01*
X124035237Y-105326667D01*
X124059047Y-105231429D01*
X124082856Y-105183810D01*
X124106666Y-105160000D01*
X124154285Y-105136190D01*
X124535237Y-105636190D02*
X124535237Y-105136190D01*
X124820951Y-105636190D01*
X124820951Y-105136190D01*
X121559049Y-98016190D02*
X121559049Y-97516190D01*
X122082858Y-98016190D02*
X121916191Y-97778095D01*
X121797144Y-98016190D02*
X121797144Y-97516190D01*
X121987620Y-97516190D01*
X122035239Y-97540000D01*
X122059048Y-97563810D01*
X122082858Y-97611429D01*
X122082858Y-97682857D01*
X122059048Y-97730476D01*
X122035239Y-97754286D01*
X121987620Y-97778095D01*
X121797144Y-97778095D01*
X122463810Y-97754286D02*
X122297144Y-97754286D01*
X122297144Y-98016190D02*
X122297144Y-97516190D01*
X122535239Y-97516190D01*
X123344762Y-97516190D02*
X123106667Y-97516190D01*
X123082857Y-97754286D01*
X123106667Y-97730476D01*
X123154286Y-97706667D01*
X123273333Y-97706667D01*
X123320952Y-97730476D01*
X123344762Y-97754286D01*
X123368571Y-97801905D01*
X123368571Y-97920952D01*
X123344762Y-97968571D01*
X123320952Y-97992381D01*
X123273333Y-98016190D01*
X123154286Y-98016190D01*
X123106667Y-97992381D01*
X123082857Y-97968571D01*
X123797142Y-97682857D02*
X123797142Y-98016190D01*
X123678095Y-97492381D02*
X123559047Y-97849524D01*
X123868571Y-97849524D01*
X124154285Y-97516190D02*
X124201904Y-97516190D01*
X124249523Y-97540000D01*
X124273332Y-97563810D01*
X124297142Y-97611429D01*
X124320951Y-97706667D01*
X124320951Y-97825714D01*
X124297142Y-97920952D01*
X124273332Y-97968571D01*
X124249523Y-97992381D01*
X124201904Y-98016190D01*
X124154285Y-98016190D01*
X124106666Y-97992381D01*
X124082856Y-97968571D01*
X124059047Y-97920952D01*
X124035237Y-97825714D01*
X124035237Y-97706667D01*
X124059047Y-97611429D01*
X124082856Y-97563810D01*
X124106666Y-97540000D01*
X124154285Y-97516190D01*
X124535237Y-98016190D02*
X124535237Y-97516190D01*
X124820951Y-98016190D01*
X124820951Y-97516190D01*
X121559049Y-90396190D02*
X121559049Y-89896190D01*
X122082858Y-90396190D02*
X121916191Y-90158095D01*
X121797144Y-90396190D02*
X121797144Y-89896190D01*
X121987620Y-89896190D01*
X122035239Y-89920000D01*
X122059048Y-89943810D01*
X122082858Y-89991429D01*
X122082858Y-90062857D01*
X122059048Y-90110476D01*
X122035239Y-90134286D01*
X121987620Y-90158095D01*
X121797144Y-90158095D01*
X122463810Y-90134286D02*
X122297144Y-90134286D01*
X122297144Y-90396190D02*
X122297144Y-89896190D01*
X122535239Y-89896190D01*
X123344762Y-89896190D02*
X123106667Y-89896190D01*
X123082857Y-90134286D01*
X123106667Y-90110476D01*
X123154286Y-90086667D01*
X123273333Y-90086667D01*
X123320952Y-90110476D01*
X123344762Y-90134286D01*
X123368571Y-90181905D01*
X123368571Y-90300952D01*
X123344762Y-90348571D01*
X123320952Y-90372381D01*
X123273333Y-90396190D01*
X123154286Y-90396190D01*
X123106667Y-90372381D01*
X123082857Y-90348571D01*
X123797142Y-90062857D02*
X123797142Y-90396190D01*
X123678095Y-89872381D02*
X123559047Y-90229524D01*
X123868571Y-90229524D01*
X124154285Y-89896190D02*
X124201904Y-89896190D01*
X124249523Y-89920000D01*
X124273332Y-89943810D01*
X124297142Y-89991429D01*
X124320951Y-90086667D01*
X124320951Y-90205714D01*
X124297142Y-90300952D01*
X124273332Y-90348571D01*
X124249523Y-90372381D01*
X124201904Y-90396190D01*
X124154285Y-90396190D01*
X124106666Y-90372381D01*
X124082856Y-90348571D01*
X124059047Y-90300952D01*
X124035237Y-90205714D01*
X124035237Y-90086667D01*
X124059047Y-89991429D01*
X124082856Y-89943810D01*
X124106666Y-89920000D01*
X124154285Y-89896190D01*
X124535237Y-90396190D02*
X124535237Y-89896190D01*
X124820951Y-90396190D01*
X124820951Y-89896190D01*
X121559049Y-82776190D02*
X121559049Y-82276190D01*
X122082858Y-82776190D02*
X121916191Y-82538095D01*
X121797144Y-82776190D02*
X121797144Y-82276190D01*
X121987620Y-82276190D01*
X122035239Y-82300000D01*
X122059048Y-82323810D01*
X122082858Y-82371429D01*
X122082858Y-82442857D01*
X122059048Y-82490476D01*
X122035239Y-82514286D01*
X121987620Y-82538095D01*
X121797144Y-82538095D01*
X122463810Y-82514286D02*
X122297144Y-82514286D01*
X122297144Y-82776190D02*
X122297144Y-82276190D01*
X122535239Y-82276190D01*
X123344762Y-82276190D02*
X123106667Y-82276190D01*
X123082857Y-82514286D01*
X123106667Y-82490476D01*
X123154286Y-82466667D01*
X123273333Y-82466667D01*
X123320952Y-82490476D01*
X123344762Y-82514286D01*
X123368571Y-82561905D01*
X123368571Y-82680952D01*
X123344762Y-82728571D01*
X123320952Y-82752381D01*
X123273333Y-82776190D01*
X123154286Y-82776190D01*
X123106667Y-82752381D01*
X123082857Y-82728571D01*
X123797142Y-82442857D02*
X123797142Y-82776190D01*
X123678095Y-82252381D02*
X123559047Y-82609524D01*
X123868571Y-82609524D01*
X124154285Y-82276190D02*
X124201904Y-82276190D01*
X124249523Y-82300000D01*
X124273332Y-82323810D01*
X124297142Y-82371429D01*
X124320951Y-82466667D01*
X124320951Y-82585714D01*
X124297142Y-82680952D01*
X124273332Y-82728571D01*
X124249523Y-82752381D01*
X124201904Y-82776190D01*
X124154285Y-82776190D01*
X124106666Y-82752381D01*
X124082856Y-82728571D01*
X124059047Y-82680952D01*
X124035237Y-82585714D01*
X124035237Y-82466667D01*
X124059047Y-82371429D01*
X124082856Y-82323810D01*
X124106666Y-82300000D01*
X124154285Y-82276190D01*
X124535237Y-82776190D02*
X124535237Y-82276190D01*
X124820951Y-82776190D01*
X124820951Y-82276190D01*
X129929049Y-112557714D02*
X130310001Y-112557714D01*
X130119525Y-112748190D02*
X130119525Y-112367238D01*
X130810001Y-112748190D02*
X130524287Y-112748190D01*
X130667144Y-112748190D02*
X130667144Y-112248190D01*
X130619525Y-112319619D01*
X130571906Y-112367238D01*
X130524287Y-112391048D01*
X131000477Y-112295810D02*
X131024287Y-112272000D01*
X131071906Y-112248190D01*
X131190953Y-112248190D01*
X131238572Y-112272000D01*
X131262382Y-112295810D01*
X131286191Y-112343429D01*
X131286191Y-112391048D01*
X131262382Y-112462476D01*
X130976668Y-112748190D01*
X131286191Y-112748190D01*
X131429048Y-112248190D02*
X131595715Y-112748190D01*
X131762381Y-112248190D01*
X128305714Y-112486286D02*
X128377143Y-112510095D01*
X128400952Y-112533905D01*
X128424762Y-112581524D01*
X128424762Y-112652952D01*
X128400952Y-112700571D01*
X128377143Y-112724381D01*
X128329524Y-112748190D01*
X128139048Y-112748190D01*
X128139048Y-112248190D01*
X128305714Y-112248190D01*
X128353333Y-112272000D01*
X128377143Y-112295810D01*
X128400952Y-112343429D01*
X128400952Y-112391048D01*
X128377143Y-112438667D01*
X128353333Y-112462476D01*
X128305714Y-112486286D01*
X128139048Y-112486286D01*
X125630762Y-112748190D02*
X125464095Y-112510095D01*
X125345048Y-112748190D02*
X125345048Y-112248190D01*
X125535524Y-112248190D01*
X125583143Y-112272000D01*
X125606952Y-112295810D01*
X125630762Y-112343429D01*
X125630762Y-112414857D01*
X125606952Y-112462476D01*
X125583143Y-112486286D01*
X125535524Y-112510095D01*
X125345048Y-112510095D01*
X123066952Y-112272000D02*
X123019333Y-112248190D01*
X122947905Y-112248190D01*
X122876476Y-112272000D01*
X122828857Y-112319619D01*
X122805048Y-112367238D01*
X122781238Y-112462476D01*
X122781238Y-112533905D01*
X122805048Y-112629143D01*
X122828857Y-112676762D01*
X122876476Y-112724381D01*
X122947905Y-112748190D01*
X122995524Y-112748190D01*
X123066952Y-112724381D01*
X123090762Y-112700571D01*
X123090762Y-112533905D01*
X122995524Y-112533905D01*
D12*
X162396863Y-105698600D02*
G75*
G03X157602564Y-105700000I-2396863J-981400D01*
G01*
X162396863Y-107661400D02*
G75*
G02X157602564Y-107660000I-2396863J981400D01*
G01*
X162396863Y-107661400D02*
G75*
G03X162397436Y-105700000I-2396863J981400D01*
G01*
X160000000Y-104130000D02*
X160000000Y-109230000D01*
X160040000Y-104130000D02*
X160040000Y-109230000D01*
X160080000Y-104131000D02*
X160080000Y-109229000D01*
X160120000Y-104132000D02*
X160120000Y-109228000D01*
X160160000Y-104134000D02*
X160160000Y-109226000D01*
X160200000Y-104137000D02*
X160200000Y-109223000D01*
X160240000Y-104141000D02*
X160240000Y-109219000D01*
X160280000Y-104145000D02*
X160280000Y-105700000D01*
X160280000Y-107660000D02*
X160280000Y-109215000D01*
X160320000Y-104149000D02*
X160320000Y-105700000D01*
X160320000Y-107660000D02*
X160320000Y-109211000D01*
X160360000Y-104155000D02*
X160360000Y-105700000D01*
X160360000Y-107660000D02*
X160360000Y-109205000D01*
X160400000Y-104161000D02*
X160400000Y-105700000D01*
X160400000Y-107660000D02*
X160400000Y-109199000D01*
X160440000Y-104167000D02*
X160440000Y-105700000D01*
X160440000Y-107660000D02*
X160440000Y-109193000D01*
X160480000Y-104174000D02*
X160480000Y-105700000D01*
X160480000Y-107660000D02*
X160480000Y-109186000D01*
X160520000Y-104182000D02*
X160520000Y-105700000D01*
X160520000Y-107660000D02*
X160520000Y-109178000D01*
X160560000Y-104191000D02*
X160560000Y-105700000D01*
X160560000Y-107660000D02*
X160560000Y-109169000D01*
X160600000Y-104200000D02*
X160600000Y-105700000D01*
X160600000Y-107660000D02*
X160600000Y-109160000D01*
X160640000Y-104210000D02*
X160640000Y-105700000D01*
X160640000Y-107660000D02*
X160640000Y-109150000D01*
X160680000Y-104220000D02*
X160680000Y-105700000D01*
X160680000Y-107660000D02*
X160680000Y-109140000D01*
X160721000Y-104232000D02*
X160721000Y-105700000D01*
X160721000Y-107660000D02*
X160721000Y-109128000D01*
X160761000Y-104244000D02*
X160761000Y-105700000D01*
X160761000Y-107660000D02*
X160761000Y-109116000D01*
X160801000Y-104256000D02*
X160801000Y-105700000D01*
X160801000Y-107660000D02*
X160801000Y-109104000D01*
X160841000Y-104270000D02*
X160841000Y-105700000D01*
X160841000Y-107660000D02*
X160841000Y-109090000D01*
X160881000Y-104284000D02*
X160881000Y-105700000D01*
X160881000Y-107660000D02*
X160881000Y-109076000D01*
X160921000Y-104298000D02*
X160921000Y-105700000D01*
X160921000Y-107660000D02*
X160921000Y-109062000D01*
X160961000Y-104314000D02*
X160961000Y-105700000D01*
X160961000Y-107660000D02*
X160961000Y-109046000D01*
X161001000Y-104330000D02*
X161001000Y-105700000D01*
X161001000Y-107660000D02*
X161001000Y-109030000D01*
X161041000Y-104347000D02*
X161041000Y-105700000D01*
X161041000Y-107660000D02*
X161041000Y-109013000D01*
X161081000Y-104365000D02*
X161081000Y-105700000D01*
X161081000Y-107660000D02*
X161081000Y-108995000D01*
X161121000Y-104384000D02*
X161121000Y-105700000D01*
X161121000Y-107660000D02*
X161121000Y-108976000D01*
X161161000Y-104404000D02*
X161161000Y-105700000D01*
X161161000Y-107660000D02*
X161161000Y-108956000D01*
X161201000Y-104424000D02*
X161201000Y-105700000D01*
X161201000Y-107660000D02*
X161201000Y-108936000D01*
X161241000Y-104446000D02*
X161241000Y-105700000D01*
X161241000Y-107660000D02*
X161241000Y-108914000D01*
X161281000Y-104468000D02*
X161281000Y-105700000D01*
X161281000Y-107660000D02*
X161281000Y-108892000D01*
X161321000Y-104491000D02*
X161321000Y-105700000D01*
X161321000Y-107660000D02*
X161321000Y-108869000D01*
X161361000Y-104515000D02*
X161361000Y-105700000D01*
X161361000Y-107660000D02*
X161361000Y-108845000D01*
X161401000Y-104540000D02*
X161401000Y-105700000D01*
X161401000Y-107660000D02*
X161401000Y-108820000D01*
X161441000Y-104567000D02*
X161441000Y-105700000D01*
X161441000Y-107660000D02*
X161441000Y-108793000D01*
X161481000Y-104594000D02*
X161481000Y-105700000D01*
X161481000Y-107660000D02*
X161481000Y-108766000D01*
X161521000Y-104622000D02*
X161521000Y-105700000D01*
X161521000Y-107660000D02*
X161521000Y-108738000D01*
X161561000Y-104652000D02*
X161561000Y-105700000D01*
X161561000Y-107660000D02*
X161561000Y-108708000D01*
X161601000Y-104683000D02*
X161601000Y-105700000D01*
X161601000Y-107660000D02*
X161601000Y-108677000D01*
X161641000Y-104715000D02*
X161641000Y-105700000D01*
X161641000Y-107660000D02*
X161641000Y-108645000D01*
X161681000Y-104748000D02*
X161681000Y-105700000D01*
X161681000Y-107660000D02*
X161681000Y-108612000D01*
X161721000Y-104783000D02*
X161721000Y-105700000D01*
X161721000Y-107660000D02*
X161721000Y-108577000D01*
X161761000Y-104819000D02*
X161761000Y-105700000D01*
X161761000Y-107660000D02*
X161761000Y-108541000D01*
X161801000Y-104857000D02*
X161801000Y-105700000D01*
X161801000Y-107660000D02*
X161801000Y-108503000D01*
X161841000Y-104897000D02*
X161841000Y-105700000D01*
X161841000Y-107660000D02*
X161841000Y-108463000D01*
X161881000Y-104938000D02*
X161881000Y-105700000D01*
X161881000Y-107660000D02*
X161881000Y-108422000D01*
X161921000Y-104981000D02*
X161921000Y-105700000D01*
X161921000Y-107660000D02*
X161921000Y-108379000D01*
X161961000Y-105026000D02*
X161961000Y-105700000D01*
X161961000Y-107660000D02*
X161961000Y-108334000D01*
X162001000Y-105074000D02*
X162001000Y-105700000D01*
X162001000Y-107660000D02*
X162001000Y-108286000D01*
X162041000Y-105124000D02*
X162041000Y-105700000D01*
X162041000Y-107660000D02*
X162041000Y-108236000D01*
X162081000Y-105176000D02*
X162081000Y-105700000D01*
X162081000Y-107660000D02*
X162081000Y-108184000D01*
X162121000Y-105232000D02*
X162121000Y-105700000D01*
X162121000Y-107660000D02*
X162121000Y-108128000D01*
X162161000Y-105290000D02*
X162161000Y-105700000D01*
X162161000Y-107660000D02*
X162161000Y-108070000D01*
X162201000Y-105353000D02*
X162201000Y-105700000D01*
X162201000Y-107660000D02*
X162201000Y-108007000D01*
X162241000Y-105419000D02*
X162241000Y-107941000D01*
X162281000Y-105491000D02*
X162281000Y-107869000D01*
X162321000Y-105568000D02*
X162321000Y-107792000D01*
X162361000Y-105652000D02*
X162361000Y-107708000D01*
X162401000Y-105746000D02*
X162401000Y-107614000D01*
X162441000Y-105851000D02*
X162441000Y-107509000D01*
X162481000Y-105973000D02*
X162481000Y-107387000D01*
X162521000Y-106121000D02*
X162521000Y-107239000D01*
X162561000Y-106326000D02*
X162561000Y-107034000D01*
X156550000Y-106680000D02*
X157750000Y-106680000D01*
X157150000Y-106030000D02*
X157150000Y-107330000D01*
D13*
X156591000Y-81534000D02*
X155829000Y-81534000D01*
X155829000Y-81534000D02*
X155829000Y-97536000D01*
X155829000Y-97536000D02*
X156591000Y-97536000D01*
D11*
X118364000Y-95631000D02*
X118364000Y-92202000D01*
X128016000Y-95631000D02*
X128016000Y-92202000D01*
X117856000Y-96774000D02*
X128524000Y-96774000D01*
X121412000Y-95758000D02*
X121412000Y-97028000D01*
X124968000Y-95758000D02*
X124968000Y-97028000D01*
X128524000Y-95631000D02*
X117856000Y-95631000D01*
X117856000Y-92202000D02*
X128524000Y-92202000D01*
X128524000Y-97028000D02*
X128524000Y-92202000D01*
X117856000Y-97028000D02*
X117856000Y-92202000D01*
X117856000Y-97028000D02*
X128524000Y-97028000D01*
X118364000Y-80391000D02*
X118364000Y-76962000D01*
X128016000Y-80391000D02*
X128016000Y-76962000D01*
X117856000Y-81534000D02*
X128524000Y-81534000D01*
X121412000Y-80518000D02*
X121412000Y-81788000D01*
X124968000Y-80518000D02*
X124968000Y-81788000D01*
X128524000Y-80391000D02*
X117856000Y-80391000D01*
X117856000Y-76962000D02*
X128524000Y-76962000D01*
X128524000Y-81788000D02*
X128524000Y-76962000D01*
X117856000Y-81788000D02*
X117856000Y-76962000D01*
X117856000Y-81788000D02*
X128524000Y-81788000D01*
X118364000Y-103251000D02*
X118364000Y-99822000D01*
X128016000Y-103251000D02*
X128016000Y-99822000D01*
X117856000Y-104394000D02*
X128524000Y-104394000D01*
X121412000Y-103378000D02*
X121412000Y-104648000D01*
X124968000Y-103378000D02*
X124968000Y-104648000D01*
X128524000Y-103251000D02*
X117856000Y-103251000D01*
X117856000Y-99822000D02*
X128524000Y-99822000D01*
X128524000Y-104648000D02*
X128524000Y-99822000D01*
X117856000Y-104648000D02*
X117856000Y-99822000D01*
X117856000Y-104648000D02*
X128524000Y-104648000D01*
D12*
X139760000Y-95250000D02*
X139760000Y-87570000D01*
X139760000Y-87570000D02*
X137100000Y-87570000D01*
X137100000Y-87570000D02*
X137100000Y-95250000D01*
X137100000Y-95250000D02*
X139760000Y-95250000D01*
X139760000Y-96520000D02*
X139760000Y-97850000D01*
X139760000Y-97850000D02*
X138430000Y-97850000D01*
X131670000Y-101600000D02*
G75*
G03X131670000Y-101600000I-860000J0D01*
G01*
X130810000Y-102460000D02*
X130810000Y-102500000D01*
X131670000Y-93980000D02*
G75*
G03X131670000Y-93980000I-860000J0D01*
G01*
X130810000Y-94840000D02*
X130810000Y-94880000D01*
X131670000Y-86360000D02*
G75*
G03X131670000Y-86360000I-860000J0D01*
G01*
X130810000Y-87220000D02*
X130810000Y-87260000D01*
X131670000Y-78740000D02*
G75*
G03X131670000Y-78740000I-860000J0D01*
G01*
X130810000Y-79600000D02*
X130810000Y-79640000D01*
D11*
X172720000Y-102870000D02*
X172720000Y-110490000D01*
X170180000Y-102870000D02*
X170180000Y-110490000D01*
X169900000Y-100050000D02*
X169900000Y-101600000D01*
X172720000Y-110490000D02*
X170180000Y-110490000D01*
X170180000Y-102870000D02*
X172720000Y-102870000D01*
X173000000Y-101600000D02*
X173000000Y-100050000D01*
X173000000Y-100050000D02*
X169900000Y-100050000D01*
X124460000Y-109220000D02*
X132080000Y-109220000D01*
X124460000Y-111760000D02*
X132080000Y-111760000D01*
X121640000Y-112040000D02*
X123190000Y-112040000D01*
X132080000Y-109220000D02*
X132080000Y-111760000D01*
X124460000Y-111760000D02*
X124460000Y-109220000D01*
X123190000Y-108940000D02*
X121640000Y-108940000D01*
X121640000Y-108940000D02*
X121640000Y-112040000D01*
X132562000Y-108738000D02*
X134112000Y-108738000D01*
X137922000Y-108458000D02*
X135382000Y-108458000D01*
X135382000Y-108458000D02*
X135382000Y-105918000D01*
X134112000Y-105638000D02*
X132562000Y-105638000D01*
X132562000Y-105638000D02*
X132562000Y-108738000D01*
X135382000Y-105918000D02*
X137922000Y-105918000D01*
X137922000Y-105918000D02*
X137922000Y-108458000D01*
D12*
X167230000Y-102870000D02*
G75*
G03X167230000Y-102870000I-860000J0D01*
G01*
X166370000Y-102010000D02*
X166370000Y-101970000D01*
X169770000Y-78232000D02*
G75*
G03X169770000Y-78232000I-860000J0D01*
G01*
X169770000Y-78232000D02*
X169810000Y-78232000D01*
D11*
X118364000Y-88011000D02*
X118364000Y-84582000D01*
X128016000Y-88011000D02*
X128016000Y-84582000D01*
X117856000Y-89154000D02*
X128524000Y-89154000D01*
X121412000Y-88138000D02*
X121412000Y-89408000D01*
X124968000Y-88138000D02*
X124968000Y-89408000D01*
X128524000Y-88011000D02*
X117856000Y-88011000D01*
X117856000Y-84582000D02*
X128524000Y-84582000D01*
X128524000Y-89408000D02*
X128524000Y-84582000D01*
X117856000Y-89408000D02*
X117856000Y-84582000D01*
X117856000Y-89408000D02*
X128524000Y-89408000D01*
D12*
X145304000Y-102990000D02*
G75*
G02X147304000Y-102990000I1000000J0D01*
G01*
X147304000Y-102990000D02*
X149074000Y-102990000D01*
X149074000Y-102990000D02*
X149074000Y-77350000D01*
X149074000Y-77350000D02*
X143534000Y-77350000D01*
X143534000Y-77350000D02*
X143534000Y-102990000D01*
X143534000Y-102990000D02*
X145304000Y-102990000D01*
D11*
X140742000Y-108940000D02*
X139192000Y-108940000D01*
X135382000Y-109220000D02*
X137922000Y-109220000D01*
X137922000Y-109220000D02*
X137922000Y-111760000D01*
X139192000Y-112040000D02*
X140742000Y-112040000D01*
X140742000Y-112040000D02*
X140742000Y-108940000D01*
X137922000Y-111760000D02*
X135382000Y-111760000D01*
X135382000Y-111760000D02*
X135382000Y-109220000D01*
X163550000Y-110770000D02*
X165100000Y-110770000D01*
X168910000Y-110490000D02*
X166370000Y-110490000D01*
X166370000Y-110490000D02*
X166370000Y-107950000D01*
X165100000Y-107670000D02*
X163550000Y-107670000D01*
X163550000Y-107670000D02*
X163550000Y-110770000D01*
X166370000Y-107950000D02*
X168910000Y-107950000D01*
X168910000Y-107950000D02*
X168910000Y-110490000D01*
X150114000Y-105130000D02*
X148564000Y-105130000D01*
X148564000Y-105130000D02*
X148564000Y-108230000D01*
X148564000Y-108230000D02*
X150114000Y-108230000D01*
X151384000Y-105410000D02*
X156464000Y-105410000D01*
X156464000Y-105410000D02*
X156464000Y-107950000D01*
X156464000Y-107950000D02*
X151384000Y-107950000D01*
X151384000Y-107950000D02*
X151384000Y-105410000D01*
D12*
X163420000Y-102870000D02*
G75*
G03X163420000Y-102870000I-860000J0D01*
G01*
X162560000Y-102010000D02*
X162560000Y-101970000D01*
D11*
X148082000Y-105029000D02*
X148082000Y-108458000D01*
X138430000Y-105029000D02*
X138430000Y-108458000D01*
X148590000Y-103886000D02*
X137922000Y-103886000D01*
X145034000Y-104902000D02*
X145034000Y-103632000D01*
X141478000Y-104902000D02*
X141478000Y-103632000D01*
X137922000Y-105029000D02*
X148590000Y-105029000D01*
X148590000Y-108458000D02*
X137922000Y-108458000D01*
X137922000Y-103632000D02*
X137922000Y-108458000D01*
X148590000Y-103632000D02*
X148590000Y-108458000D01*
X148590000Y-103632000D02*
X137922000Y-103632000D01*
M02*
