M48
;DRILL file {KiCad 4.0.5} date 02/09/17 22:31:55
;FORMAT={-:-/ absolute / inch / decimal}
FMAT,2
INCH,TZ
T1C0.016
T2C0.026
T3C0.028
T4C0.031
T5C0.039
T6C0.040
T7C0.045
%
G90
G05
M72
T1
X6.05Y-3.7
T2
X6.1988Y-3.25
X6.1988Y-3.8012
X6.2776Y-3.25
X6.2776Y-3.8012
X6.3563Y-3.25
X6.3563Y-3.8012
X6.435Y-3.25
X6.435Y-3.8012
X6.5138Y-3.25
X6.5138Y-3.8012
X6.5925Y-3.25
X6.5925Y-3.8012
X6.6713Y-3.25
X6.6713Y-3.8012
X6.75Y-3.25
X6.75Y-3.8012
T3
X5.15Y-3.1
X5.15Y-3.1748
X5.15Y-3.4
X5.15Y-3.4748
X5.15Y-3.7
X5.15Y-3.7748
X5.15Y-4.
X5.15Y-4.0748
X6.4Y-3.9752
X6.4Y-4.05
X6.55Y-3.9752
X6.55Y-4.05
X6.65Y-3.08
X6.7248Y-3.08
T4
X5.61Y-3.1
X5.61Y-3.2
X5.61Y-3.3
X5.61Y-3.4
X5.61Y-3.5
X5.61Y-3.6
X5.61Y-3.7
X5.61Y-3.8
X5.61Y-3.9
X5.61Y-4.
X5.91Y-3.1
X5.91Y-3.2
X5.91Y-3.3
X5.91Y-3.4
X5.91Y-3.5
X5.91Y-3.6
X5.91Y-3.7
X5.91Y-3.8
X5.91Y-3.9
X5.91Y-4.
X6.25Y-4.2
X6.3484Y-4.2
T5
X5.45Y-3.5
X5.45Y-3.6
X5.45Y-3.7
X5.45Y-3.8
T6
X4.85Y-4.35
X4.95Y-4.35
X5.05Y-4.35
X5.15Y-4.35
X5.28Y-4.22
X5.38Y-4.22
X5.38Y-4.35
X5.48Y-4.35
X5.91Y-4.2
X6.01Y-4.2
X6.11Y-4.2
X6.5Y-4.3
X6.6Y-4.3
X6.75Y-4.
X6.75Y-4.1
X6.75Y-4.2
X6.75Y-4.3
T7
X4.75Y-3.1
X4.75Y-3.4
X4.75Y-3.7
X4.75Y-4.
X4.85Y-3.1
X4.85Y-3.4
X4.85Y-3.7
X4.85Y-4.
X4.95Y-3.1
X4.95Y-3.4
X4.95Y-3.7
X4.95Y-4.
X5.54Y-4.2
X5.64Y-4.2
X5.74Y-4.2
T0
M30
