G04 #@! TF.FileFunction,Soldermask,Top*
%FSLAX46Y46*%
G04 Gerber Fmt 4.6, Leading zero omitted, Abs format (unit mm)*
G04 Created by KiCad (PCBNEW 4.0.5) date 02/09/17 22:31:50*
%MOMM*%
%LPD*%
G01*
G04 APERTURE LIST*
%ADD10C,0.100000*%
%ADD11R,2.000000X2.000000*%
%ADD12C,2.000000*%
%ADD13R,1.500000X2.900000*%
%ADD14O,1.500000X2.900000*%
%ADD15O,2.800000X1.500000*%
%ADD16O,2.432000X2.940000*%
%ADD17R,2.100000X2.100000*%
%ADD18O,2.100000X2.100000*%
%ADD19C,1.800000*%
%ADD20O,1.800000X1.800000*%
%ADD21R,2.432000X2.127200*%
%ADD22O,2.432000X2.127200*%
%ADD23R,2.127200X2.432000*%
%ADD24O,2.127200X2.432000*%
%ADD25R,2.432000X2.432000*%
%ADD26O,2.432000X2.432000*%
%ADD27O,2.000000X2.000000*%
G04 APERTURE END LIST*
D10*
D11*
X158750000Y-106680000D03*
D12*
X161250000Y-106680000D03*
D13*
X171450000Y-81850000D03*
D14*
X169450000Y-81850000D03*
X167450000Y-81850000D03*
X165450000Y-81850000D03*
X163450000Y-81850000D03*
X161450000Y-81850000D03*
X159450000Y-81850000D03*
X157450000Y-81850000D03*
X157450000Y-97250000D03*
X159450000Y-97150000D03*
X161450000Y-97250000D03*
X163450000Y-97250000D03*
X165450000Y-97250000D03*
X167450000Y-97250000D03*
X169450000Y-97250000D03*
X171450000Y-97250000D03*
D15*
X155700000Y-84540000D03*
X155700000Y-86540000D03*
X155700000Y-88540000D03*
X155700000Y-90540000D03*
X155700000Y-92540000D03*
X155700000Y-94540000D03*
D16*
X123190000Y-93980000D03*
X120650000Y-93980000D03*
X125730000Y-93980000D03*
X123190000Y-78740000D03*
X120650000Y-78740000D03*
X125730000Y-78740000D03*
X123190000Y-101600000D03*
X120650000Y-101600000D03*
X125730000Y-101600000D03*
D17*
X138430000Y-96520000D03*
D18*
X138430000Y-93980000D03*
X138430000Y-91440000D03*
X138430000Y-88900000D03*
D19*
X130810000Y-101600000D03*
D20*
X130810000Y-103500000D03*
D19*
X130810000Y-93980000D03*
D20*
X130810000Y-95880000D03*
D19*
X130810000Y-86360000D03*
D20*
X130810000Y-88260000D03*
D19*
X130810000Y-78740000D03*
D20*
X130810000Y-80640000D03*
D21*
X171450000Y-101600000D03*
D22*
X171450000Y-104140000D03*
X171450000Y-106680000D03*
X171450000Y-109220000D03*
D23*
X123190000Y-110490000D03*
D24*
X125730000Y-110490000D03*
X128270000Y-110490000D03*
X130810000Y-110490000D03*
D25*
X134112000Y-107188000D03*
D26*
X136652000Y-107188000D03*
D19*
X166370000Y-102870000D03*
D20*
X166370000Y-100970000D03*
D19*
X168910000Y-78232000D03*
D20*
X170810000Y-78232000D03*
D16*
X123190000Y-86360000D03*
X120650000Y-86360000D03*
X125730000Y-86360000D03*
D11*
X150114000Y-101600000D03*
D27*
X142494000Y-78740000D03*
X150114000Y-99060000D03*
X142494000Y-81280000D03*
X150114000Y-96520000D03*
X142494000Y-83820000D03*
X150114000Y-93980000D03*
X142494000Y-86360000D03*
X150114000Y-91440000D03*
X142494000Y-88900000D03*
X150114000Y-88900000D03*
X142494000Y-91440000D03*
X150114000Y-86360000D03*
X142494000Y-93980000D03*
X150114000Y-83820000D03*
X142494000Y-96520000D03*
X150114000Y-81280000D03*
X142494000Y-99060000D03*
X150114000Y-78740000D03*
X142494000Y-101600000D03*
D25*
X139192000Y-110490000D03*
D26*
X136652000Y-110490000D03*
D25*
X165100000Y-109220000D03*
D26*
X167640000Y-109220000D03*
D23*
X150114000Y-106680000D03*
D24*
X152654000Y-106680000D03*
X155194000Y-106680000D03*
D19*
X162560000Y-102870000D03*
D20*
X162560000Y-100970000D03*
D16*
X143256000Y-106680000D03*
X145796000Y-106680000D03*
X140716000Y-106680000D03*
M02*
