M48
;DRILL file {KiCad 4.0.5} date 02/10/17 18:58:32
;FORMAT={-:-/ absolute / inch / decimal}
FMAT,2
INCH,TZ
T1C0.016
T2C0.026
T3C0.028
T4C0.031
T5C0.039
T6C0.040
T7C0.045
%
G90
G05
M72
T1
X4.15Y-3.7
T2
X4.2988Y-3.25
X4.2988Y-3.8012
X4.3776Y-3.25
X4.3776Y-3.8012
X4.4563Y-3.25
X4.4563Y-3.8012
X4.535Y-3.25
X4.535Y-3.8012
X4.6138Y-3.25
X4.6138Y-3.8012
X4.6925Y-3.25
X4.6925Y-3.8012
X4.7713Y-3.25
X4.7713Y-3.8012
X4.85Y-3.25
X4.85Y-3.8012
T3
X3.6Y-2.75
X3.6Y-2.8248
X3.61Y-3.31
X3.61Y-3.3848
X4.19Y-2.75
X4.19Y-2.8248
X4.5Y-3.9752
X4.5Y-4.05
X4.65Y-3.9752
X4.65Y-4.05
X4.75Y-3.08
X4.8248Y-3.08
X4.83Y-2.75
X4.83Y-2.8248
T4
X3.14Y-4.
X3.2384Y-4.
X3.3716Y-4.
X3.47Y-4.
X3.71Y-3.1
X3.71Y-3.2
X3.71Y-3.3
X3.71Y-3.4
X3.71Y-3.5
X3.71Y-3.6
X3.71Y-3.7
X3.71Y-3.8
X3.71Y-3.9
X3.71Y-4.
X4.01Y-3.1
X4.01Y-3.2
X4.01Y-3.3
X4.01Y-3.4
X4.01Y-3.5
X4.01Y-3.6
X4.01Y-3.7
X4.01Y-3.8
X4.01Y-3.9
X4.01Y-4.
X4.35Y-4.3
X4.4484Y-4.3
T5
X3.6Y-3.5
X3.6Y-3.6
X3.6Y-3.7
X3.6Y-3.8
T6
X3.14Y-3.06
X3.14Y-3.59
X3.24Y-3.06
X3.24Y-3.59
X3.34Y-3.06
X3.44Y-3.06
X3.71Y-4.3
X3.81Y-4.3
X4.01Y-4.3
X4.11Y-4.3
X4.21Y-4.3
X4.6Y-4.3
X4.7Y-4.3
X4.85Y-4.
X4.85Y-4.1
X4.85Y-4.2
X4.85Y-4.3
T7
X3.21Y-2.75
X3.21Y-3.31
X3.22Y-4.3
X3.31Y-2.75
X3.31Y-3.31
X3.32Y-4.3
X3.41Y-2.75
X3.41Y-3.31
X3.42Y-4.3
X3.8Y-2.75
X3.9Y-2.75
X4.Y-2.75
X4.43Y-2.75
X4.53Y-2.75
X4.63Y-2.75
T0
M30
